<ttFont>
    <TTGlyph name="A" xMin="-44" yMin="0" xMax="664" yMax="712">
      <contour>
        <pt x="288" y="280" on="1"/>
        <pt x="472" y="280" on="1"/>
        <pt x="472" y="549" on="1"/>
      </contour>
      <contour>
        <pt x="-44" y="0" on="1"/>
        <pt x="-36" y="32" on="1"/>
        <pt x="1" y="32" on="1"/>
        <pt x="42" y="32" on="0"/>
        <pt x="106" y="74" on="0"/>
        <pt x="125" y="104" on="1"/>
        <pt x="536" y="712" on="1"/>
        <pt x="560" y="712" on="1"/>
        <pt x="560" y="75" on="1"/>
        <pt x="562" y="50" on="0"/>
        <pt x="586" y="32" on="0"/>
        <pt x="608" y="32" on="1"/>
        <pt x="664" y="32" on="1"/>
        <pt x="656" y="0" on="1"/>
        <pt x="360" y="0" on="1"/>
        <pt x="368" y="32" on="1"/>
        <pt x="430" y="32" on="1"/>
        <pt x="450" y="32" on="0"/>
        <pt x="472" y="50" on="0"/>
        <pt x="472" y="78" on="1"/>
        <pt x="472" y="244" on="1"/>
        <pt x="263" y="244" on="1"/>
        <pt x="195" y="144" on="1"/>
        <pt x="161" y="96" on="0"/>
        <pt x="161" y="66" on="1"/>
        <pt x="161" y="32" on="0"/>
        <pt x="201" y="32" on="1"/>
        <pt x="256" y="32" on="1"/>
        <pt x="248" y="0" on="1"/>
      </contour>
    </TTGlyph>
    <TTGlyph name="AE" xMin="-44" yMin="0" xMax="1054" yMax="712">
      <contour>
        <pt x="-44" y="0" on="1"/>
        <pt x="-36" y="32" on="1"/>
        <pt x="3" y="32" on="1"/>
        <pt x="68" y="32" on="0"/>
        <pt x="124" y="104" on="1"/>
        <pt x="514" y="591" on="1"/>
        <pt x="518" y="596" on="0"/>
        <pt x="531" y="612" on="0"/>
        <pt x="538" y="620" on="0"/>
        <pt x="549" y="633" on="0"/>
        <pt x="554" y="642" on="0"/>
        <pt x="560" y="652" on="0"/>
        <pt x="563" y="661" on="0"/>
        <pt x="563" y="665" on="1"/>
        <pt x="563" y="680" on="0"/>
        <pt x="540" y="680" on="1"/>
        <pt x="494" y="680" on="1"/>
        <pt x="502" y="712" on="1"/>
        <pt x="1054" y="712" on="1"/>
        <pt x="1008" y="484" on="1"/>
        <pt x="983" y="484" on="1"/>
        <pt x="986" y="505" on="0"/>
        <pt x="986" y="532" on="1"/>
        <pt x="986" y="575" on="0"/>
        <pt x="972" y="634" on="0"/>
        <pt x="942" y="666" on="0"/>
        <pt x="904" y="680" on="0"/>
        <pt x="878" y="680" on="1"/>
        <pt x="714" y="680" on="1"/>
        <pt x="687" y="680" on="0"/>
        <pt x="680" y="653" on="1"/>
        <pt x="608" y="386" on="1"/>
        <pt x="716" y="386" on="1"/>
        <pt x="734" y="386" on="0"/>
        <pt x="764" y="396" on="0"/>
        <pt x="784" y="411" on="0"/>
        <pt x="804" y="437" on="0"/>
        <pt x="815" y="458" on="0"/>
        <pt x="827" y="492" on="0"/>
        <pt x="832" y="511" on="0"/>
        <pt x="837" y="528" on="1"/>
        <pt x="862" y="528" on="1"/>
        <pt x="774" y="200" on="1"/>
        <pt x="749" y="200" on="1"/>
        <pt x="759" y="244" on="0"/>
        <pt x="759" y="275" on="1"/>
        <pt x="759" y="310" on="0"/>
        <pt x="732" y="350" on="0"/>
        <pt x="699" y="350" on="1"/>
        <pt x="598" y="350" on="1"/>
        <pt x="519" y="59" on="1"/>
        <pt x="515" y="45" on="0"/>
        <pt x="524" y="32" on="0"/>
        <pt x="538" y="32" on="1"/>
        <pt x="724" y="32" on="1"/>
        <pt x="750" y="32" on="0"/>
        <pt x="820" y="58" on="0"/>
        <pt x="848" y="84" on="1"/>
        <pt x="876" y="112" on="0"/>
        <pt x="929" y="204" on="0"/>
        <pt x="942" y="236" on="1"/>
        <pt x="954" y="268" on="1"/>
        <pt x="978" y="268" on="1"/>
        <pt x="894" y="0" on="1"/>
        <pt x="310" y="0" on="1"/>
        <pt x="318" y="32" on="1"/>
        <pt x="393" y="32" on="1"/>
        <pt x="420" y="32" on="0"/>
        <pt x="428" y="59" on="1"/>
        <pt x="478" y="245" on="1"/>
        <pt x="281" y="245" on="1"/>
        <pt x="200" y="144" on="1"/>
        <pt x="199" y="142" on="0"/>
        <pt x="186" y="125" on="0"/>
        <pt x="177" y="112" on="0"/>
        <pt x="166" y="91" on="0"/>
        <pt x="159" y="70" on="0"/>
        <pt x="159" y="61" on="1"/>
        <pt x="159" y="48" on="0"/>
        <pt x="176" y="32" on="0"/>
        <pt x="195" y="32" on="1"/>
        <pt x="243" y="32" on="1"/>
        <pt x="235" y="0" on="1"/>
      </contour>
      <contour>
        <pt x="308" y="281" on="1"/>
        <pt x="487" y="281" on="1"/>
        <pt x="579" y="620" on="1"/>
      </contour>
    </TTGlyph>
    <TTGlyph name="Aacute" xMin="-44" yMin="0" xMax="720" yMax="924">
      <component glyphName="A" x="0" y="0" flags="0x1004"/>
      <component glyphName="Acute" x="178" y="0" flags="0x1004"/>
    </TTGlyph>
    <TTGlyph name="Acircumflex" xMin="-44" yMin="0" xMax="712" yMax="920">
      <component glyphName="A" x="0" y="0" flags="0x1004"/>
      <component glyphName="Circumflex" x="178" y="0" flags="0x1004"/>
    </TTGlyph>
    <TTGlyph name="Acute" xMin="360" yMin="762" xMax="542" yMax="924">
      <contour>
        <pt x="360" y="774" on="1"/>
        <pt x="466" y="897" on="1"/>
        <pt x="489" y="924" on="0"/>
        <pt x="514" y="924" on="1"/>
        <pt x="542" y="924" on="0"/>
        <pt x="542" y="895" on="1"/>
        <pt x="542" y="868" on="0"/>
        <pt x="510" y="849" on="1"/>
        <pt x="372" y="762" on="1"/>
      </contour>
    </TTGlyph>
    <TTGlyph name="Adieresis" xMin="-44" yMin="0" xMax="732" yMax="902">
      <component glyphName="A" x="0" y="0" flags="0x1004"/>
      <component glyphName="Dieresis" x="178" y="0" flags="0x1004"/>
    </TTGlyph>
    <TTGlyph name="Agrave" xMin="-44" yMin="0" xMax="664" yMax="930">
      <component glyphName="A" x="0" y="0" flags="0x1004"/>
      <component glyphName="Grave" x="178" y="0" flags="0x1004"/>
    </TTGlyph>
    <TTGlyph name="Aring" xMin="-44" yMin="0" xMax="664" yMax="948">
      <component glyphName="A" x="0" y="0" flags="0x1004"/>
      <component glyphName="Ring" x="178" y="0" flags="0x1004"/>
    </TTGlyph>
    <TTGlyph name="Atilde" xMin="-44" yMin="0" xMax="722" yMax="904">
      <component glyphName="A" x="0" y="0" flags="0x1004"/>
      <component glyphName="Tilde" x="172" y="0" flags="0x1004"/>
    </TTGlyph>
    <TTGlyph name="B" xMin="-10" yMin="0" xMax="706" yMax="712">
      <contour>
        <pt x="199" y="59" on="1"/>
        <pt x="192" y="32" on="0"/>
        <pt x="218" y="32" on="1"/>
        <pt x="381" y="32" on="1"/>
        <pt x="410" y="32" on="0"/>
        <pt x="460" y="54" on="0"/>
        <pt x="498" y="91" on="0"/>
        <pt x="524" y="138" on="0"/>
        <pt x="538" y="190" on="0"/>
        <pt x="538" y="215" on="1"/>
        <pt x="538" y="282" on="0"/>
        <pt x="478" y="362" on="0"/>
        <pt x="419" y="362" on="1"/>
        <pt x="281" y="362" on="1"/>
      </contour>
      <contour>
        <pt x="-10" y="0" on="1"/>
        <pt x="-2" y="32" on="1"/>
        <pt x="74" y="32" on="1"/>
        <pt x="100" y="32" on="0"/>
        <pt x="108" y="59" on="1"/>
        <pt x="269" y="653" on="1"/>
        <pt x="278" y="680" on="0"/>
        <pt x="250" y="680" on="1"/>
        <pt x="174" y="680" on="1"/>
        <pt x="182" y="712" on="1"/>
        <pt x="530" y="712" on="1"/>
        <pt x="576" y="712" on="0"/>
        <pt x="654" y="680" on="0"/>
        <pt x="706" y="608" on="0"/>
        <pt x="706" y="559" on="1"/>
        <pt x="706" y="524" on="0"/>
        <pt x="676" y="466" on="0"/>
        <pt x="630" y="426" on="0"/>
        <pt x="569" y="396" on="0"/>
        <pt x="513" y="380" on="0"/>
        <pt x="485" y="376" on="1"/>
        <pt x="484" y="374" on="1"/>
        <pt x="550" y="371" on="0"/>
        <pt x="644" y="286" on="0"/>
        <pt x="644" y="220" on="1"/>
        <pt x="644" y="180" on="0"/>
        <pt x="610" y="108" on="0"/>
        <pt x="552" y="57" on="0"/>
        <pt x="479" y="19" on="0"/>
        <pt x="401" y="0" on="0"/>
        <pt x="364" y="0" on="1"/>
      </contour>
      <contour>
        <pt x="290" y="394" on="1"/>
        <pt x="424" y="394" on="1"/>
        <pt x="466" y="394" on="0"/>
        <pt x="534" y="416" on="0"/>
        <pt x="574" y="451" on="0"/>
        <pt x="600" y="498" on="0"/>
        <pt x="610" y="540" on="0"/>
        <pt x="610" y="561" on="1"/>
        <pt x="610" y="680" on="0"/>
        <pt x="499" y="680" on="1"/>
        <pt x="394" y="680" on="1"/>
        <pt x="367" y="680" on="0"/>
        <pt x="360" y="653" on="1"/>
      </contour>
    </TTGlyph>
    <TTGlyph name="C" xMin="92" yMin="-18" xMax="700" yMax="730">
      <contour>
        <pt x="92" y="252" on="1"/>
        <pt x="92" y="320" on="0"/>
        <pt x="134" y="462" on="0"/>
        <pt x="210" y="582" on="0"/>
        <pt x="305" y="676" on="0"/>
        <pt x="418" y="730" on="0"/>
        <pt x="474" y="730" on="1"/>
        <pt x="539" y="730" on="0"/>
        <pt x="585" y="684" on="1"/>
        <pt x="603" y="666" on="1"/>
        <pt x="613" y="656" on="0"/>
        <pt x="624" y="649" on="0"/>
        <pt x="632" y="649" on="1"/>
        <pt x="645" y="649" on="0"/>
        <pt x="666" y="679" on="0"/>
        <pt x="675" y="708" on="0"/>
        <pt x="677" y="722" on="1"/>
        <pt x="700" y="722" on="1"/>
        <pt x="636" y="416" on="1"/>
        <pt x="613" y="416" on="1"/>
        <pt x="614" y="436" on="0"/>
        <pt x="614" y="479" on="1"/>
        <pt x="614" y="514" on="0"/>
        <pt x="595" y="614" on="0"/>
        <pt x="571" y="647" on="1"/>
        <pt x="533" y="698" on="0"/>
        <pt x="470" y="698" on="1"/>
        <pt x="410" y="698" on="0"/>
        <pt x="314" y="625" on="0"/>
        <pt x="266" y="536" on="1"/>
        <pt x="233" y="474" on="0"/>
        <pt x="188" y="291" on="0"/>
        <pt x="188" y="196" on="1"/>
        <pt x="188" y="148" on="0"/>
        <pt x="205" y="79" on="0"/>
        <pt x="230" y="42" on="0"/>
        <pt x="268" y="20" on="0"/>
        <pt x="300" y="14" on="0"/>
        <pt x="321" y="14" on="1"/>
        <pt x="377" y="14" on="0"/>
        <pt x="484" y="80" on="0"/>
        <pt x="560" y="182" on="0"/>
        <pt x="581" y="242" on="1"/>
        <pt x="612" y="231" on="1"/>
        <pt x="599" y="192" on="0"/>
        <pt x="562" y="122" on="0"/>
        <pt x="506" y="57" on="0"/>
        <pt x="440" y="10" on="0"/>
        <pt x="353" y="-18" on="0"/>
        <pt x="304" y="-18" on="1"/>
        <pt x="274" y="-18" on="0"/>
        <pt x="216" y="1" on="0"/>
        <pt x="160" y="43" on="0"/>
        <pt x="118" y="104" on="0"/>
        <pt x="92" y="196" on="0"/>
      </contour>
    </TTGlyph>
    <TTGlyph name="Ccedilla" xMin="92" yMin="-238" xMax="700" yMax="730">
      <contour>
        <pt x="92" y="252" on="1"/>
        <pt x="92" y="320" on="0"/>
        <pt x="134" y="462" on="0"/>
        <pt x="210" y="582" on="0"/>
        <pt x="305" y="676" on="0"/>
        <pt x="418" y="730" on="0"/>
        <pt x="474" y="730" on="1"/>
        <pt x="539" y="730" on="0"/>
        <pt x="585" y="684" on="1"/>
        <pt x="603" y="666" on="1"/>
        <pt x="611" y="658" on="0"/>
        <pt x="618" y="654" on="0"/>
        <pt x="626" y="649" on="0"/>
        <pt x="638" y="649" on="0"/>
        <pt x="650" y="654" on="0"/>
        <pt x="658" y="666" on="0"/>
        <pt x="664" y="676" on="0"/>
        <pt x="670" y="694" on="0"/>
        <pt x="672" y="702" on="0"/>
        <pt x="674" y="712" on="1"/>
        <pt x="674" y="712" on="0"/>
        <pt x="677" y="722" on="1"/>
        <pt x="700" y="722" on="1"/>
        <pt x="636" y="416" on="1"/>
        <pt x="613" y="416" on="1"/>
        <pt x="613" y="425" on="0"/>
        <pt x="614" y="467" on="0"/>
        <pt x="614" y="479" on="1"/>
        <pt x="614" y="514" on="0"/>
        <pt x="595" y="614" on="0"/>
        <pt x="571" y="647" on="1"/>
        <pt x="533" y="698" on="0"/>
        <pt x="470" y="698" on="1"/>
        <pt x="410" y="698" on="0"/>
        <pt x="314" y="625" on="0"/>
        <pt x="266" y="536" on="1"/>
        <pt x="233" y="474" on="0"/>
        <pt x="188" y="291" on="0"/>
        <pt x="188" y="196" on="1"/>
        <pt x="188" y="148" on="0"/>
        <pt x="205" y="79" on="0"/>
        <pt x="230" y="42" on="0"/>
        <pt x="268" y="20" on="0"/>
        <pt x="300" y="14" on="0"/>
        <pt x="321" y="14" on="1"/>
        <pt x="377" y="14" on="0"/>
        <pt x="484" y="80" on="0"/>
        <pt x="560" y="182" on="0"/>
        <pt x="581" y="242" on="1"/>
        <pt x="612" y="231" on="1"/>
        <pt x="599" y="192" on="0"/>
        <pt x="562" y="122" on="0"/>
        <pt x="506" y="57" on="0"/>
        <pt x="440" y="10" on="0"/>
        <pt x="353" y="-18" on="0"/>
        <pt x="304" y="-18" on="1"/>
        <pt x="300" y="-18" on="1"/>
        <pt x="298" y="-21" on="1"/>
        <pt x="293" y="-30" on="0"/>
        <pt x="293" y="-38" on="1"/>
        <pt x="293" y="-55" on="0"/>
        <pt x="314" y="-70" on="1"/>
        <pt x="332" y="-84" on="0"/>
        <pt x="352" y="-112" on="0"/>
        <pt x="352" y="-131" on="1"/>
        <pt x="352" y="-177" on="0"/>
        <pt x="272" y="-238" on="0"/>
        <pt x="217" y="-238" on="1"/>
        <pt x="186" y="-238" on="0"/>
        <pt x="138" y="-197" on="0"/>
        <pt x="138" y="-164" on="1"/>
        <pt x="138" y="-144" on="0"/>
        <pt x="164" y="-114" on="0"/>
        <pt x="181" y="-114" on="1"/>
        <pt x="213" y="-114" on="0"/>
        <pt x="213" y="-143" on="1"/>
        <pt x="213" y="-168" on="0"/>
        <pt x="189" y="-176" on="1"/>
        <pt x="181" y="-180" on="0"/>
        <pt x="181" y="-189" on="1"/>
        <pt x="181" y="-202" on="0"/>
        <pt x="198" y="-214" on="0"/>
        <pt x="221" y="-214" on="1"/>
        <pt x="250" y="-214" on="0"/>
        <pt x="295" y="-168" on="0"/>
        <pt x="295" y="-139" on="1"/>
        <pt x="295" y="-111" on="0"/>
        <pt x="281" y="-88" on="1"/>
        <pt x="263" y="-59" on="0"/>
        <pt x="263" y="-45" on="1"/>
        <pt x="263" y="-30" on="0"/>
        <pt x="270" y="-15" on="1"/>
        <pt x="236" y="-8" on="0"/>
        <pt x="174" y="29" on="0"/>
        <pt x="122" y="92" on="0"/>
        <pt x="92" y="191" on="0"/>
      </contour>
    </TTGlyph>
    <TTGlyph name="Circumflex" xMin="218" yMin="762" xMax="534" yMax="920">
      <contour>
        <pt x="218" y="778" on="1"/>
        <pt x="324" y="830" on="0"/>
        <pt x="394" y="920" on="1"/>
        <pt x="434" y="920" on="1"/>
        <pt x="458" y="830" on="0"/>
        <pt x="534" y="778" on="1"/>
        <pt x="520" y="762" on="1"/>
        <pt x="496" y="771" on="0"/>
        <pt x="421" y="830" on="0"/>
        <pt x="398" y="858" on="1"/>
        <pt x="358" y="830" on="0"/>
        <pt x="252" y="771" on="0"/>
        <pt x="224" y="762" on="1"/>
      </contour>
    </TTGlyph>
    <TTGlyph name="D" xMin="-10" yMin="0" xMax="726" yMax="712">
      <contour>
        <pt x="-10" y="0" on="1"/>
        <pt x="-2" y="32" on="1"/>
        <pt x="74" y="32" on="1"/>
        <pt x="100" y="32" on="0"/>
        <pt x="108" y="59" on="1"/>
        <pt x="269" y="653" on="1"/>
        <pt x="278" y="680" on="0"/>
        <pt x="250" y="680" on="1"/>
        <pt x="174" y="680" on="1"/>
        <pt x="183" y="712" on="1"/>
        <pt x="504" y="712" on="1"/>
        <pt x="608" y="712" on="0"/>
        <pt x="726" y="568" on="0"/>
        <pt x="726" y="453" on="1"/>
        <pt x="726" y="374" on="0"/>
        <pt x="668" y="212" on="0"/>
        <pt x="616" y="148" on="1"/>
        <pt x="497" y="0" on="0"/>
        <pt x="334" y="0" on="1"/>
      </contour>
      <contour>
        <pt x="199" y="59" on="1"/>
        <pt x="192" y="32" on="0"/>
        <pt x="218" y="32" on="1"/>
        <pt x="344" y="32" on="1"/>
        <pt x="474" y="32" on="0"/>
        <pt x="557" y="180" on="1"/>
        <pt x="590" y="238" on="0"/>
        <pt x="630" y="408" on="0"/>
        <pt x="630" y="500" on="1"/>
        <pt x="630" y="538" on="0"/>
        <pt x="616" y="599" on="0"/>
        <pt x="582" y="651" on="0"/>
        <pt x="523" y="680" on="0"/>
        <pt x="482" y="680" on="1"/>
        <pt x="394" y="680" on="1"/>
        <pt x="367" y="680" on="0"/>
        <pt x="360" y="653" on="1"/>
      </contour>
    </TTGlyph>
    <TTGlyph name="Dieresis" xMin="246" yMin="798" xMax="554" yMax="902">
      <contour>
        <pt x="450" y="828" on="0"/>
        <pt x="450" y="872" on="0"/>
        <pt x="480" y="902" on="0"/>
        <pt x="524" y="902" on="0"/>
        <pt x="554" y="872" on="0"/>
        <pt x="554" y="828" on="0"/>
        <pt x="524" y="798" on="0"/>
        <pt x="480" y="798" on="0"/>
      </contour>
      <contour>
        <pt x="246" y="828" on="0"/>
        <pt x="246" y="872" on="0"/>
        <pt x="276" y="902" on="0"/>
        <pt x="320" y="902" on="0"/>
        <pt x="350" y="872" on="0"/>
        <pt x="350" y="828" on="0"/>
        <pt x="320" y="798" on="0"/>
        <pt x="276" y="798" on="0"/>
      </contour>
    </TTGlyph>
    <TTGlyph name="E" xMin="-10" yMin="0" xMax="734" yMax="712">
      <contour>
        <pt x="-10" y="0" on="1"/>
        <pt x="-2" y="32" on="1"/>
        <pt x="74" y="32" on="1"/>
        <pt x="100" y="32" on="0"/>
        <pt x="108" y="59" on="1"/>
        <pt x="269" y="653" on="1"/>
        <pt x="278" y="680" on="0"/>
        <pt x="250" y="680" on="1"/>
        <pt x="174" y="680" on="1"/>
        <pt x="182" y="712" on="1"/>
        <pt x="734" y="712" on="1"/>
        <pt x="688" y="484" on="1"/>
        <pt x="663" y="484" on="1"/>
        <pt x="666" y="505" on="0"/>
        <pt x="666" y="532" on="1"/>
        <pt x="666" y="575" on="0"/>
        <pt x="652" y="634" on="0"/>
        <pt x="622" y="666" on="0"/>
        <pt x="584" y="680" on="0"/>
        <pt x="558" y="680" on="1"/>
        <pt x="394" y="680" on="1"/>
        <pt x="367" y="680" on="0"/>
        <pt x="360" y="653" on="1"/>
        <pt x="288" y="386" on="1"/>
        <pt x="396" y="386" on="1"/>
        <pt x="414" y="386" on="0"/>
        <pt x="444" y="396" on="0"/>
        <pt x="464" y="411" on="0"/>
        <pt x="484" y="437" on="0"/>
        <pt x="495" y="458" on="0"/>
        <pt x="507" y="492" on="0"/>
        <pt x="512" y="511" on="0"/>
        <pt x="517" y="528" on="1"/>
        <pt x="542" y="528" on="1"/>
        <pt x="454" y="200" on="1"/>
        <pt x="429" y="200" on="1"/>
        <pt x="439" y="244" on="0"/>
        <pt x="439" y="275" on="1"/>
        <pt x="439" y="310" on="0"/>
        <pt x="412" y="350" on="0"/>
        <pt x="379" y="350" on="1"/>
        <pt x="278" y="350" on="1"/>
        <pt x="199" y="59" on="1"/>
        <pt x="192" y="32" on="0"/>
        <pt x="218" y="32" on="1"/>
        <pt x="404" y="32" on="1"/>
        <pt x="430" y="32" on="0"/>
        <pt x="500" y="58" on="0"/>
        <pt x="528" y="84" on="1"/>
        <pt x="556" y="112" on="0"/>
        <pt x="609" y="204" on="0"/>
        <pt x="622" y="236" on="1"/>
        <pt x="634" y="268" on="1"/>
        <pt x="658" y="268" on="1"/>
        <pt x="574" y="0" on="1"/>
      </contour>
    </TTGlyph>
    <TTGlyph name="Eacute" xMin="-10" yMin="0" xMax="734" yMax="924">
      <component glyphName="E" x="0" y="0" flags="0x1004"/>
      <component glyphName="Acute" x="106" y="0" flags="0x1004"/>
    </TTGlyph>
    <TTGlyph name="Ecircumflex" xMin="-10" yMin="0" xMax="734" yMax="920">
      <component glyphName="E" x="0" y="0" flags="0x1004"/>
      <component glyphName="Circumflex" x="106" y="0" flags="0x1004"/>
    </TTGlyph>
    <TTGlyph name="Edieresis" xMin="-10" yMin="0" xMax="734" yMax="902">
      <component glyphName="E" x="0" y="0" flags="0x1004"/>
      <component glyphName="Dieresis" x="106" y="0" flags="0x1004"/>
    </TTGlyph>
    <TTGlyph name="Egrave" xMin="-10" yMin="0" xMax="734" yMax="930">
      <component glyphName="E" x="0" y="0" flags="0x1004"/>
      <component glyphName="Grave" x="106" y="0" flags="0x1004"/>
    </TTGlyph>
    <TTGlyph name="F" xMin="-10" yMin="0" xMax="734" yMax="712">
      <contour>
        <pt x="-10" y="0" on="1"/>
        <pt x="-2" y="32" on="1"/>
        <pt x="74" y="32" on="1"/>
        <pt x="100" y="32" on="0"/>
        <pt x="108" y="59" on="1"/>
        <pt x="269" y="653" on="1"/>
        <pt x="278" y="680" on="0"/>
        <pt x="250" y="680" on="1"/>
        <pt x="174" y="680" on="1"/>
        <pt x="182" y="712" on="1"/>
        <pt x="734" y="712" on="1"/>
        <pt x="688" y="484" on="1"/>
        <pt x="663" y="484" on="1"/>
        <pt x="666" y="505" on="0"/>
        <pt x="666" y="532" on="1"/>
        <pt x="666" y="575" on="0"/>
        <pt x="652" y="634" on="0"/>
        <pt x="622" y="666" on="0"/>
        <pt x="584" y="680" on="0"/>
        <pt x="558" y="680" on="1"/>
        <pt x="394" y="680" on="1"/>
        <pt x="367" y="680" on="0"/>
        <pt x="360" y="653" on="1"/>
        <pt x="288" y="386" on="1"/>
        <pt x="395" y="386" on="1"/>
        <pt x="412" y="386" on="0"/>
        <pt x="442" y="396" on="0"/>
        <pt x="464" y="411" on="0"/>
        <pt x="483" y="437" on="0"/>
        <pt x="494" y="458" on="0"/>
        <pt x="506" y="492" on="0"/>
        <pt x="512" y="511" on="0"/>
        <pt x="516" y="528" on="1"/>
        <pt x="541" y="528" on="1"/>
        <pt x="453" y="200" on="1"/>
        <pt x="428" y="200" on="1"/>
        <pt x="438" y="244" on="0"/>
        <pt x="438" y="275" on="1"/>
        <pt x="438" y="310" on="0"/>
        <pt x="411" y="350" on="0"/>
        <pt x="378" y="350" on="1"/>
        <pt x="278" y="350" on="1"/>
        <pt x="199" y="59" on="1"/>
        <pt x="192" y="32" on="0"/>
        <pt x="218" y="32" on="1"/>
        <pt x="330" y="32" on="1"/>
        <pt x="322" y="0" on="1"/>
      </contour>
    </TTGlyph>
    <TTGlyph name="G" xMin="92" yMin="-18" xMax="730" yMax="730">
      <contour>
        <pt x="92" y="252" on="1"/>
        <pt x="92" y="310" on="0"/>
        <pt x="122" y="428" on="0"/>
        <pt x="174" y="532" on="0"/>
        <pt x="248" y="625" on="0"/>
        <pt x="331" y="692" on="0"/>
        <pt x="427" y="730" on="0"/>
        <pt x="474" y="730" on="1"/>
        <pt x="553" y="730" on="0"/>
        <pt x="614" y="676" on="1"/>
        <pt x="632" y="660" on="0"/>
        <pt x="648" y="649" on="0"/>
        <pt x="657" y="649" on="1"/>
        <pt x="688" y="649" on="0"/>
        <pt x="701" y="722" on="1"/>
        <pt x="724" y="722" on="1"/>
        <pt x="660" y="416" on="1"/>
        <pt x="637" y="416" on="1"/>
        <pt x="638" y="435" on="0"/>
        <pt x="638" y="479" on="1"/>
        <pt x="638" y="597" on="0"/>
        <pt x="595" y="647" on="1"/>
        <pt x="572" y="674" on="0"/>
        <pt x="504" y="698" on="0"/>
        <pt x="470" y="698" on="1"/>
        <pt x="410" y="698" on="0"/>
        <pt x="314" y="626" on="0"/>
        <pt x="266" y="536" on="1"/>
        <pt x="233" y="474" on="0"/>
        <pt x="188" y="291" on="0"/>
        <pt x="188" y="196" on="1"/>
        <pt x="188" y="148" on="0"/>
        <pt x="206" y="76" on="0"/>
        <pt x="230" y="40" on="0"/>
        <pt x="267" y="19" on="0"/>
        <pt x="296" y="14" on="0"/>
        <pt x="314" y="14" on="1"/>
        <pt x="352" y="14" on="0"/>
        <pt x="424" y="54" on="0"/>
        <pt x="477" y="116" on="0"/>
        <pt x="514" y="189" on="0"/>
        <pt x="521" y="224" on="1"/>
        <pt x="532" y="277" on="1"/>
        <pt x="533" y="281" on="0"/>
        <pt x="533" y="288" on="1"/>
        <pt x="533" y="304" on="0"/>
        <pt x="512" y="304" on="1"/>
        <pt x="412" y="304" on="1"/>
        <pt x="420" y="336" on="1"/>
        <pt x="730" y="336" on="1"/>
        <pt x="722" y="304" on="1"/>
        <pt x="658" y="304" on="1"/>
        <pt x="630" y="304" on="0"/>
        <pt x="623" y="277" on="1"/>
        <pt x="562" y="-14" on="1"/>
        <pt x="537" y="-14" on="1"/>
        <pt x="537" y="56" on="1"/>
        <pt x="537" y="97" on="0"/>
        <pt x="522" y="97" on="1"/>
        <pt x="508" y="97" on="0"/>
        <pt x="485" y="70" on="1"/>
        <pt x="402" y="-18" on="0"/>
        <pt x="304" y="-18" on="1"/>
        <pt x="214" y="-18" on="0"/>
        <pt x="92" y="130" on="0"/>
      </contour>
    </TTGlyph>
    <TTGlyph name="Grave" xMin="266" yMin="762" xMax="384" yMax="930">
      <contour>
        <pt x="266" y="895" on="1"/>
        <pt x="266" y="902" on="0"/>
        <pt x="270" y="916" on="0"/>
        <pt x="288" y="930" on="0"/>
        <pt x="301" y="930" on="1"/>
        <pt x="330" y="930" on="0"/>
        <pt x="343" y="893" on="1"/>
        <pt x="384" y="771" on="1"/>
        <pt x="369" y="762" on="1"/>
        <pt x="281" y="859" on="1"/>
        <pt x="266" y="876" on="0"/>
      </contour>
    </TTGlyph>
    <TTGlyph name="H" xMin="-10" yMin="0" xMax="878" yMax="712">
      <contour>
        <pt x="-10" y="0" on="1"/>
        <pt x="-2" y="32" on="1"/>
        <pt x="74" y="32" on="1"/>
        <pt x="100" y="32" on="0"/>
        <pt x="108" y="59" on="1"/>
        <pt x="269" y="653" on="1"/>
        <pt x="276" y="680" on="0"/>
        <pt x="250" y="680" on="1"/>
        <pt x="174" y="680" on="1"/>
        <pt x="182" y="712" on="1"/>
        <pt x="478" y="712" on="1"/>
        <pt x="470" y="680" on="1"/>
        <pt x="394" y="680" on="1"/>
        <pt x="368" y="680" on="0"/>
        <pt x="360" y="653" on="1"/>
        <pt x="287" y="386" on="1"/>
        <pt x="596" y="386" on="1"/>
        <pt x="669" y="653" on="1"/>
        <pt x="676" y="680" on="0"/>
        <pt x="650" y="680" on="1"/>
        <pt x="574" y="680" on="1"/>
        <pt x="582" y="712" on="1"/>
        <pt x="878" y="712" on="1"/>
        <pt x="870" y="680" on="1"/>
        <pt x="794" y="680" on="1"/>
        <pt x="768" y="680" on="0"/>
        <pt x="760" y="653" on="1"/>
        <pt x="599" y="59" on="1"/>
        <pt x="592" y="32" on="0"/>
        <pt x="618" y="32" on="1"/>
        <pt x="694" y="32" on="1"/>
        <pt x="686" y="0" on="1"/>
        <pt x="390" y="0" on="1"/>
        <pt x="398" y="32" on="1"/>
        <pt x="474" y="32" on="1"/>
        <pt x="500" y="32" on="0"/>
        <pt x="508" y="59" on="1"/>
        <pt x="587" y="350" on="1"/>
        <pt x="278" y="350" on="1"/>
        <pt x="199" y="59" on="1"/>
        <pt x="192" y="32" on="0"/>
        <pt x="218" y="32" on="1"/>
        <pt x="294" y="32" on="1"/>
        <pt x="286" y="0" on="1"/>
      </contour>
    </TTGlyph>
    <TTGlyph name="I" xMin="-10" yMin="0" xMax="478" yMax="712">
      <contour>
        <pt x="-10" y="0" on="1"/>
        <pt x="-2" y="32" on="1"/>
        <pt x="74" y="32" on="1"/>
        <pt x="100" y="32" on="0"/>
        <pt x="108" y="59" on="1"/>
        <pt x="269" y="653" on="1"/>
        <pt x="278" y="680" on="0"/>
        <pt x="250" y="680" on="1"/>
        <pt x="174" y="680" on="1"/>
        <pt x="182" y="712" on="1"/>
        <pt x="478" y="712" on="1"/>
        <pt x="470" y="680" on="1"/>
        <pt x="394" y="680" on="1"/>
        <pt x="367" y="680" on="0"/>
        <pt x="360" y="653" on="1"/>
        <pt x="199" y="59" on="1"/>
        <pt x="192" y="32" on="0"/>
        <pt x="218" y="32" on="1"/>
        <pt x="294" y="32" on="1"/>
        <pt x="286" y="0" on="1"/>
      </contour>
    </TTGlyph>
    <TTGlyph name="Iacute" xMin="-10" yMin="0" xMax="516" yMax="924">
      <component glyphName="I" x="0" y="0" flags="0x1004"/>
      <component glyphName="Acute" x="-26" y="0" flags="0x1004"/>
    </TTGlyph>
    <TTGlyph name="Icircumflex" xMin="-10" yMin="0" xMax="508" yMax="920">
      <component glyphName="I" x="0" y="0" flags="0x1004"/>
      <component glyphName="Circumflex" x="-26" y="0" flags="0x1004"/>
    </TTGlyph>
    <TTGlyph name="Idieresis" xMin="-10" yMin="0" xMax="528" yMax="902">
      <component glyphName="I" x="0" y="0" flags="0x1004"/>
      <component glyphName="Dieresis" x="-26" y="0" flags="0x1004"/>
    </TTGlyph>
    <TTGlyph name="Igrave" xMin="-10" yMin="0" xMax="478" yMax="930">
      <component glyphName="I" x="0" y="0" flags="0x1004"/>
      <component glyphName="Grave" x="-26" y="0" flags="0x1004"/>
    </TTGlyph>
    <TTGlyph name="J" xMin="14" yMin="-18" xMax="640" yMax="712">
      <contour>
        <pt x="14" y="110" on="1"/>
        <pt x="14" y="158" on="0"/>
        <pt x="66" y="216" on="0"/>
        <pt x="104" y="216" on="1"/>
        <pt x="130" y="216" on="0"/>
        <pt x="166" y="184" on="0"/>
        <pt x="166" y="159" on="1"/>
        <pt x="166" y="129" on="0"/>
        <pt x="132" y="91" on="0"/>
        <pt x="100" y="91" on="1"/>
        <pt x="90" y="91" on="0"/>
        <pt x="80" y="78" on="0"/>
        <pt x="80" y="68" on="1"/>
        <pt x="80" y="42" on="0"/>
        <pt x="118" y="14" on="0"/>
        <pt x="156" y="14" on="1"/>
        <pt x="205" y="14" on="0"/>
        <pt x="278" y="87" on="0"/>
        <pt x="292" y="139" on="1"/>
        <pt x="431" y="653" on="1"/>
        <pt x="433" y="661" on="0"/>
        <pt x="433" y="665" on="1"/>
        <pt x="433" y="680" on="0"/>
        <pt x="412" y="680" on="1"/>
        <pt x="300" y="680" on="1"/>
        <pt x="308" y="712" on="1"/>
        <pt x="640" y="712" on="1"/>
        <pt x="632" y="680" on="1"/>
        <pt x="556" y="680" on="1"/>
        <pt x="529" y="680" on="0"/>
        <pt x="522" y="653" on="1"/>
        <pt x="395" y="185" on="1"/>
        <pt x="370" y="92" on="0"/>
        <pt x="230" y="-18" on="0"/>
        <pt x="148" y="-18" on="1"/>
        <pt x="86" y="-18" on="0"/>
        <pt x="14" y="54" on="0"/>
      </contour>
    </TTGlyph>
    <TTGlyph name="K" xMin="-10" yMin="0" xMax="844" yMax="712">
      <contour>
        <pt x="-10" y="0" on="1"/>
        <pt x="-2" y="32" on="1"/>
        <pt x="74" y="32" on="1"/>
        <pt x="100" y="32" on="0"/>
        <pt x="108" y="59" on="1"/>
        <pt x="269" y="653" on="1"/>
        <pt x="278" y="680" on="0"/>
        <pt x="250" y="680" on="1"/>
        <pt x="174" y="680" on="1"/>
        <pt x="182" y="712" on="1"/>
        <pt x="478" y="712" on="1"/>
        <pt x="470" y="680" on="1"/>
        <pt x="394" y="680" on="1"/>
        <pt x="367" y="680" on="0"/>
        <pt x="360" y="653" on="1"/>
        <pt x="280" y="356" on="1"/>
        <pt x="578" y="580" on="1"/>
        <pt x="611" y="605" on="0"/>
        <pt x="640" y="636" on="0"/>
        <pt x="640" y="654" on="1"/>
        <pt x="640" y="680" on="0"/>
        <pt x="586" y="680" on="1"/>
        <pt x="562" y="680" on="1"/>
        <pt x="570" y="712" on="1"/>
        <pt x="844" y="712" on="1"/>
        <pt x="836" y="680" on="1"/>
        <pt x="804" y="680" on="0"/>
        <pt x="738" y="656" on="0"/>
        <pt x="691" y="622" on="1"/>
        <pt x="448" y="442" on="1"/>
        <pt x="570" y="76" on="1"/>
        <pt x="580" y="51" on="0"/>
        <pt x="608" y="32" on="0"/>
        <pt x="640" y="32" on="1"/>
        <pt x="682" y="32" on="1"/>
        <pt x="674" y="0" on="1"/>
        <pt x="382" y="0" on="1"/>
        <pt x="390" y="32" on="1"/>
        <pt x="442" y="32" on="1"/>
        <pt x="460" y="32" on="0"/>
        <pt x="482" y="54" on="0"/>
        <pt x="474" y="78" on="1"/>
        <pt x="375" y="387" on="1"/>
        <pt x="267" y="307" on="1"/>
        <pt x="199" y="59" on="1"/>
        <pt x="192" y="32" on="0"/>
        <pt x="218" y="32" on="1"/>
        <pt x="294" y="32" on="1"/>
        <pt x="286" y="0" on="1"/>
      </contour>
    </TTGlyph>
    <TTGlyph name="L" xMin="-10" yMin="0" xMax="658" yMax="712">
      <contour>
        <pt x="-10" y="0" on="1"/>
        <pt x="-2" y="32" on="1"/>
        <pt x="74" y="32" on="1"/>
        <pt x="100" y="32" on="0"/>
        <pt x="108" y="59" on="1"/>
        <pt x="269" y="653" on="1"/>
        <pt x="278" y="680" on="0"/>
        <pt x="250" y="680" on="1"/>
        <pt x="174" y="680" on="1"/>
        <pt x="183" y="712" on="1"/>
        <pt x="478" y="712" on="1"/>
        <pt x="470" y="680" on="1"/>
        <pt x="394" y="680" on="1"/>
        <pt x="367" y="680" on="0"/>
        <pt x="360" y="653" on="1"/>
        <pt x="199" y="59" on="1"/>
        <pt x="192" y="32" on="0"/>
        <pt x="218" y="32" on="1"/>
        <pt x="404" y="32" on="1"/>
        <pt x="430" y="32" on="0"/>
        <pt x="500" y="58" on="0"/>
        <pt x="528" y="84" on="1"/>
        <pt x="556" y="112" on="0"/>
        <pt x="609" y="204" on="0"/>
        <pt x="622" y="236" on="1"/>
        <pt x="634" y="268" on="1"/>
        <pt x="658" y="268" on="1"/>
        <pt x="574" y="0" on="1"/>
      </contour>
    </TTGlyph>
    <TTGlyph name="M" xMin="-10" yMin="-12" xMax="972" yMax="712">
      <contour>
        <pt x="-10" y="0" on="1"/>
        <pt x="-2" y="32" on="1"/>
        <pt x="46" y="32" on="1"/>
        <pt x="78" y="32" on="0"/>
        <pt x="126" y="85" on="0"/>
        <pt x="137" y="126" on="1"/>
        <pt x="280" y="653" on="1"/>
        <pt x="288" y="680" on="0"/>
        <pt x="261" y="680" on="1"/>
        <pt x="174" y="680" on="1"/>
        <pt x="182" y="712" on="1"/>
        <pt x="436" y="712" on="1"/>
        <pt x="436" y="157" on="1"/>
        <pt x="740" y="712" on="1"/>
        <pt x="972" y="712" on="1"/>
        <pt x="964" y="680" on="1"/>
        <pt x="888" y="680" on="1"/>
        <pt x="861" y="680" on="0"/>
        <pt x="854" y="653" on="1"/>
        <pt x="693" y="59" on="1"/>
        <pt x="686" y="32" on="0"/>
        <pt x="714" y="32" on="1"/>
        <pt x="790" y="32" on="1"/>
        <pt x="782" y="0" on="1"/>
        <pt x="484" y="0" on="1"/>
        <pt x="492" y="32" on="1"/>
        <pt x="568" y="32" on="1"/>
        <pt x="594" y="32" on="0"/>
        <pt x="602" y="59" on="1"/>
        <pt x="770" y="680" on="1"/>
        <pt x="755" y="680" on="1"/>
        <pt x="373" y="-12" on="1"/>
        <pt x="348" y="-12" on="1"/>
        <pt x="348" y="680" on="1"/>
        <pt x="328" y="680" on="1"/>
        <pt x="176" y="126" on="1"/>
        <pt x="170" y="104" on="0"/>
        <pt x="170" y="84" on="1"/>
        <pt x="170" y="32" on="0"/>
        <pt x="220" y="32" on="1"/>
        <pt x="268" y="32" on="1"/>
        <pt x="260" y="0" on="1"/>
      </contour>
    </TTGlyph>
    <TTGlyph name="N" xMin="-10" yMin="-18" xMax="884" yMax="712">
      <contour>
        <pt x="-10" y="0" on="1"/>
        <pt x="-2" y="32" on="1"/>
        <pt x="46" y="32" on="1"/>
        <pt x="78" y="32" on="0"/>
        <pt x="126" y="86" on="0"/>
        <pt x="137" y="126" on="1"/>
        <pt x="280" y="653" on="1"/>
        <pt x="284" y="667" on="0"/>
        <pt x="274" y="680" on="0"/>
        <pt x="261" y="680" on="1"/>
        <pt x="174" y="680" on="1"/>
        <pt x="182" y="712" on="1"/>
        <pt x="364" y="712" on="1"/>
        <pt x="573" y="129" on="1"/>
        <pt x="698" y="586" on="1"/>
        <pt x="705" y="610" on="0"/>
        <pt x="705" y="629" on="1"/>
        <pt x="705" y="680" on="0"/>
        <pt x="654" y="680" on="1"/>
        <pt x="606" y="680" on="1"/>
        <pt x="614" y="712" on="1"/>
        <pt x="884" y="712" on="1"/>
        <pt x="876" y="680" on="1"/>
        <pt x="828" y="680" on="1"/>
        <pt x="800" y="680" on="0"/>
        <pt x="748" y="630" on="0"/>
        <pt x="737" y="586" on="1"/>
        <pt x="573" y="-18" on="1"/>
        <pt x="533" y="-18" on="1"/>
        <pt x="312" y="603" on="1"/>
        <pt x="307" y="603" on="1"/>
        <pt x="176" y="126" on="1"/>
        <pt x="170" y="104" on="0"/>
        <pt x="170" y="83" on="1"/>
        <pt x="170" y="32" on="0"/>
        <pt x="220" y="32" on="1"/>
        <pt x="268" y="32" on="1"/>
        <pt x="260" y="0" on="1"/>
      </contour>
    </TTGlyph>
    <TTGlyph name="Ntilde" xMin="-10" yMin="-18" xMax="884" yMax="904">
      <component glyphName="N" x="0" y="0" flags="0x1004"/>
      <component glyphName="Tilde" x="168" y="0" flags="0x1004"/>
    </TTGlyph>
    <TTGlyph name="O" xMin="92" yMin="-18" xMax="686" yMax="730">
      <contour>
        <pt x="188" y="192" on="1"/>
        <pt x="188" y="104" on="0"/>
        <pt x="252" y="14" on="0"/>
        <pt x="312" y="14" on="1"/>
        <pt x="348" y="14" on="0"/>
        <pt x="416" y="45" on="0"/>
        <pt x="464" y="92" on="0"/>
        <pt x="508" y="158" on="0"/>
        <pt x="534" y="216" on="0"/>
        <pt x="546" y="248" on="1"/>
        <pt x="590" y="372" on="0"/>
        <pt x="590" y="520" on="1"/>
        <pt x="590" y="608" on="0"/>
        <pt x="526" y="698" on="0"/>
        <pt x="466" y="698" on="1"/>
        <pt x="430" y="698" on="0"/>
        <pt x="362" y="667" on="0"/>
        <pt x="314" y="620" on="0"/>
        <pt x="270" y="554" on="0"/>
        <pt x="244" y="496" on="0"/>
        <pt x="232" y="464" on="1"/>
        <pt x="188" y="340" on="0"/>
      </contour>
      <contour>
        <pt x="92" y="248" on="1"/>
        <pt x="92" y="326" on="0"/>
        <pt x="136" y="476" on="0"/>
        <pt x="212" y="593" on="0"/>
        <pt x="308" y="682" on="0"/>
        <pt x="420" y="730" on="0"/>
        <pt x="474" y="730" on="1"/>
        <pt x="538" y="730" on="0"/>
        <pt x="636" y="656" on="0"/>
        <pt x="686" y="534" on="0"/>
        <pt x="686" y="462" on="1"/>
        <pt x="686" y="384" on="0"/>
        <pt x="642" y="234" on="0"/>
        <pt x="566" y="118" on="0"/>
        <pt x="470" y="30" on="0"/>
        <pt x="358" y="-18" on="0"/>
        <pt x="304" y="-18" on="1"/>
        <pt x="240" y="-18" on="0"/>
        <pt x="142" y="56" on="0"/>
        <pt x="92" y="176" on="0"/>
      </contour>
    </TTGlyph>
    <TTGlyph name="Oacute" xMin="92" yMin="-18" xMax="686" yMax="924">
      <component glyphName="O" x="0" y="0" flags="0x1004"/>
      <component glyphName="Acute" x="122" y="0" flags="0x1004"/>
    </TTGlyph>
    <TTGlyph name="Ocircumflex" xMin="92" yMin="-18" xMax="686" yMax="920">
      <component glyphName="O" x="0" y="0" flags="0x1004"/>
      <component glyphName="Circumflex" x="122" y="0" flags="0x1004"/>
    </TTGlyph>
    <TTGlyph name="Odieresis" xMin="92" yMin="-18" xMax="686" yMax="902">
      <component glyphName="O" x="0" y="0" flags="0x1004"/>
      <component glyphName="Dieresis" x="122" y="0" flags="0x1004"/>
    </TTGlyph>
    <TTGlyph name="Ograve" xMin="92" yMin="-18" xMax="686" yMax="930">
      <component glyphName="O" x="0" y="0" flags="0x1004"/>
      <component glyphName="Grave" x="122" y="0" flags="0x1004"/>
    </TTGlyph>
    <TTGlyph name="Oslash" xMin="44" yMin="-18" xMax="736" yMax="730">
      <contour>
        <pt x="44" y="6" on="1"/>
        <pt x="127" y="96" on="1"/>
        <pt x="92" y="162" on="0"/>
        <pt x="92" y="248" on="1"/>
        <pt x="92" y="326" on="0"/>
        <pt x="136" y="476" on="0"/>
        <pt x="212" y="593" on="0"/>
        <pt x="308" y="682" on="0"/>
        <pt x="420" y="730" on="0"/>
        <pt x="474" y="730" on="1"/>
        <pt x="524" y="730" on="0"/>
        <pt x="606" y="685" on="0"/>
        <pt x="633" y="645" on="1"/>
        <pt x="712" y="730" on="1"/>
        <pt x="736" y="706" on="1"/>
        <pt x="652" y="614" on="1"/>
        <pt x="686" y="548" on="0"/>
        <pt x="686" y="462" on="1"/>
        <pt x="686" y="384" on="0"/>
        <pt x="642" y="234" on="0"/>
        <pt x="566" y="118" on="0"/>
        <pt x="470" y="30" on="0"/>
        <pt x="358" y="-18" on="0"/>
        <pt x="304" y="-18" on="1"/>
        <pt x="205" y="-18" on="0"/>
        <pt x="145" y="66" on="1"/>
        <pt x="68" y="-18" on="1"/>
      </contour>
      <contour>
        <pt x="195" y="120" on="1"/>
        <pt x="207" y="68" on="0"/>
        <pt x="267" y="14" on="0"/>
        <pt x="312" y="14" on="1"/>
        <pt x="348" y="14" on="0"/>
        <pt x="416" y="45" on="0"/>
        <pt x="464" y="92" on="0"/>
        <pt x="508" y="158" on="0"/>
        <pt x="534" y="216" on="0"/>
        <pt x="546" y="248" on="1"/>
        <pt x="590" y="372" on="0"/>
        <pt x="590" y="520" on="1"/>
        <pt x="590" y="538" on="0"/>
        <pt x="589" y="547" on="1"/>
      </contour>
      <contour>
        <pt x="188" y="192" on="1"/>
        <pt x="188" y="172" on="0"/>
        <pt x="189" y="163" on="1"/>
        <pt x="583" y="590" on="1"/>
        <pt x="560" y="698" on="0"/>
        <pt x="466" y="698" on="1"/>
        <pt x="430" y="698" on="0"/>
        <pt x="362" y="667" on="0"/>
        <pt x="314" y="620" on="0"/>
        <pt x="270" y="554" on="0"/>
        <pt x="244" y="496" on="0"/>
        <pt x="232" y="464" on="1"/>
        <pt x="188" y="340" on="0"/>
      </contour>
    </TTGlyph>
    <TTGlyph name="Otilde" xMin="92" yMin="-18" xMax="686" yMax="904">
      <component glyphName="O" x="0" y="0" flags="0x1004"/>
      <component glyphName="Tilde" x="122" y="0" flags="0x1004"/>
    </TTGlyph>
    <TTGlyph name="P" xMin="-10" yMin="0" xMax="690" yMax="712">
      <contour>
        <pt x="-10" y="0" on="1"/>
        <pt x="-2" y="32" on="1"/>
        <pt x="74" y="32" on="1"/>
        <pt x="100" y="32" on="0"/>
        <pt x="108" y="59" on="1"/>
        <pt x="269" y="653" on="1"/>
        <pt x="274" y="666" on="0"/>
        <pt x="265" y="680" on="0"/>
        <pt x="250" y="680" on="1"/>
        <pt x="174" y="680" on="1"/>
        <pt x="183" y="712" on="1"/>
        <pt x="524" y="712" on="1"/>
        <pt x="598" y="712" on="0"/>
        <pt x="690" y="629" on="0"/>
        <pt x="690" y="554" on="1"/>
        <pt x="690" y="510" on="0"/>
        <pt x="648" y="428" on="0"/>
        <pt x="573" y="366" on="0"/>
        <pt x="460" y="328" on="0"/>
        <pt x="394" y="328" on="1"/>
        <pt x="272" y="328" on="1"/>
        <pt x="199" y="59" on="1"/>
        <pt x="196" y="43" on="0"/>
        <pt x="204" y="32" on="0"/>
        <pt x="218" y="32" on="1"/>
        <pt x="330" y="32" on="1"/>
        <pt x="322" y="0" on="1"/>
      </contour>
      <contour>
        <pt x="281" y="360" on="1"/>
        <pt x="415" y="360" on="1"/>
        <pt x="454" y="360" on="0"/>
        <pt x="528" y="398" on="0"/>
        <pt x="552" y="432" on="1"/>
        <pt x="572" y="460" on="0"/>
        <pt x="594" y="534" on="0"/>
        <pt x="594" y="572" on="1"/>
        <pt x="594" y="626" on="0"/>
        <pt x="541" y="680" on="0"/>
        <pt x="502" y="680" on="1"/>
        <pt x="394" y="680" on="1"/>
        <pt x="367" y="680" on="0"/>
        <pt x="360" y="653" on="1"/>
      </contour>
    </TTGlyph>
    <TTGlyph name="Q" xMin="92" yMin="-184" xMax="686" yMax="730">
      <contour>
        <pt x="188" y="192" on="1"/>
        <pt x="188" y="80" on="0"/>
        <pt x="240" y="38" on="1"/>
        <pt x="244" y="38" on="1"/>
        <pt x="231" y="56" on="0"/>
        <pt x="231" y="82" on="1"/>
        <pt x="231" y="135" on="0"/>
        <pt x="284" y="183" on="0"/>
        <pt x="360" y="183" on="0"/>
        <pt x="406" y="109" on="0"/>
        <pt x="411" y="45" on="1"/>
        <pt x="496" y="106" on="0"/>
        <pt x="590" y="365" on="0"/>
        <pt x="590" y="520" on="1"/>
        <pt x="590" y="608" on="0"/>
        <pt x="526" y="698" on="0"/>
        <pt x="406" y="698" on="0"/>
        <pt x="300" y="613" on="0"/>
        <pt x="229" y="472" on="0"/>
        <pt x="188" y="289" on="0"/>
      </contour>
      <contour>
        <pt x="92" y="248" on="1"/>
        <pt x="92" y="326" on="0"/>
        <pt x="136" y="476" on="0"/>
        <pt x="212" y="593" on="0"/>
        <pt x="308" y="682" on="0"/>
        <pt x="420" y="730" on="0"/>
        <pt x="474" y="730" on="1"/>
        <pt x="538" y="730" on="0"/>
        <pt x="636" y="656" on="0"/>
        <pt x="686" y="534" on="0"/>
        <pt x="686" y="460" on="1"/>
        <pt x="686" y="390" on="0"/>
        <pt x="650" y="256" on="0"/>
        <pt x="593" y="154" on="0"/>
        <pt x="520" y="70" on="0"/>
        <pt x="446" y="18" on="0"/>
        <pt x="412" y="5" on="1"/>
        <pt x="412" y="-39" on="1"/>
        <pt x="412" y="-54" on="0"/>
        <pt x="412" y="-70" on="0"/>
        <pt x="418" y="-100" on="0"/>
        <pt x="426" y="-118" on="0"/>
        <pt x="444" y="-132" on="0"/>
        <pt x="457" y="-132" on="1"/>
        <pt x="514" y="-132" on="0"/>
        <pt x="548" y="-10" on="1"/>
        <pt x="572" y="-17" on="1"/>
        <pt x="562" y="-58" on="0"/>
        <pt x="534" y="-119" on="0"/>
        <pt x="505" y="-154" on="0"/>
        <pt x="470" y="-176" on="0"/>
        <pt x="440" y="-184" on="0"/>
        <pt x="424" y="-184" on="1"/>
        <pt x="380" y="-184" on="0"/>
        <pt x="324" y="-137" on="0"/>
        <pt x="324" y="-91" on="1"/>
        <pt x="324" y="-73" on="0"/>
        <pt x="331" y="-40" on="1"/>
        <pt x="337" y="-15" on="1"/>
        <pt x="322" y="-18" on="0"/>
        <pt x="304" y="-18" on="1"/>
        <pt x="240" y="-18" on="0"/>
        <pt x="142" y="56" on="0"/>
        <pt x="92" y="176" on="0"/>
      </contour>
      <contour>
        <pt x="259" y="82" on="1"/>
        <pt x="259" y="48" on="0"/>
        <pt x="288" y="14" on="0"/>
        <pt x="311" y="14" on="1"/>
        <pt x="324" y="14" on="0"/>
        <pt x="344" y="18" on="1"/>
        <pt x="352" y="55" on="1"/>
        <pt x="355" y="67" on="0"/>
        <pt x="355" y="95" on="0"/>
        <pt x="352" y="116" on="0"/>
        <pt x="344" y="141" on="0"/>
        <pt x="324" y="155" on="0"/>
        <pt x="308" y="155" on="1"/>
        <pt x="285" y="155" on="0"/>
        <pt x="259" y="118" on="0"/>
      </contour>
    </TTGlyph>
    <TTGlyph name="R" xMin="-10" yMin="-12" xMax="694" yMax="712">
      <contour>
        <pt x="-10" y="0" on="1"/>
        <pt x="-2" y="32" on="1"/>
        <pt x="74" y="32" on="1"/>
        <pt x="100" y="32" on="0"/>
        <pt x="108" y="59" on="1"/>
        <pt x="269" y="653" on="1"/>
        <pt x="272" y="668" on="0"/>
        <pt x="264" y="680" on="0"/>
        <pt x="250" y="680" on="1"/>
        <pt x="174" y="680" on="1"/>
        <pt x="182" y="712" on="1"/>
        <pt x="493" y="712" on="1"/>
        <pt x="578" y="712" on="0"/>
        <pt x="672" y="630" on="0"/>
        <pt x="672" y="550" on="1"/>
        <pt x="672" y="486" on="0"/>
        <pt x="556" y="383" on="0"/>
        <pt x="480" y="369" on="1"/>
        <pt x="479" y="365" on="1"/>
        <pt x="570" y="321" on="0"/>
        <pt x="570" y="220" on="1"/>
        <pt x="570" y="196" on="0"/>
        <pt x="548" y="90" on="0"/>
        <pt x="548" y="72" on="1"/>
        <pt x="548" y="58" on="0"/>
        <pt x="562" y="40" on="0"/>
        <pt x="576" y="40" on="1"/>
        <pt x="596" y="40" on="0"/>
        <pt x="628" y="64" on="0"/>
        <pt x="651" y="108" on="0"/>
        <pt x="663" y="140" on="0"/>
        <pt x="669" y="162" on="1"/>
        <pt x="694" y="155" on="1"/>
        <pt x="676" y="94" on="0"/>
        <pt x="661" y="66" on="1"/>
        <pt x="620" y="-12" on="0"/>
        <pt x="546" y="-12" on="1"/>
        <pt x="506" y="-12" on="0"/>
        <pt x="454" y="30" on="0"/>
        <pt x="454" y="81" on="1"/>
        <pt x="454" y="118" on="0"/>
        <pt x="490" y="256" on="0"/>
        <pt x="490" y="277" on="1"/>
        <pt x="490" y="316" on="0"/>
        <pt x="448" y="356" on="0"/>
        <pt x="414" y="356" on="1"/>
        <pt x="279" y="356" on="1"/>
        <pt x="199" y="59" on="1"/>
        <pt x="196" y="44" on="0"/>
        <pt x="204" y="32" on="0"/>
        <pt x="218" y="32" on="1"/>
        <pt x="318" y="32" on="1"/>
        <pt x="310" y="0" on="1"/>
      </contour>
      <contour>
        <pt x="288" y="388" on="1"/>
        <pt x="410" y="388" on="1"/>
        <pt x="486" y="388" on="0"/>
        <pt x="576" y="486" on="0"/>
        <pt x="576" y="574" on="1"/>
        <pt x="576" y="627" on="0"/>
        <pt x="524" y="680" on="0"/>
        <pt x="474" y="680" on="1"/>
        <pt x="394" y="680" on="1"/>
        <pt x="367" y="680" on="0"/>
        <pt x="360" y="653" on="1"/>
      </contour>
    </TTGlyph>
    <TTGlyph name="Ring" xMin="278" yMin="754" xMax="472" yMax="948">
      <contour>
        <pt x="278" y="812" on="0"/>
        <pt x="278" y="892" on="0"/>
        <pt x="334" y="948" on="0"/>
        <pt x="416" y="948" on="0"/>
        <pt x="472" y="892" on="0"/>
        <pt x="472" y="812" on="0"/>
        <pt x="416" y="754" on="0"/>
        <pt x="334" y="754" on="0"/>
      </contour>
      <contour>
        <pt x="302" y="884" on="0"/>
        <pt x="302" y="820" on="0"/>
        <pt x="344" y="778" on="0"/>
        <pt x="406" y="778" on="0"/>
        <pt x="448" y="820" on="0"/>
        <pt x="448" y="884" on="0"/>
        <pt x="406" y="924" on="0"/>
        <pt x="344" y="924" on="0"/>
      </contour>
    </TTGlyph>
    <TTGlyph name="S" xMin="34" yMin="-18" xMax="628" yMax="730">
      <contour>
        <pt x="34" y="-10" on="1"/>
        <pt x="114" y="306" on="1"/>
        <pt x="137" y="306" on="1"/>
        <pt x="124" y="233" on="0"/>
        <pt x="168" y="96" on="0"/>
        <pt x="262" y="14" on="0"/>
        <pt x="319" y="14" on="1"/>
        <pt x="404" y="14" on="0"/>
        <pt x="491" y="84" on="0"/>
        <pt x="491" y="152" on="1"/>
        <pt x="491" y="192" on="0"/>
        <pt x="450" y="243" on="0"/>
        <pt x="410" y="268" on="1"/>
        <pt x="294" y="339" on="1"/>
        <pt x="232" y="376" on="0"/>
        <pt x="177" y="454" on="0"/>
        <pt x="177" y="520" on="1"/>
        <pt x="177" y="574" on="0"/>
        <pt x="210" y="655" on="0"/>
        <pt x="270" y="705" on="0"/>
        <pt x="349" y="730" on="0"/>
        <pt x="396" y="730" on="1"/>
        <pt x="432" y="730" on="0"/>
        <pt x="503" y="692" on="0"/>
        <pt x="525" y="672" on="1"/>
        <pt x="542" y="656" on="0"/>
        <pt x="554" y="656" on="1"/>
        <pt x="570" y="656" on="0"/>
        <pt x="598" y="700" on="0"/>
        <pt x="605" y="722" on="1"/>
        <pt x="628" y="722" on="1"/>
        <pt x="570" y="462" on="1"/>
        <pt x="547" y="462" on="1"/>
        <pt x="550" y="510" on="0"/>
        <pt x="511" y="618" on="0"/>
        <pt x="434" y="698" on="0"/>
        <pt x="387" y="698" on="1"/>
        <pt x="348" y="698" on="0"/>
        <pt x="286" y="674" on="0"/>
        <pt x="250" y="636" on="0"/>
        <pt x="231" y="590" on="0"/>
        <pt x="231" y="565" on="1"/>
        <pt x="231" y="544" on="0"/>
        <pt x="245" y="508" on="0"/>
        <pt x="262" y="484" on="0"/>
        <pt x="294" y="458" on="0"/>
        <pt x="316" y="445" on="0"/>
        <pt x="333" y="435" on="1"/>
        <pt x="427" y="380" on="1"/>
        <pt x="454" y="364" on="0"/>
        <pt x="488" y="340" on="0"/>
        <pt x="524" y="306" on="0"/>
        <pt x="543" y="272" on="0"/>
        <pt x="555" y="226" on="0"/>
        <pt x="555" y="198" on="1"/>
        <pt x="555" y="98" on="0"/>
        <pt x="426" y="-18" on="0"/>
        <pt x="311" y="-18" on="1"/>
        <pt x="278" y="-18" on="0"/>
        <pt x="214" y="0" on="0"/>
        <pt x="168" y="29" on="0"/>
        <pt x="146" y="46" on="0"/>
        <pt x="139" y="53" on="1"/>
        <pt x="119" y="73" on="0"/>
        <pt x="109" y="73" on="1"/>
        <pt x="98" y="73" on="0"/>
        <pt x="74" y="37" on="0"/>
        <pt x="62" y="6" on="0"/>
        <pt x="57" y="-10" on="1"/>
      </contour>
    </TTGlyph>
    <TTGlyph name="T" xMin="106" yMin="0" xMax="744" yMax="712">
      <contour>
        <pt x="106" y="0" on="1"/>
        <pt x="114" y="32" on="1"/>
        <pt x="214" y="32" on="1"/>
        <pt x="240" y="32" on="0"/>
        <pt x="247" y="59" on="1"/>
        <pt x="408" y="653" on="1"/>
        <pt x="416" y="680" on="0"/>
        <pt x="390" y="680" on="1"/>
        <pt x="357" y="680" on="1"/>
        <pt x="323" y="680" on="0"/>
        <pt x="262" y="646" on="0"/>
        <pt x="242" y="627" on="1"/>
        <pt x="213" y="599" on="0"/>
        <pt x="162" y="506" on="0"/>
        <pt x="141" y="448" on="0"/>
        <pt x="141" y="444" on="1"/>
        <pt x="116" y="444" on="1"/>
        <pt x="196" y="712" on="1"/>
        <pt x="744" y="712" on="1"/>
        <pt x="681" y="444" on="1"/>
        <pt x="656" y="444" on="1"/>
        <pt x="668" y="494" on="0"/>
        <pt x="668" y="548" on="1"/>
        <pt x="668" y="580" on="0"/>
        <pt x="654" y="628" on="0"/>
        <pt x="634" y="656" on="0"/>
        <pt x="606" y="674" on="0"/>
        <pt x="581" y="680" on="0"/>
        <pt x="568" y="680" on="1"/>
        <pt x="535" y="680" on="1"/>
        <pt x="504" y="680" on="0"/>
        <pt x="499" y="653" on="1"/>
        <pt x="338" y="59" on="1"/>
        <pt x="335" y="45" on="0"/>
        <pt x="343" y="32" on="0"/>
        <pt x="356" y="32" on="1"/>
        <pt x="456" y="32" on="1"/>
        <pt x="448" y="0" on="1"/>
      </contour>
    </TTGlyph>
    <TTGlyph name="Thorn" xMin="-10" yMin="0" xMax="654" yMax="712">
      <contour>
        <pt x="-10" y="0" on="1"/>
        <pt x="-2" y="32" on="1"/>
        <pt x="74" y="32" on="1"/>
        <pt x="100" y="32" on="0"/>
        <pt x="108" y="59" on="1"/>
        <pt x="269" y="653" on="1"/>
        <pt x="278" y="680" on="0"/>
        <pt x="250" y="680" on="1"/>
        <pt x="174" y="680" on="1"/>
        <pt x="183" y="712" on="1"/>
        <pt x="514" y="712" on="1"/>
        <pt x="506" y="680" on="1"/>
        <pt x="394" y="680" on="1"/>
        <pt x="378" y="680" on="0"/>
        <pt x="364" y="668" on="0"/>
        <pt x="360" y="653" on="1"/>
        <pt x="340" y="578" on="1"/>
        <pt x="488" y="578" on="1"/>
        <pt x="561" y="582" on="0"/>
        <pt x="654" y="496" on="0"/>
        <pt x="654" y="420" on="1"/>
        <pt x="654" y="376" on="0"/>
        <pt x="612" y="294" on="0"/>
        <pt x="537" y="232" on="0"/>
        <pt x="424" y="194" on="0"/>
        <pt x="358" y="194" on="1"/>
        <pt x="236" y="194" on="1"/>
        <pt x="199" y="59" on="1"/>
        <pt x="195" y="45" on="0"/>
        <pt x="204" y="32" on="0"/>
        <pt x="218" y="32" on="1"/>
        <pt x="330" y="32" on="1"/>
        <pt x="322" y="0" on="1"/>
      </contour>
      <contour>
        <pt x="245" y="226" on="1"/>
        <pt x="379" y="226" on="1"/>
        <pt x="418" y="226" on="0"/>
        <pt x="492" y="264" on="0"/>
        <pt x="516" y="298" on="1"/>
        <pt x="536" y="326" on="0"/>
        <pt x="558" y="400" on="0"/>
        <pt x="558" y="438" on="1"/>
        <pt x="558" y="492" on="0"/>
        <pt x="505" y="546" on="0"/>
        <pt x="466" y="546" on="1"/>
        <pt x="358" y="546" on="1"/>
        <pt x="331" y="546" on="0"/>
        <pt x="324" y="519" on="1"/>
      </contour>
    </TTGlyph>
    <TTGlyph name="Tilde" xMin="250" yMin="810" xMax="550" yMax="904">
      <contour>
        <pt x="250" y="810" on="1"/>
        <pt x="250" y="849" on="0"/>
        <pt x="292" y="904" on="0"/>
        <pt x="330" y="904" on="1"/>
        <pt x="362" y="904" on="0"/>
        <pt x="468" y="864" on="0"/>
        <pt x="492" y="864" on="1"/>
        <pt x="509" y="864" on="0"/>
        <pt x="524" y="884" on="0"/>
        <pt x="528" y="904" on="1"/>
        <pt x="550" y="904" on="1"/>
        <pt x="550" y="865" on="0"/>
        <pt x="508" y="810" on="0"/>
        <pt x="470" y="810" on="1"/>
        <pt x="438" y="810" on="0"/>
        <pt x="332" y="850" on="0"/>
        <pt x="308" y="850" on="1"/>
        <pt x="291" y="850" on="0"/>
        <pt x="276" y="830" on="0"/>
        <pt x="272" y="810" on="1"/>
      </contour>
    </TTGlyph>
    <TTGlyph name="U" xMin="130" yMin="-18" xMax="880" yMax="712">
      <contour>
        <pt x="130" y="176" on="1"/>
        <pt x="130" y="200" on="0"/>
        <pt x="139" y="238" on="1"/>
        <pt x="251" y="653" on="1"/>
        <pt x="254" y="667" on="0"/>
        <pt x="246" y="680" on="0"/>
        <pt x="232" y="680" on="1"/>
        <pt x="156" y="680" on="1"/>
        <pt x="164" y="712" on="1"/>
        <pt x="460" y="712" on="1"/>
        <pt x="452" y="680" on="1"/>
        <pt x="376" y="680" on="1"/>
        <pt x="349" y="680" on="0"/>
        <pt x="342" y="653" on="1"/>
        <pt x="223" y="211" on="1"/>
        <pt x="214" y="173" on="0"/>
        <pt x="214" y="154" on="1"/>
        <pt x="214" y="88" on="0"/>
        <pt x="300" y="14" on="0"/>
        <pt x="369" y="14" on="1"/>
        <pt x="416" y="14" on="0"/>
        <pt x="494" y="46" on="0"/>
        <pt x="545" y="100" on="0"/>
        <pt x="578" y="162" on="0"/>
        <pt x="588" y="198" on="1"/>
        <pt x="695" y="588" on="1"/>
        <pt x="701" y="612" on="0"/>
        <pt x="701" y="630" on="1"/>
        <pt x="701" y="651" on="0"/>
        <pt x="678" y="680" on="0"/>
        <pt x="650" y="680" on="1"/>
        <pt x="602" y="680" on="1"/>
        <pt x="610" y="712" on="1"/>
        <pt x="880" y="712" on="1"/>
        <pt x="872" y="680" on="1"/>
        <pt x="824" y="680" on="1"/>
        <pt x="794" y="680" on="0"/>
        <pt x="744" y="627" on="0"/>
        <pt x="733" y="586" on="1"/>
        <pt x="629" y="208" on="1"/>
        <pt x="616" y="158" on="0"/>
        <pt x="576" y="81" on="0"/>
        <pt x="514" y="16" on="0"/>
        <pt x="421" y="-18" on="0"/>
        <pt x="361" y="-18" on="1"/>
        <pt x="303" y="-18" on="0"/>
        <pt x="213" y="13" on="0"/>
        <pt x="158" y="66" on="0"/>
        <pt x="130" y="136" on="0"/>
      </contour>
    </TTGlyph>
    <TTGlyph name="Uacute" xMin="130" yMin="-18" xMax="880" yMax="924">
      <component glyphName="U" x="0" y="0" flags="0x1004"/>
      <component glyphName="Acute" x="172" y="0" flags="0x1004"/>
    </TTGlyph>
    <TTGlyph name="Ucircumflex" xMin="130" yMin="-18" xMax="880" yMax="920">
      <component glyphName="U" x="0" y="0" flags="0x1004"/>
      <component glyphName="Circumflex" x="172" y="0" flags="0x1004"/>
    </TTGlyph>
    <TTGlyph name="Udieresis" xMin="130" yMin="-18" xMax="880" yMax="902">
      <component glyphName="U" x="0" y="0" flags="0x1004"/>
      <component glyphName="Dieresis" x="172" y="0" flags="0x1004"/>
    </TTGlyph>
    <TTGlyph name="Ugrave" xMin="130" yMin="-18" xMax="880" yMax="930">
      <component glyphName="U" x="0" y="0" flags="0x1004"/>
      <component glyphName="Grave" x="172" y="0" flags="0x1004"/>
    </TTGlyph>
    <TTGlyph name="V" xMin="140" yMin="-18" xMax="854" yMax="712">
      <contour>
        <pt x="140" y="680" on="1"/>
        <pt x="148" y="712" on="1"/>
        <pt x="452" y="712" on="1"/>
        <pt x="444" y="680" on="1"/>
        <pt x="374" y="680" on="1"/>
        <pt x="351" y="680" on="0"/>
        <pt x="336" y="656" on="0"/>
        <pt x="336" y="633" on="1"/>
        <pt x="336" y="139" on="1"/>
        <pt x="596" y="536" on="1"/>
        <pt x="638" y="600" on="0"/>
        <pt x="638" y="638" on="1"/>
        <pt x="638" y="656" on="0"/>
        <pt x="615" y="680" on="0"/>
        <pt x="594" y="680" on="1"/>
        <pt x="550" y="680" on="1"/>
        <pt x="558" y="712" on="1"/>
        <pt x="854" y="712" on="1"/>
        <pt x="846" y="680" on="1"/>
        <pt x="807" y="680" on="1"/>
        <pt x="770" y="680" on="0"/>
        <pt x="704" y="636" on="0"/>
        <pt x="687" y="607" on="1"/>
        <pt x="273" y="-18" on="1"/>
        <pt x="248" y="-18" on="1"/>
        <pt x="248" y="636" on="1"/>
        <pt x="245" y="662" on="0"/>
        <pt x="222" y="680" on="0"/>
        <pt x="200" y="680" on="1"/>
      </contour>
    </TTGlyph>
    <TTGlyph name="W" xMin="140" yMin="-18" xMax="1180" yMax="712">
      <contour>
        <pt x="140" y="680" on="1"/>
        <pt x="148" y="712" on="1"/>
        <pt x="444" y="712" on="1"/>
        <pt x="436" y="680" on="1"/>
        <pt x="368" y="680" on="1"/>
        <pt x="346" y="680" on="0"/>
        <pt x="332" y="657" on="0"/>
        <pt x="332" y="633" on="1"/>
        <pt x="332" y="145" on="1"/>
        <pt x="576" y="536" on="1"/>
        <pt x="607" y="583" on="0"/>
        <pt x="607" y="636" on="1"/>
        <pt x="607" y="661" on="0"/>
        <pt x="582" y="680" on="0"/>
        <pt x="560" y="680" on="1"/>
        <pt x="508" y="680" on="1"/>
        <pt x="516" y="712" on="1"/>
        <pt x="812" y="712" on="1"/>
        <pt x="804" y="680" on="1"/>
        <pt x="747" y="680" on="1"/>
        <pt x="722" y="680" on="0"/>
        <pt x="695" y="646" on="0"/>
        <pt x="695" y="617" on="1"/>
        <pt x="695" y="156" on="1"/>
        <pt x="933" y="531" on="1"/>
        <pt x="971" y="590" on="0"/>
        <pt x="971" y="636" on="1"/>
        <pt x="971" y="651" on="0"/>
        <pt x="947" y="680" on="0"/>
        <pt x="931" y="680" on="1"/>
        <pt x="876" y="680" on="1"/>
        <pt x="884" y="712" on="1"/>
        <pt x="1180" y="712" on="1"/>
        <pt x="1172" y="680" on="1"/>
        <pt x="1128" y="680" on="1"/>
        <pt x="1070" y="680" on="0"/>
        <pt x="1025" y="605" on="1"/>
        <pt x="632" y="-18" on="1"/>
        <pt x="607" y="-18" on="1"/>
        <pt x="607" y="517" on="1"/>
        <pt x="269" y="-18" on="1"/>
        <pt x="244" y="-18" on="1"/>
        <pt x="244" y="636" on="1"/>
        <pt x="241" y="662" on="0"/>
        <pt x="219" y="680" on="0"/>
        <pt x="197" y="680" on="1"/>
      </contour>
    </TTGlyph>
    <TTGlyph name="X" xMin="10" yMin="0" xMax="886" yMax="712">
      <contour>
        <pt x="10" y="0" on="1"/>
        <pt x="19" y="32" on="1"/>
        <pt x="62" y="32" on="1"/>
        <pt x="104" y="32" on="0"/>
        <pt x="168" y="72" on="0"/>
        <pt x="201" y="108" on="1"/>
        <pt x="418" y="345" on="1"/>
        <pt x="289" y="630" on="1"/>
        <pt x="282" y="646" on="0"/>
        <pt x="274" y="659" on="0"/>
        <pt x="258" y="674" on="0"/>
        <pt x="237" y="680" on="0"/>
        <pt x="220" y="680" on="1"/>
        <pt x="152" y="680" on="1"/>
        <pt x="160" y="712" on="1"/>
        <pt x="472" y="712" on="1"/>
        <pt x="464" y="680" on="1"/>
        <pt x="419" y="680" on="1"/>
        <pt x="403" y="680" on="0"/>
        <pt x="377" y="650" on="0"/>
        <pt x="386" y="630" on="1"/>
        <pt x="483" y="417" on="1"/>
        <pt x="634" y="582" on="1"/>
        <pt x="654" y="604" on="0"/>
        <pt x="654" y="638" on="1"/>
        <pt x="654" y="680" on="0"/>
        <pt x="603" y="680" on="1"/>
        <pt x="566" y="680" on="1"/>
        <pt x="574" y="712" on="1"/>
        <pt x="886" y="712" on="1"/>
        <pt x="878" y="680" on="1"/>
        <pt x="842" y="680" on="1"/>
        <pt x="770" y="680" on="0"/>
        <pt x="722" y="628" on="1"/>
        <pt x="499" y="381" on="1"/>
        <pt x="642" y="68" on="1"/>
        <pt x="652" y="46" on="0"/>
        <pt x="677" y="32" on="0"/>
        <pt x="699" y="32" on="1"/>
        <pt x="760" y="32" on="1"/>
        <pt x="752" y="0" on="1"/>
        <pt x="432" y="0" on="1"/>
        <pt x="440" y="32" on="1"/>
        <pt x="504" y="32" on="1"/>
        <pt x="526" y="32" on="0"/>
        <pt x="548" y="58" on="0"/>
        <pt x="538" y="80" on="1"/>
        <pt x="434" y="309" on="1"/>
        <pt x="281" y="140" on="1"/>
        <pt x="265" y="122" on="0"/>
        <pt x="253" y="94" on="0"/>
        <pt x="253" y="74" on="1"/>
        <pt x="253" y="32" on="0"/>
        <pt x="305" y="32" on="1"/>
        <pt x="339" y="32" on="1"/>
        <pt x="330" y="0" on="1"/>
      </contour>
    </TTGlyph>
    <TTGlyph name="Y" xMin="106" yMin="0" xMax="830" yMax="712">
      <contour>
        <pt x="106" y="0" on="1"/>
        <pt x="114" y="32" on="1"/>
        <pt x="214" y="32" on="1"/>
        <pt x="240" y="32" on="0"/>
        <pt x="247" y="58" on="1"/>
        <pt x="317" y="318" on="1"/>
        <pt x="238" y="636" on="1"/>
        <pt x="230" y="661" on="0"/>
        <pt x="208" y="680" on="0"/>
        <pt x="188" y="680" on="1"/>
        <pt x="114" y="680" on="1"/>
        <pt x="122" y="712" on="1"/>
        <pt x="438" y="712" on="1"/>
        <pt x="430" y="680" on="1"/>
        <pt x="371" y="680" on="1"/>
        <pt x="346" y="680" on="0"/>
        <pt x="322" y="650" on="0"/>
        <pt x="329" y="633" on="1"/>
        <pt x="395" y="355" on="1"/>
        <pt x="567" y="553" on="1"/>
        <pt x="582" y="571" on="0"/>
        <pt x="597" y="588" on="0"/>
        <pt x="617" y="626" on="0"/>
        <pt x="617" y="641" on="1"/>
        <pt x="617" y="680" on="0"/>
        <pt x="569" y="680" on="1"/>
        <pt x="526" y="680" on="1"/>
        <pt x="534" y="712" on="1"/>
        <pt x="830" y="712" on="1"/>
        <pt x="822" y="680" on="1"/>
        <pt x="775" y="680" on="1"/>
        <pt x="718" y="680" on="0"/>
        <pt x="656" y="607" on="1"/>
        <pt x="411" y="329" on="1"/>
        <pt x="338" y="58" on="1"/>
        <pt x="330" y="32" on="0"/>
        <pt x="356" y="32" on="1"/>
        <pt x="456" y="32" on="1"/>
        <pt x="448" y="0" on="1"/>
      </contour>
    </TTGlyph>
    <TTGlyph name="Yacute" xMin="106" yMin="0" xMax="830" yMax="924">
      <component glyphName="Y" x="0" y="0" flags="0x1004"/>
      <component glyphName="Acute" x="118" y="0" flags="0x1004"/>
    </TTGlyph>
    <TTGlyph name="Z" xMin="36" yMin="0" xMax="672" yMax="712">
      <contour>
        <pt x="36" y="0" on="1"/>
        <pt x="44" y="31" on="1"/>
        <pt x="552" y="680" on="1"/>
        <pt x="372" y="680" on="1"/>
        <pt x="328" y="680" on="0"/>
        <pt x="256" y="644" on="0"/>
        <pt x="216" y="602" on="1"/>
        <pt x="190" y="576" on="0"/>
        <pt x="153" y="514" on="0"/>
        <pt x="141" y="482" on="0"/>
        <pt x="141" y="480" on="1"/>
        <pt x="116" y="480" on="1"/>
        <pt x="200" y="712" on="1"/>
        <pt x="672" y="712" on="1"/>
        <pt x="664" y="680" on="1"/>
        <pt x="158" y="32" on="1"/>
        <pt x="380" y="32" on="1"/>
        <pt x="452" y="32" on="0"/>
        <pt x="506" y="79" on="1"/>
        <pt x="537" y="106" on="0"/>
        <pt x="594" y="200" on="0"/>
        <pt x="608" y="234" on="1"/>
        <pt x="621" y="268" on="1"/>
        <pt x="646" y="268" on="1"/>
        <pt x="560" y="0" on="1"/>
      </contour>
    </TTGlyph>
    <TTGlyph name="a" xMin="42" yMin="-12" xMax="509" yMax="456">
      <contour>
        <pt x="42" y="125" on="1"/>
        <pt x="42" y="186" on="0"/>
        <pt x="78" y="300" on="0"/>
        <pt x="101" y="335" on="1"/>
        <pt x="136" y="390" on="0"/>
        <pt x="229" y="456" on="0"/>
        <pt x="277" y="456" on="1"/>
        <pt x="308" y="456" on="0"/>
        <pt x="358" y="413" on="0"/>
        <pt x="369" y="368" on="1"/>
        <pt x="373" y="366" on="1"/>
        <pt x="395" y="444" on="1"/>
        <pt x="461" y="444" on="1"/>
        <pt x="376" y="129" on="1"/>
        <pt x="362" y="73" on="0"/>
        <pt x="362" y="49" on="1"/>
        <pt x="362" y="22" on="0"/>
        <pt x="380" y="22" on="1"/>
        <pt x="408" y="22" on="0"/>
        <pt x="466" y="111" on="0"/>
        <pt x="489" y="182" on="1"/>
        <pt x="509" y="176" on="1"/>
        <pt x="498" y="142" on="0"/>
        <pt x="470" y="81" on="0"/>
        <pt x="432" y="22" on="0"/>
        <pt x="386" y="-12" on="0"/>
        <pt x="362" y="-12" on="1"/>
        <pt x="304" y="-12" on="0"/>
        <pt x="304" y="90" on="1"/>
        <pt x="305" y="117" on="1"/>
        <pt x="302" y="119" on="1"/>
        <pt x="294" y="100" on="0"/>
        <pt x="266" y="60" on="0"/>
        <pt x="228" y="16" on="0"/>
        <pt x="178" y="-12" on="0"/>
        <pt x="154" y="-12" on="1"/>
        <pt x="101" y="-12" on="0"/>
        <pt x="42" y="63" on="0"/>
      </contour>
      <contour>
        <pt x="114" y="85" on="1"/>
        <pt x="114" y="56" on="0"/>
        <pt x="136" y="12" on="0"/>
        <pt x="160" y="12" on="1"/>
        <pt x="196" y="12" on="0"/>
        <pt x="266" y="86" on="0"/>
        <pt x="294" y="150" on="1"/>
        <pt x="314" y="196" on="0"/>
        <pt x="344" y="305" on="0"/>
        <pt x="344" y="340" on="1"/>
        <pt x="344" y="384" on="0"/>
        <pt x="308" y="432" on="0"/>
        <pt x="277" y="432" on="1"/>
        <pt x="260" y="432" on="0"/>
        <pt x="228" y="410" on="0"/>
        <pt x="200" y="375" on="0"/>
        <pt x="179" y="340" on="0"/>
        <pt x="170" y="320" on="1"/>
        <pt x="144" y="264" on="0"/>
        <pt x="114" y="138" on="0"/>
      </contour>
    </TTGlyph>
    <TTGlyph name="aacute" xMin="42" yMin="-12" xMax="509" yMax="670">
      <component glyphName="a" x="0" y="0" flags="0x1004"/>
      <component glyphName="acute" x="16" y="0" flags="0x1004"/>
    </TTGlyph>
    <TTGlyph name="acircumflex" xMin="42" yMin="-12" xMax="509" yMax="672">
      <component glyphName="a" x="0" y="0" flags="0x1004"/>
      <component glyphName="circumflex" x="16" y="0" flags="0x1004"/>
    </TTGlyph>
    <TTGlyph name="acute" xMin="292" yMin="508" xMax="474" yMax="670">
      <contour>
        <pt x="292" y="520" on="1"/>
        <pt x="398" y="643" on="1"/>
        <pt x="421" y="670" on="0"/>
        <pt x="446" y="670" on="1"/>
        <pt x="461" y="670" on="0"/>
        <pt x="474" y="653" on="0"/>
        <pt x="474" y="641" on="1"/>
        <pt x="474" y="616" on="0"/>
        <pt x="442" y="595" on="1"/>
        <pt x="304" y="508" on="1"/>
      </contour>
    </TTGlyph>
    <TTGlyph name="adieresis" xMin="42" yMin="-12" xMax="509" yMax="648">
      <component glyphName="a" x="0" y="0" flags="0x1004"/>
      <component glyphName="dieresis" x="16" y="0" flags="0x1004"/>
    </TTGlyph>
    <TTGlyph name="ae" xMin="42" yMin="-12" xMax="656" yMax="456">
      <contour>
        <pt x="114" y="85" on="1"/>
        <pt x="114" y="56" on="0"/>
        <pt x="136" y="12" on="0"/>
        <pt x="160" y="12" on="1"/>
        <pt x="196" y="12" on="0"/>
        <pt x="266" y="86" on="0"/>
        <pt x="294" y="150" on="1"/>
        <pt x="314" y="196" on="0"/>
        <pt x="344" y="305" on="0"/>
        <pt x="344" y="340" on="1"/>
        <pt x="344" y="384" on="0"/>
        <pt x="308" y="432" on="0"/>
        <pt x="277" y="432" on="1"/>
        <pt x="260" y="432" on="0"/>
        <pt x="228" y="410" on="0"/>
        <pt x="200" y="375" on="0"/>
        <pt x="179" y="340" on="0"/>
        <pt x="170" y="320" on="1"/>
        <pt x="144" y="264" on="0"/>
        <pt x="114" y="138" on="0"/>
      </contour>
      <contour>
        <pt x="408" y="240" on="1"/>
        <pt x="495" y="246" on="0"/>
        <pt x="537" y="265" on="1"/>
        <pt x="568" y="279" on="0"/>
        <pt x="608" y="340" on="0"/>
        <pt x="608" y="379" on="1"/>
        <pt x="608" y="432" on="0"/>
        <pt x="564" y="432" on="1"/>
        <pt x="543" y="432" on="0"/>
        <pt x="502" y="408" on="0"/>
        <pt x="469" y="368" on="0"/>
        <pt x="446" y="330" on="0"/>
        <pt x="436" y="310" on="1"/>
        <pt x="430" y="299" on="0"/>
        <pt x="410" y="246" on="0"/>
      </contour>
      <contour>
        <pt x="42" y="125" on="1"/>
        <pt x="42" y="186" on="0"/>
        <pt x="78" y="300" on="0"/>
        <pt x="101" y="335" on="1"/>
        <pt x="136" y="390" on="0"/>
        <pt x="229" y="456" on="0"/>
        <pt x="277" y="456" on="1"/>
        <pt x="308" y="456" on="0"/>
        <pt x="358" y="413" on="0"/>
        <pt x="369" y="368" on="1"/>
        <pt x="373" y="366" on="1"/>
        <pt x="395" y="444" on="1"/>
        <pt x="461" y="444" on="1"/>
        <pt x="439" y="366" on="1"/>
        <pt x="446" y="368" on="1"/>
        <pt x="508" y="456" on="0"/>
        <pt x="575" y="456" on="1"/>
        <pt x="611" y="456" on="0"/>
        <pt x="656" y="412" on="0"/>
        <pt x="656" y="375" on="1"/>
        <pt x="656" y="333" on="0"/>
        <pt x="602" y="269" on="0"/>
        <pt x="556" y="248" on="1"/>
        <pt x="498" y="222" on="0"/>
        <pt x="402" y="215" on="1"/>
        <pt x="379" y="148" on="0"/>
        <pt x="379" y="101" on="1"/>
        <pt x="379" y="12" on="0"/>
        <pt x="457" y="12" on="1"/>
        <pt x="482" y="12" on="0"/>
        <pt x="531" y="38" on="0"/>
        <pt x="566" y="74" on="0"/>
        <pt x="595" y="117" on="0"/>
        <pt x="610" y="146" on="0"/>
        <pt x="613" y="155" on="1"/>
        <pt x="634" y="148" on="1"/>
        <pt x="611" y="82" on="0"/>
        <pt x="506" y="-12" on="0"/>
        <pt x="452" y="-12" on="1"/>
        <pt x="416" y="-12" on="0"/>
        <pt x="362" y="8" on="0"/>
        <pt x="333" y="35" on="0"/>
        <pt x="313" y="75" on="0"/>
        <pt x="307" y="101" on="0"/>
        <pt x="305" y="117" on="1"/>
        <pt x="302" y="119" on="1"/>
        <pt x="294" y="100" on="0"/>
        <pt x="266" y="60" on="0"/>
        <pt x="228" y="16" on="0"/>
        <pt x="178" y="-12" on="0"/>
        <pt x="154" y="-12" on="1"/>
        <pt x="101" y="-12" on="0"/>
        <pt x="42" y="63" on="0"/>
      </contour>
    </TTGlyph>
    <TTGlyph name="agrave" xMin="42" yMin="-12" xMax="509" yMax="676">
      <component glyphName="a" x="0" y="0" flags="0x1004"/>
      <component glyphName="grave" x="16" y="0" flags="0x1004"/>
    </TTGlyph>
    <TTGlyph name="ampersand" xMin="56" yMin="-18" xMax="756" yMax="702">
      <contour>
        <pt x="56" y="129" on="1"/>
        <pt x="56" y="175" on="0"/>
        <pt x="94" y="261" on="0"/>
        <pt x="150" y="322" on="0"/>
        <pt x="220" y="374" on="0"/>
        <pt x="278" y="403" on="0"/>
        <pt x="301" y="411" on="1"/>
        <pt x="359" y="432" on="1"/>
        <pt x="364" y="480" on="0"/>
        <pt x="394" y="574" on="0"/>
        <pt x="442" y="653" on="0"/>
        <pt x="514" y="702" on="0"/>
        <pt x="554" y="702" on="1"/>
        <pt x="578" y="702" on="0"/>
        <pt x="612" y="683" on="0"/>
        <pt x="628" y="654" on="0"/>
        <pt x="635" y="626" on="0"/>
        <pt x="635" y="612" on="1"/>
        <pt x="635" y="584" on="0"/>
        <pt x="613" y="535" on="0"/>
        <pt x="582" y="503" on="0"/>
        <pt x="538" y="475" on="0"/>
        <pt x="506" y="461" on="0"/>
        <pt x="488" y="455" on="1"/>
        <pt x="429" y="434" on="1"/>
        <pt x="429" y="169" on="1"/>
        <pt x="604" y="401" on="1"/>
        <pt x="648" y="458" on="0"/>
        <pt x="692" y="458" on="1"/>
        <pt x="724" y="458" on="0"/>
        <pt x="756" y="419" on="0"/>
        <pt x="756" y="390" on="1"/>
        <pt x="756" y="372" on="0"/>
        <pt x="734" y="337" on="0"/>
        <pt x="710" y="337" on="1"/>
        <pt x="698" y="337" on="0"/>
        <pt x="678" y="350" on="0"/>
        <pt x="678" y="367" on="1"/>
        <pt x="678" y="383" on="0"/>
        <pt x="691" y="396" on="1"/>
        <pt x="702" y="407" on="0"/>
        <pt x="702" y="416" on="1"/>
        <pt x="702" y="422" on="0"/>
        <pt x="691" y="432" on="0"/>
        <pt x="682" y="432" on="1"/>
        <pt x="672" y="432" on="0"/>
        <pt x="654" y="420" on="0"/>
        <pt x="640" y="404" on="0"/>
        <pt x="626" y="388" on="1"/>
        <pt x="430" y="140" on="1"/>
        <pt x="430" y="124" on="0"/>
        <pt x="430" y="107" on="0"/>
        <pt x="432" y="76" on="0"/>
        <pt x="436" y="58" on="0"/>
        <pt x="444" y="34" on="0"/>
        <pt x="456" y="21" on="0"/>
        <pt x="473" y="12" on="0"/>
        <pt x="484" y="12" on="1"/>
        <pt x="506" y="12" on="0"/>
        <pt x="564" y="58" on="0"/>
        <pt x="616" y="125" on="0"/>
        <pt x="654" y="182" on="0"/>
        <pt x="664" y="202" on="1"/>
        <pt x="682" y="192" on="1"/>
        <pt x="674" y="176" on="0"/>
        <pt x="656" y="143" on="0"/>
        <pt x="624" y="90" on="0"/>
        <pt x="588" y="47" on="0"/>
        <pt x="546" y="6" on="0"/>
        <pt x="498" y="-18" on="0"/>
        <pt x="474" y="-18" on="1"/>
        <pt x="448" y="-18" on="0"/>
        <pt x="408" y="-3" on="0"/>
        <pt x="385" y="25" on="0"/>
        <pt x="372" y="53" on="0"/>
        <pt x="367" y="72" on="1"/>
        <pt x="350" y="54" on="0"/>
        <pt x="323" y="30" on="0"/>
        <pt x="280" y="-2" on="0"/>
        <pt x="230" y="-18" on="0"/>
        <pt x="203" y="-18" on="1"/>
        <pt x="139" y="-18" on="0"/>
        <pt x="56" y="58" on="0"/>
      </contour>
      <contour>
        <pt x="429" y="456" on="1"/>
        <pt x="478" y="474" on="1"/>
        <pt x="498" y="480" on="0"/>
        <pt x="534" y="499" on="0"/>
        <pt x="575" y="531" on="0"/>
        <pt x="599" y="580" on="0"/>
        <pt x="599" y="611" on="1"/>
        <pt x="599" y="624" on="0"/>
        <pt x="593" y="648" on="0"/>
        <pt x="570" y="672" on="0"/>
        <pt x="552" y="672" on="1"/>
        <pt x="538" y="672" on="0"/>
        <pt x="506" y="659" on="0"/>
        <pt x="472" y="627" on="0"/>
        <pt x="446" y="580" on="0"/>
        <pt x="429" y="503" on="0"/>
      </contour>
      <contour>
        <pt x="152" y="124" on="1"/>
        <pt x="152" y="69" on="0"/>
        <pt x="190" y="12" on="0"/>
        <pt x="225" y="12" on="1"/>
        <pt x="246" y="12" on="0"/>
        <pt x="286" y="26" on="0"/>
        <pt x="322" y="54" on="0"/>
        <pt x="345" y="77" on="0"/>
        <pt x="361" y="95" on="1"/>
        <pt x="357" y="107" on="0"/>
        <pt x="357" y="131" on="1"/>
        <pt x="357" y="406" on="1"/>
        <pt x="321" y="393" on="1"/>
        <pt x="241" y="364" on="0"/>
        <pt x="152" y="219" on="0"/>
      </contour>
    </TTGlyph>
    <TTGlyph name="aring" xMin="42" yMin="-12" xMax="509" yMax="694">
      <component glyphName="a" x="0" y="0" flags="0x1004"/>
      <component glyphName="ring" x="16" y="0" flags="0x1004"/>
    </TTGlyph>
    <TTGlyph name="asciicircum" xMin="88" yMin="336" xMax="544" yMax="700">
      <contour>
        <pt x="88" y="336" on="1"/>
        <pt x="316" y="700" on="1"/>
        <pt x="544" y="336" on="1"/>
        <pt x="496" y="336" on="1"/>
        <pt x="316" y="622" on="1"/>
        <pt x="136" y="336" on="1"/>
      </contour>
    </TTGlyph>
    <TTGlyph name="asciitilde" xMin="60" yMin="163" xMax="624" yMax="359">
      <contour>
        <pt x="60" y="253" on="1"/>
        <pt x="60" y="292" on="0"/>
        <pt x="120" y="352" on="0"/>
        <pt x="174" y="352" on="1"/>
        <pt x="204" y="352" on="0"/>
        <pt x="282" y="330" on="0"/>
        <pt x="336" y="308" on="0"/>
        <pt x="382" y="288" on="1"/>
        <pt x="424" y="269" on="0"/>
        <pt x="469" y="250" on="0"/>
        <pt x="530" y="232" on="0"/>
        <pt x="550" y="232" on="1"/>
        <pt x="566" y="232" on="0"/>
        <pt x="590" y="257" on="0"/>
        <pt x="590" y="278" on="1"/>
        <pt x="590" y="316" on="0"/>
        <pt x="548" y="338" on="1"/>
        <pt x="560" y="359" on="1"/>
        <pt x="591" y="345" on="0"/>
        <pt x="624" y="298" on="0"/>
        <pt x="624" y="269" on="1"/>
        <pt x="624" y="230" on="0"/>
        <pt x="564" y="170" on="0"/>
        <pt x="510" y="170" on="1"/>
        <pt x="480" y="170" on="0"/>
        <pt x="401" y="192" on="0"/>
        <pt x="350" y="213" on="0"/>
        <pt x="302" y="234" on="1"/>
        <pt x="210" y="274" on="0"/>
        <pt x="178" y="283" on="1"/>
        <pt x="152" y="290" on="0"/>
        <pt x="134" y="290" on="1"/>
        <pt x="118" y="290" on="0"/>
        <pt x="94" y="265" on="0"/>
        <pt x="94" y="244" on="1"/>
        <pt x="94" y="206" on="0"/>
        <pt x="136" y="184" on="1"/>
        <pt x="124" y="163" on="1"/>
        <pt x="93" y="177" on="0"/>
        <pt x="60" y="224" on="0"/>
      </contour>
    </TTGlyph>
    <TTGlyph name="asterisk" xMin="162" yMin="290" xMax="528" yMax="700">
      <contour>
        <pt x="162" y="411" on="1"/>
        <pt x="162" y="449" on="0"/>
        <pt x="229" y="458" on="1"/>
        <pt x="264" y="462" on="0"/>
        <pt x="303" y="484" on="1"/>
        <pt x="308" y="488" on="1"/>
        <pt x="313" y="492" on="0"/>
        <pt x="313" y="498" on="0"/>
        <pt x="308" y="502" on="1"/>
        <pt x="303" y="506" on="1"/>
        <pt x="264" y="528" on="0"/>
        <pt x="229" y="532" on="1"/>
        <pt x="162" y="541" on="0"/>
        <pt x="162" y="579" on="1"/>
        <pt x="162" y="594" on="0"/>
        <pt x="172" y="604" on="1"/>
        <pt x="182" y="616" on="0"/>
        <pt x="199" y="616" on="1"/>
        <pt x="226" y="616" on="0"/>
        <pt x="255" y="577" on="1"/>
        <pt x="274" y="552" on="0"/>
        <pt x="311" y="528" on="1"/>
        <pt x="320" y="522" on="0"/>
        <pt x="325" y="522" on="1"/>
        <pt x="333" y="522" on="0"/>
        <pt x="333" y="537" on="1"/>
        <pt x="333" y="578" on="0"/>
        <pt x="319" y="614" on="1"/>
        <pt x="307" y="642" on="0"/>
        <pt x="307" y="657" on="1"/>
        <pt x="307" y="676" on="0"/>
        <pt x="317" y="688" on="1"/>
        <pt x="328" y="700" on="0"/>
        <pt x="362" y="700" on="0"/>
        <pt x="373" y="688" on="1"/>
        <pt x="383" y="676" on="0"/>
        <pt x="383" y="657" on="1"/>
        <pt x="383" y="642" on="0"/>
        <pt x="371" y="614" on="1"/>
        <pt x="357" y="578" on="0"/>
        <pt x="357" y="537" on="1"/>
        <pt x="357" y="522" on="0"/>
        <pt x="365" y="522" on="1"/>
        <pt x="370" y="522" on="0"/>
        <pt x="379" y="528" on="1"/>
        <pt x="416" y="552" on="0"/>
        <pt x="435" y="577" on="1"/>
        <pt x="464" y="616" on="0"/>
        <pt x="491" y="616" on="1"/>
        <pt x="508" y="616" on="0"/>
        <pt x="518" y="604" on="1"/>
        <pt x="528" y="594" on="0"/>
        <pt x="528" y="579" on="1"/>
        <pt x="528" y="541" on="0"/>
        <pt x="461" y="532" on="1"/>
        <pt x="426" y="528" on="0"/>
        <pt x="387" y="506" on="1"/>
        <pt x="382" y="502" on="1"/>
        <pt x="377" y="498" on="0"/>
        <pt x="377" y="492" on="0"/>
        <pt x="382" y="488" on="1"/>
        <pt x="387" y="484" on="1"/>
        <pt x="426" y="462" on="0"/>
        <pt x="461" y="458" on="1"/>
        <pt x="528" y="449" on="0"/>
        <pt x="528" y="411" on="1"/>
        <pt x="528" y="396" on="0"/>
        <pt x="518" y="386" on="1"/>
        <pt x="508" y="374" on="0"/>
        <pt x="491" y="374" on="1"/>
        <pt x="464" y="374" on="0"/>
        <pt x="435" y="413" on="1"/>
        <pt x="416" y="438" on="0"/>
        <pt x="379" y="462" on="1"/>
        <pt x="370" y="468" on="0"/>
        <pt x="365" y="468" on="1"/>
        <pt x="357" y="468" on="0"/>
        <pt x="357" y="453" on="1"/>
        <pt x="357" y="412" on="0"/>
        <pt x="371" y="376" on="1"/>
        <pt x="383" y="348" on="0"/>
        <pt x="383" y="333" on="1"/>
        <pt x="383" y="314" on="0"/>
        <pt x="373" y="302" on="1"/>
        <pt x="362" y="290" on="0"/>
        <pt x="328" y="290" on="0"/>
        <pt x="317" y="302" on="1"/>
        <pt x="307" y="314" on="0"/>
        <pt x="307" y="333" on="1"/>
        <pt x="307" y="348" on="0"/>
        <pt x="319" y="376" on="1"/>
        <pt x="333" y="412" on="0"/>
        <pt x="333" y="453" on="1"/>
        <pt x="333" y="468" on="0"/>
        <pt x="325" y="468" on="1"/>
        <pt x="320" y="468" on="0"/>
        <pt x="311" y="462" on="1"/>
        <pt x="274" y="438" on="0"/>
        <pt x="255" y="413" on="1"/>
        <pt x="226" y="374" on="0"/>
        <pt x="199" y="374" on="1"/>
        <pt x="182" y="374" on="0"/>
        <pt x="172" y="386" on="1"/>
        <pt x="162" y="396" on="0"/>
      </contour>
    </TTGlyph>
    <TTGlyph name="at" xMin="96" yMin="-18" xMax="814" yMax="730">
      <contour>
        <pt x="96" y="355" on="1"/>
        <pt x="96" y="456" on="0"/>
        <pt x="194" y="629" on="0"/>
        <pt x="366" y="730" on="0"/>
        <pt x="468" y="730" on="1"/>
        <pt x="550" y="730" on="0"/>
        <pt x="683" y="674" on="0"/>
        <pt x="768" y="578" on="0"/>
        <pt x="814" y="450" on="0"/>
        <pt x="814" y="377" on="1"/>
        <pt x="814" y="346" on="0"/>
        <pt x="798" y="280" on="0"/>
        <pt x="760" y="215" on="0"/>
        <pt x="709" y="163" on="0"/>
        <pt x="632" y="131" on="0"/>
        <pt x="586" y="131" on="1"/>
        <pt x="548" y="131" on="0"/>
        <pt x="496" y="172" on="0"/>
        <pt x="491" y="206" on="1"/>
        <pt x="486" y="207" on="1"/>
        <pt x="479" y="196" on="0"/>
        <pt x="458" y="174" on="0"/>
        <pt x="428" y="148" on="0"/>
        <pt x="387" y="131" on="0"/>
        <pt x="366" y="131" on="1"/>
        <pt x="321" y="131" on="0"/>
        <pt x="254" y="196" on="0"/>
        <pt x="254" y="255" on="1"/>
        <pt x="254" y="318" on="0"/>
        <pt x="288" y="442" on="0"/>
        <pt x="321" y="481" on="1"/>
        <pt x="364" y="532" on="0"/>
        <pt x="454" y="579" on="0"/>
        <pt x="497" y="579" on="1"/>
        <pt x="523" y="579" on="0"/>
        <pt x="564" y="541" on="0"/>
        <pt x="568" y="524" on="1"/>
        <pt x="573" y="524" on="1"/>
        <pt x="584" y="567" on="1"/>
        <pt x="656" y="567" on="1"/>
        <pt x="572" y="257" on="1"/>
        <pt x="561" y="208" on="0"/>
        <pt x="582" y="155" on="0"/>
        <pt x="602" y="155" on="1"/>
        <pt x="630" y="155" on="0"/>
        <pt x="676" y="172" on="0"/>
        <pt x="709" y="200" on="0"/>
        <pt x="735" y="240" on="0"/>
        <pt x="751" y="284" on="0"/>
        <pt x="762" y="332" on="0"/>
        <pt x="766" y="376" on="0"/>
        <pt x="766" y="397" on="1"/>
        <pt x="766" y="540" on="0"/>
        <pt x="599" y="702" on="0"/>
        <pt x="459" y="702" on="1"/>
        <pt x="373" y="702" on="0"/>
        <pt x="228" y="606" on="0"/>
        <pt x="144" y="438" on="0"/>
        <pt x="144" y="335" on="1"/>
        <pt x="144" y="184" on="0"/>
        <pt x="316" y="10" on="0"/>
        <pt x="468" y="10" on="1"/>
        <pt x="556" y="10" on="0"/>
        <pt x="644" y="68" on="1"/>
        <pt x="660" y="45" on="1"/>
        <pt x="573" y="-18" on="0"/>
        <pt x="458" y="-18" on="1"/>
        <pt x="346" y="-18" on="0"/>
        <pt x="182" y="76" on="0"/>
        <pt x="96" y="244" on="0"/>
      </contour>
      <contour>
        <pt x="322" y="223" on="1"/>
        <pt x="322" y="192" on="0"/>
        <pt x="352" y="155" on="0"/>
        <pt x="370" y="155" on="1"/>
        <pt x="420" y="155" on="0"/>
        <pt x="502" y="262" on="0"/>
        <pt x="522" y="335" on="1"/>
        <pt x="545" y="420" on="1"/>
        <pt x="551" y="440" on="0"/>
        <pt x="548" y="486" on="0"/>
        <pt x="537" y="528" on="0"/>
        <pt x="512" y="555" on="0"/>
        <pt x="497" y="555" on="1"/>
        <pt x="457" y="555" on="0"/>
        <pt x="394" y="500" on="0"/>
        <pt x="364" y="435" on="1"/>
        <pt x="346" y="396" on="0"/>
        <pt x="322" y="277" on="0"/>
      </contour>
    </TTGlyph>
    <TTGlyph name="atilde" xMin="42" yMin="-12" xMax="509" yMax="650">
      <component glyphName="a" x="0" y="0" flags="0x1004"/>
      <component glyphName="tilde" x="16" y="0" flags="0x1004"/>
    </TTGlyph>
    <TTGlyph name="b" xMin="68" yMin="-12" xMax="446" yMax="712">
      <contour>
        <pt x="138" y="106" on="1"/>
        <pt x="138" y="94" on="0"/>
        <pt x="139" y="76" on="0"/>
        <pt x="146" y="46" on="0"/>
        <pt x="158" y="27" on="0"/>
        <pt x="184" y="12" on="0"/>
        <pt x="220" y="12" on="0"/>
        <pt x="254" y="32" on="0"/>
        <pt x="283" y="68" on="0"/>
        <pt x="302" y="98" on="0"/>
        <pt x="313" y="120" on="1"/>
        <pt x="374" y="235" on="0"/>
        <pt x="374" y="349" on="1"/>
        <pt x="374" y="378" on="0"/>
        <pt x="351" y="432" on="0"/>
        <pt x="330" y="432" on="1"/>
        <pt x="296" y="432" on="0"/>
        <pt x="224" y="365" on="0"/>
        <pt x="194" y="306" on="1"/>
        <pt x="138" y="192" on="0"/>
      </contour>
      <contour>
        <pt x="68" y="136" on="1"/>
        <pt x="68" y="164" on="0"/>
        <pt x="74" y="185" on="1"/>
        <pt x="206" y="666" on="1"/>
        <pt x="210" y="678" on="0"/>
        <pt x="202" y="688" on="0"/>
        <pt x="191" y="688" on="1"/>
        <pt x="102" y="688" on="1"/>
        <pt x="109" y="712" on="1"/>
        <pt x="286" y="712" on="1"/>
        <pt x="188" y="353" on="1"/>
        <pt x="193" y="349" on="1"/>
        <pt x="220" y="396" on="0"/>
        <pt x="296" y="456" on="0"/>
        <pt x="338" y="456" on="1"/>
        <pt x="365" y="456" on="0"/>
        <pt x="408" y="430" on="0"/>
        <pt x="433" y="388" on="0"/>
        <pt x="446" y="337" on="0"/>
        <pt x="446" y="310" on="1"/>
        <pt x="446" y="248" on="0"/>
        <pt x="377" y="96" on="0"/>
        <pt x="335" y="52" on="1"/>
        <pt x="304" y="20" on="0"/>
        <pt x="234" y="-12" on="0"/>
        <pt x="188" y="-12" on="1"/>
        <pt x="139" y="-12" on="0"/>
        <pt x="68" y="68" on="0"/>
      </contour>
    </TTGlyph>
    <TTGlyph name="backslash" xMin="72" yMin="-198" xMax="410" yMax="730">
      <contour>
        <pt x="72" y="730" on="1"/>
        <pt x="112" y="730" on="1"/>
        <pt x="410" y="-198" on="1"/>
        <pt x="370" y="-198" on="1"/>
      </contour>
    </TTGlyph>
    <TTGlyph name="bar" xMin="144" yMin="-198" xMax="188" yMax="730">
      <contour>
        <pt x="144" y="-198" on="1"/>
        <pt x="144" y="730" on="1"/>
        <pt x="188" y="730" on="1"/>
        <pt x="188" y="-198" on="1"/>
      </contour>
    </TTGlyph>
    <TTGlyph name="braceleft" xMin="106" yMin="-196" xMax="472" yMax="730">
      <contour>
        <pt x="106" y="-71" on="1"/>
        <pt x="106" y="-39" on="0"/>
        <pt x="138" y="42" on="0"/>
        <pt x="176" y="106" on="0"/>
        <pt x="208" y="180" on="0"/>
        <pt x="208" y="207" on="1"/>
        <pt x="208" y="237" on="0"/>
        <pt x="164" y="258" on="0"/>
        <pt x="120" y="258" on="1"/>
        <pt x="125" y="276" on="1"/>
        <pt x="146" y="276" on="0"/>
        <pt x="174" y="279" on="0"/>
        <pt x="209" y="288" on="0"/>
        <pt x="231" y="308" on="0"/>
        <pt x="250" y="340" on="0"/>
        <pt x="260" y="391" on="0"/>
        <pt x="260" y="425" on="1"/>
        <pt x="260" y="473" on="1"/>
        <pt x="260" y="529" on="0"/>
        <pt x="288" y="615" on="0"/>
        <pt x="344" y="675" on="0"/>
        <pt x="416" y="715" on="0"/>
        <pt x="466" y="730" on="1"/>
        <pt x="472" y="706" on="1"/>
        <pt x="444" y="698" on="0"/>
        <pt x="410" y="684" on="0"/>
        <pt x="376" y="664" on="0"/>
        <pt x="358" y="642" on="0"/>
        <pt x="342" y="609" on="0"/>
        <pt x="335" y="566" on="0"/>
        <pt x="334" y="536" on="1"/>
        <pt x="334" y="475" on="1"/>
        <pt x="328" y="308" on="0"/>
        <pt x="194" y="268" on="1"/>
        <pt x="193" y="266" on="1"/>
        <pt x="256" y="244" on="0"/>
        <pt x="256" y="174" on="1"/>
        <pt x="256" y="140" on="0"/>
        <pt x="224" y="56" on="0"/>
        <pt x="186" y="-6" on="0"/>
        <pt x="154" y="-76" on="0"/>
        <pt x="154" y="-99" on="1"/>
        <pt x="154" y="-114" on="0"/>
        <pt x="166" y="-136" on="0"/>
        <pt x="192" y="-154" on="0"/>
        <pt x="215" y="-165" on="0"/>
        <pt x="234" y="-172" on="1"/>
        <pt x="215" y="-196" on="1"/>
        <pt x="106" y="-157" on="0"/>
      </contour>
    </TTGlyph>
    <TTGlyph name="braceright" xMin="-8" yMin="-196" xMax="358" yMax="730">
      <contour>
        <pt x="-8" y="-172" on="1"/>
        <pt x="20" y="-164" on="0"/>
        <pt x="54" y="-150" on="0"/>
        <pt x="88" y="-130" on="0"/>
        <pt x="106" y="-108" on="0"/>
        <pt x="122" y="-75" on="0"/>
        <pt x="129" y="-32" on="0"/>
        <pt x="130" y="-2" on="1"/>
        <pt x="130" y="59" on="1"/>
        <pt x="136" y="226" on="0"/>
        <pt x="270" y="266" on="1"/>
        <pt x="271" y="268" on="1"/>
        <pt x="208" y="290" on="0"/>
        <pt x="208" y="360" on="1"/>
        <pt x="208" y="394" on="0"/>
        <pt x="240" y="478" on="0"/>
        <pt x="278" y="540" on="0"/>
        <pt x="310" y="610" on="0"/>
        <pt x="310" y="633" on="1"/>
        <pt x="310" y="648" on="0"/>
        <pt x="298" y="670" on="0"/>
        <pt x="272" y="688" on="0"/>
        <pt x="249" y="699" on="0"/>
        <pt x="230" y="706" on="1"/>
        <pt x="249" y="730" on="1"/>
        <pt x="358" y="691" on="0"/>
        <pt x="358" y="605" on="1"/>
        <pt x="358" y="573" on="0"/>
        <pt x="326" y="492" on="0"/>
        <pt x="288" y="428" on="0"/>
        <pt x="256" y="354" on="0"/>
        <pt x="256" y="327" on="1"/>
        <pt x="256" y="297" on="0"/>
        <pt x="300" y="276" on="0"/>
        <pt x="344" y="276" on="1"/>
        <pt x="339" y="258" on="1"/>
        <pt x="318" y="258" on="0"/>
        <pt x="290" y="255" on="0"/>
        <pt x="255" y="246" on="0"/>
        <pt x="233" y="226" on="0"/>
        <pt x="214" y="194" on="0"/>
        <pt x="204" y="143" on="0"/>
        <pt x="204" y="109" on="1"/>
        <pt x="204" y="61" on="1"/>
        <pt x="204" y="5" on="0"/>
        <pt x="176" y="-81" on="0"/>
        <pt x="120" y="-141" on="0"/>
        <pt x="48" y="-181" on="0"/>
        <pt x="-2" y="-196" on="1"/>
      </contour>
    </TTGlyph>
    <TTGlyph name="bracketleft" xMin="24" yMin="-198" xMax="482" yMax="712">
      <contour>
        <pt x="24" y="-198" on="1"/>
        <pt x="272" y="712" on="1"/>
        <pt x="482" y="712" on="1"/>
        <pt x="474" y="682" on="1"/>
        <pt x="354" y="682" on="1"/>
        <pt x="342" y="680" on="0"/>
        <pt x="332" y="674" on="0"/>
        <pt x="328" y="662" on="1"/>
        <pt x="111" y="-136" on="1"/>
        <pt x="108" y="-148" on="0"/>
        <pt x="115" y="-166" on="0"/>
        <pt x="125" y="-168" on="1"/>
        <pt x="242" y="-168" on="1"/>
        <pt x="234" y="-198" on="1"/>
      </contour>
    </TTGlyph>
    <TTGlyph name="bracketright" xMin="-90" yMin="-198" xMax="368" yMax="712">
      <contour>
        <pt x="-90" y="-198" on="1"/>
        <pt x="-82" y="-168" on="1"/>
        <pt x="38" y="-168" on="1"/>
        <pt x="50" y="-166" on="0"/>
        <pt x="60" y="-160" on="0"/>
        <pt x="64" y="-148" on="1"/>
        <pt x="281" y="650" on="1"/>
        <pt x="284" y="662" on="0"/>
        <pt x="277" y="680" on="0"/>
        <pt x="267" y="682" on="1"/>
        <pt x="150" y="682" on="1"/>
        <pt x="158" y="712" on="1"/>
        <pt x="368" y="712" on="1"/>
        <pt x="120" y="-198" on="1"/>
      </contour>
    </TTGlyph>
    <TTGlyph name="brokenbar" xMin="144" yMin="-168" xMax="188" yMax="730">
      <contour>
        <pt x="144" y="370" on="1"/>
        <pt x="144" y="730" on="1"/>
        <pt x="188" y="730" on="1"/>
        <pt x="188" y="370" on="1"/>
      </contour>
      <contour>
        <pt x="144" y="-168" on="1"/>
        <pt x="144" y="192" on="1"/>
        <pt x="188" y="192" on="1"/>
        <pt x="188" y="-168" on="1"/>
      </contour>
    </TTGlyph>
    <TTGlyph name="bullet" xMin="176" yMin="240" xMax="404" yMax="468">
      <contour>
        <pt x="176" y="306" on="0"/>
        <pt x="176" y="402" on="0"/>
        <pt x="242" y="468" on="0"/>
        <pt x="338" y="468" on="0"/>
        <pt x="404" y="402" on="0"/>
        <pt x="404" y="306" on="0"/>
        <pt x="338" y="240" on="0"/>
        <pt x="242" y="240" on="0"/>
      </contour>
    </TTGlyph>
    <TTGlyph name="c" xMin="52" yMin="-12" xMax="386" yMax="456">
      <contour>
        <pt x="52" y="158" on="1"/>
        <pt x="52" y="218" on="0"/>
        <pt x="96" y="336" on="0"/>
        <pt x="140" y="381" on="1"/>
        <pt x="175" y="418" on="0"/>
        <pt x="246" y="456" on="0"/>
        <pt x="290" y="456" on="1"/>
        <pt x="308" y="456" on="0"/>
        <pt x="340" y="446" on="0"/>
        <pt x="368" y="424" on="0"/>
        <pt x="386" y="383" on="0"/>
        <pt x="386" y="356" on="1"/>
        <pt x="386" y="326" on="0"/>
        <pt x="352" y="286" on="0"/>
        <pt x="329" y="286" on="1"/>
        <pt x="310" y="286" on="0"/>
        <pt x="290" y="310" on="0"/>
        <pt x="290" y="324" on="1"/>
        <pt x="290" y="352" on="0"/>
        <pt x="322" y="376" on="1"/>
        <pt x="333" y="385" on="0"/>
        <pt x="333" y="402" on="1"/>
        <pt x="333" y="412" on="0"/>
        <pt x="311" y="432" on="0"/>
        <pt x="286" y="432" on="1"/>
        <pt x="208" y="432" on="0"/>
        <pt x="150" y="258" on="1"/>
        <pt x="139" y="226" on="0"/>
        <pt x="124" y="126" on="0"/>
        <pt x="124" y="98" on="1"/>
        <pt x="124" y="54" on="0"/>
        <pt x="164" y="12" on="0"/>
        <pt x="218" y="12" on="0"/>
        <pt x="270" y="38" on="0"/>
        <pt x="302" y="73" on="0"/>
        <pt x="331" y="118" on="0"/>
        <pt x="343" y="144" on="0"/>
        <pt x="347" y="155" on="1"/>
        <pt x="368" y="148" on="1"/>
        <pt x="344" y="80" on="0"/>
        <pt x="246" y="-12" on="0"/>
        <pt x="126" y="-12" on="0"/>
        <pt x="52" y="87" on="0"/>
      </contour>
    </TTGlyph>
    <TTGlyph name="ccedilla" xMin="41" yMin="-212" xMax="386" yMax="456">
      <contour>
        <pt x="41" y="-148" on="1"/>
        <pt x="41" y="-130" on="0"/>
        <pt x="65" y="-97" on="0"/>
        <pt x="83" y="-97" on="1"/>
        <pt x="97" y="-97" on="0"/>
        <pt x="111" y="-114" on="0"/>
        <pt x="111" y="-128" on="1"/>
        <pt x="111" y="-138" on="0"/>
        <pt x="96" y="-154" on="0"/>
        <pt x="87" y="-154" on="1"/>
        <pt x="84" y="-154" on="0"/>
        <pt x="78" y="-160" on="0"/>
        <pt x="78" y="-165" on="1"/>
        <pt x="78" y="-190" on="0"/>
        <pt x="117" y="-190" on="1"/>
        <pt x="144" y="-190" on="0"/>
        <pt x="172" y="-157" on="0"/>
        <pt x="172" y="-115" on="0"/>
        <pt x="158" y="-83" on="1"/>
        <pt x="148" y="-62" on="0"/>
        <pt x="148" y="-47" on="1"/>
        <pt x="148" y="-30" on="0"/>
        <pt x="157" y="-13" on="1"/>
        <pt x="159" y="-9" on="1"/>
        <pt x="110" y="2" on="0"/>
        <pt x="52" y="96" on="0"/>
        <pt x="52" y="158" on="1"/>
        <pt x="52" y="218" on="0"/>
        <pt x="96" y="336" on="0"/>
        <pt x="140" y="381" on="1"/>
        <pt x="175" y="418" on="0"/>
        <pt x="246" y="456" on="0"/>
        <pt x="290" y="456" on="1"/>
        <pt x="308" y="456" on="0"/>
        <pt x="340" y="446" on="0"/>
        <pt x="368" y="424" on="0"/>
        <pt x="386" y="383" on="0"/>
        <pt x="386" y="356" on="1"/>
        <pt x="386" y="326" on="0"/>
        <pt x="352" y="286" on="0"/>
        <pt x="329" y="286" on="1"/>
        <pt x="310" y="286" on="0"/>
        <pt x="290" y="310" on="0"/>
        <pt x="290" y="324" on="1"/>
        <pt x="290" y="352" on="0"/>
        <pt x="322" y="376" on="1"/>
        <pt x="333" y="385" on="0"/>
        <pt x="333" y="402" on="1"/>
        <pt x="333" y="412" on="0"/>
        <pt x="311" y="432" on="0"/>
        <pt x="286" y="432" on="1"/>
        <pt x="208" y="432" on="0"/>
        <pt x="150" y="258" on="1"/>
        <pt x="139" y="226" on="0"/>
        <pt x="124" y="126" on="0"/>
        <pt x="124" y="98" on="1"/>
        <pt x="124" y="54" on="0"/>
        <pt x="164" y="12" on="0"/>
        <pt x="218" y="12" on="0"/>
        <pt x="270" y="38" on="0"/>
        <pt x="302" y="73" on="0"/>
        <pt x="331" y="118" on="0"/>
        <pt x="343" y="144" on="0"/>
        <pt x="347" y="155" on="1"/>
        <pt x="368" y="148" on="1"/>
        <pt x="344" y="80" on="0"/>
        <pt x="246" y="-12" on="0"/>
        <pt x="186" y="-12" on="1"/>
        <pt x="184" y="-12" on="1"/>
        <pt x="178" y="-21" on="1"/>
        <pt x="174" y="-28" on="0"/>
        <pt x="174" y="-36" on="1"/>
        <pt x="174" y="-52" on="0"/>
        <pt x="194" y="-72" on="1"/>
        <pt x="222" y="-100" on="0"/>
        <pt x="222" y="-126" on="1"/>
        <pt x="222" y="-162" on="0"/>
        <pt x="160" y="-212" on="0"/>
        <pt x="115" y="-212" on="1"/>
        <pt x="86" y="-212" on="0"/>
        <pt x="41" y="-178" on="0"/>
      </contour>
    </TTGlyph>
    <TTGlyph name="cedilla" xMin="56" yMin="-212" xMax="237" yMax="12">
      <contour>
        <pt x="56" y="-148" on="1"/>
        <pt x="56" y="-130" on="0"/>
        <pt x="80" y="-97" on="0"/>
        <pt x="98" y="-97" on="1"/>
        <pt x="112" y="-97" on="0"/>
        <pt x="126" y="-114" on="0"/>
        <pt x="126" y="-128" on="1"/>
        <pt x="126" y="-138" on="0"/>
        <pt x="111" y="-154" on="0"/>
        <pt x="102" y="-154" on="1"/>
        <pt x="98" y="-154" on="0"/>
        <pt x="93" y="-160" on="0"/>
        <pt x="93" y="-165" on="1"/>
        <pt x="93" y="-190" on="0"/>
        <pt x="132" y="-190" on="1"/>
        <pt x="160" y="-190" on="0"/>
        <pt x="187" y="-157" on="0"/>
        <pt x="187" y="-115" on="0"/>
        <pt x="173" y="-83" on="1"/>
        <pt x="163" y="-62" on="0"/>
        <pt x="163" y="-47" on="1"/>
        <pt x="163" y="-30" on="0"/>
        <pt x="172" y="-13" on="1"/>
        <pt x="187" y="12" on="1"/>
        <pt x="206" y="0" on="1"/>
        <pt x="193" y="-21" on="1"/>
        <pt x="189" y="-28" on="0"/>
        <pt x="189" y="-36" on="1"/>
        <pt x="189" y="-52" on="0"/>
        <pt x="209" y="-72" on="1"/>
        <pt x="237" y="-100" on="0"/>
        <pt x="237" y="-126" on="1"/>
        <pt x="237" y="-162" on="0"/>
        <pt x="176" y="-212" on="0"/>
        <pt x="130" y="-212" on="1"/>
        <pt x="102" y="-212" on="0"/>
        <pt x="56" y="-178" on="0"/>
      </contour>
    </TTGlyph>
    <TTGlyph name="cent" xMin="136" yMin="-120" xMax="490" yMax="576">
      <contour>
        <pt x="136" y="158" on="1"/>
        <pt x="136" y="288" on="0"/>
        <pt x="224" y="381" on="1"/>
        <pt x="258" y="417" on="0"/>
        <pt x="324" y="454" on="0"/>
        <pt x="365" y="456" on="1"/>
        <pt x="398" y="576" on="1"/>
        <pt x="422" y="576" on="1"/>
        <pt x="390" y="456" on="1"/>
        <pt x="427" y="456" on="0"/>
        <pt x="490" y="402" on="0"/>
        <pt x="490" y="356" on="1"/>
        <pt x="490" y="326" on="0"/>
        <pt x="456" y="286" on="0"/>
        <pt x="433" y="286" on="1"/>
        <pt x="414" y="286" on="0"/>
        <pt x="394" y="307" on="0"/>
        <pt x="394" y="321" on="1"/>
        <pt x="394" y="346" on="0"/>
        <pt x="426" y="370" on="1"/>
        <pt x="437" y="379" on="0"/>
        <pt x="437" y="393" on="1"/>
        <pt x="437" y="410" on="0"/>
        <pt x="409" y="432" on="0"/>
        <pt x="383" y="432" on="1"/>
        <pt x="268" y="12" on="1"/>
        <pt x="275" y="12" on="1"/>
        <pt x="324" y="12" on="0"/>
        <pt x="404" y="76" on="0"/>
        <pt x="429" y="126" on="1"/>
        <pt x="450" y="119" on="1"/>
        <pt x="439" y="96" on="0"/>
        <pt x="408" y="54" on="0"/>
        <pt x="364" y="12" on="0"/>
        <pt x="304" y="-12" on="0"/>
        <pt x="270" y="-12" on="1"/>
        <pt x="262" y="-12" on="1"/>
        <pt x="232" y="-120" on="1"/>
        <pt x="208" y="-120" on="1"/>
        <pt x="239" y="-8" on="1"/>
        <pt x="192" y="4" on="0"/>
        <pt x="136" y="97" on="0"/>
      </contour>
      <contour>
        <pt x="208" y="98" on="1"/>
        <pt x="208" y="36" on="0"/>
        <pt x="246" y="18" on="1"/>
        <pt x="358" y="432" on="1"/>
        <pt x="347" y="432" on="0"/>
        <pt x="314" y="411" on="0"/>
        <pt x="298" y="392" on="1"/>
        <pt x="262" y="348" on="0"/>
        <pt x="234" y="258" on="1"/>
        <pt x="208" y="174" on="0"/>
      </contour>
    </TTGlyph>
    <TTGlyph name="circumflex" xMin="178" yMin="508" xMax="440" yMax="672">
      <contour>
        <pt x="178" y="521" on="1"/>
        <pt x="267" y="568" on="0"/>
        <pt x="330" y="672" on="1"/>
        <pt x="370" y="672" on="1"/>
        <pt x="379" y="568" on="0"/>
        <pt x="440" y="521" on="1"/>
        <pt x="428" y="508" on="1"/>
        <pt x="368" y="544" on="0"/>
        <pt x="331" y="600" on="1"/>
        <pt x="260" y="543" on="0"/>
        <pt x="184" y="508" on="1"/>
      </contour>
    </TTGlyph>
    <TTGlyph name="colon" xMin="60" yMin="-12" xMax="276" yMax="456">
      <component glyphName="period" x="0" y="0" flags="0x1004"/>
      <component glyphName="period" x="92" y="344" flags="0x1004"/>
    </TTGlyph>
    <TTGlyph name="comma" xMin="22" yMin="-168" xMax="186" yMax="140">
      <contour>
        <pt x="22" y="-152" on="1"/>
        <pt x="44" y="-141" on="0"/>
        <pt x="82" y="-114" on="0"/>
        <pt x="122" y="-77" on="0"/>
        <pt x="145" y="-30" on="0"/>
        <pt x="145" y="-5" on="1"/>
        <pt x="145" y="10" on="0"/>
        <pt x="136" y="18" on="1"/>
        <pt x="128" y="25" on="0"/>
        <pt x="86" y="25" on="0"/>
        <pt x="60" y="56" on="0"/>
        <pt x="60" y="77" on="1"/>
        <pt x="60" y="106" on="0"/>
        <pt x="94" y="140" on="0"/>
        <pt x="121" y="140" on="1"/>
        <pt x="152" y="140" on="0"/>
        <pt x="186" y="88" on="0"/>
        <pt x="186" y="59" on="1"/>
        <pt x="186" y="18" on="0"/>
        <pt x="162" y="-54" on="0"/>
        <pt x="127" y="-102" on="0"/>
        <pt x="81" y="-142" on="0"/>
        <pt x="46" y="-162" on="0"/>
        <pt x="30" y="-168" on="1"/>
      </contour>
    </TTGlyph>
    <TTGlyph name="copyright" xMin="72" yMin="-18" xMax="796" yMax="730">
      <contour>
        <pt x="100" y="426" on="0"/>
        <pt x="100" y="286" on="0"/>
        <pt x="152" y="159" on="0"/>
        <pt x="240" y="66" on="0"/>
        <pt x="365" y="10" on="0"/>
        <pt x="503" y="10" on="0"/>
        <pt x="628" y="66" on="0"/>
        <pt x="716" y="159" on="0"/>
        <pt x="768" y="286" on="0"/>
        <pt x="768" y="426" on="0"/>
        <pt x="716" y="553" on="0"/>
        <pt x="628" y="646" on="0"/>
        <pt x="503" y="702" on="0"/>
        <pt x="365" y="702" on="0"/>
        <pt x="240" y="646" on="0"/>
        <pt x="152" y="553" on="0"/>
      </contour>
      <contour>
        <pt x="72" y="280" on="0"/>
        <pt x="72" y="432" on="0"/>
        <pt x="128" y="570" on="0"/>
        <pt x="224" y="670" on="0"/>
        <pt x="358" y="730" on="0"/>
        <pt x="510" y="730" on="0"/>
        <pt x="644" y="670" on="0"/>
        <pt x="740" y="570" on="0"/>
        <pt x="796" y="432" on="0"/>
        <pt x="796" y="280" on="0"/>
        <pt x="740" y="142" on="0"/>
        <pt x="644" y="42" on="0"/>
        <pt x="510" y="-18" on="0"/>
        <pt x="358" y="-18" on="0"/>
        <pt x="224" y="42" on="0"/>
        <pt x="128" y="142" on="0"/>
      </contour>
      <contour>
        <pt x="244" y="338" on="1"/>
        <pt x="244" y="450" on="0"/>
        <pt x="353" y="590" on="0"/>
        <pt x="448" y="590" on="1"/>
        <pt x="488" y="590" on="0"/>
        <pt x="530" y="557" on="1"/>
        <pt x="540" y="550" on="0"/>
        <pt x="550" y="550" on="1"/>
        <pt x="558" y="550" on="0"/>
        <pt x="572" y="572" on="0"/>
        <pt x="572" y="584" on="1"/>
        <pt x="590" y="584" on="1"/>
        <pt x="590" y="420" on="1"/>
        <pt x="572" y="420" on="1"/>
        <pt x="566" y="478" on="0"/>
        <pt x="486" y="566" on="0"/>
        <pt x="448" y="566" on="1"/>
        <pt x="332" y="566" on="0"/>
        <pt x="332" y="338" on="1"/>
        <pt x="332" y="312" on="0"/>
        <pt x="338" y="260" on="0"/>
        <pt x="355" y="204" on="0"/>
        <pt x="380" y="162" on="0"/>
        <pt x="420" y="134" on="0"/>
        <pt x="446" y="134" on="1"/>
        <pt x="478" y="134" on="0"/>
        <pt x="527" y="160" on="0"/>
        <pt x="555" y="204" on="0"/>
        <pt x="570" y="251" on="0"/>
        <pt x="574" y="278" on="1"/>
        <pt x="598" y="278" on="1"/>
        <pt x="596" y="248" on="0"/>
        <pt x="577" y="192" on="0"/>
        <pt x="542" y="141" on="0"/>
        <pt x="483" y="110" on="0"/>
        <pt x="446" y="110" on="1"/>
        <pt x="398" y="110" on="0"/>
        <pt x="318" y="150" on="0"/>
        <pt x="270" y="216" on="0"/>
        <pt x="244" y="296" on="0"/>
      </contour>
    </TTGlyph>
    <TTGlyph name="currency" xMin="80" yMin="105" xMax="556" yMax="581">
      <contour>
        <pt x="138" y="420" on="0"/>
        <pt x="138" y="264" on="0"/>
        <pt x="240" y="162" on="0"/>
        <pt x="396" y="162" on="0"/>
        <pt x="498" y="264" on="0"/>
        <pt x="498" y="420" on="0"/>
        <pt x="396" y="524" on="0"/>
        <pt x="240" y="524" on="0"/>
      </contour>
      <contour>
        <pt x="80" y="136" on="1"/>
        <pt x="147" y="203" on="1"/>
        <pt x="98" y="263" on="0"/>
        <pt x="98" y="342" on="1"/>
        <pt x="98" y="420" on="0"/>
        <pt x="148" y="482" on="1"/>
        <pt x="80" y="550" on="1"/>
        <pt x="111" y="581" on="1"/>
        <pt x="178" y="514" on="1"/>
        <pt x="240" y="564" on="0"/>
        <pt x="396" y="564" on="0"/>
        <pt x="458" y="514" on="1"/>
        <pt x="525" y="581" on="1"/>
        <pt x="556" y="550" on="1"/>
        <pt x="488" y="482" on="1"/>
        <pt x="538" y="420" on="0"/>
        <pt x="538" y="342" on="1"/>
        <pt x="538" y="263" on="0"/>
        <pt x="489" y="203" on="1"/>
        <pt x="556" y="136" on="1"/>
        <pt x="525" y="105" on="1"/>
        <pt x="458" y="172" on="1"/>
        <pt x="396" y="122" on="0"/>
        <pt x="240" y="122" on="0"/>
        <pt x="178" y="172" on="1"/>
        <pt x="111" y="105" on="1"/>
      </contour>
    </TTGlyph>
    <TTGlyph name="d" xMin="42" yMin="-12" xMax="534" yMax="712">
      <contour>
        <pt x="114" y="85" on="1"/>
        <pt x="114" y="56" on="0"/>
        <pt x="136" y="12" on="0"/>
        <pt x="160" y="12" on="1"/>
        <pt x="196" y="12" on="0"/>
        <pt x="266" y="86" on="0"/>
        <pt x="294" y="150" on="1"/>
        <pt x="314" y="196" on="0"/>
        <pt x="344" y="305" on="0"/>
        <pt x="344" y="340" on="1"/>
        <pt x="344" y="384" on="0"/>
        <pt x="308" y="432" on="0"/>
        <pt x="277" y="432" on="1"/>
        <pt x="260" y="432" on="0"/>
        <pt x="228" y="410" on="0"/>
        <pt x="200" y="375" on="0"/>
        <pt x="179" y="340" on="0"/>
        <pt x="170" y="320" on="1"/>
        <pt x="144" y="264" on="0"/>
        <pt x="114" y="138" on="0"/>
      </contour>
      <contour>
        <pt x="42" y="125" on="1"/>
        <pt x="42" y="185" on="0"/>
        <pt x="87" y="302" on="0"/>
        <pt x="113" y="343" on="1"/>
        <pt x="146" y="396" on="0"/>
        <pt x="238" y="456" on="0"/>
        <pt x="283" y="456" on="1"/>
        <pt x="313" y="456" on="0"/>
        <pt x="361" y="410" on="0"/>
        <pt x="369" y="368" on="1"/>
        <pt x="373" y="366" on="1"/>
        <pt x="454" y="666" on="1"/>
        <pt x="458" y="688" on="0"/>
        <pt x="438" y="688" on="1"/>
        <pt x="350" y="688" on="1"/>
        <pt x="357" y="712" on="1"/>
        <pt x="534" y="712" on="1"/>
        <pt x="376" y="129" on="1"/>
        <pt x="362" y="73" on="0"/>
        <pt x="362" y="49" on="1"/>
        <pt x="362" y="22" on="0"/>
        <pt x="380" y="22" on="1"/>
        <pt x="408" y="22" on="0"/>
        <pt x="466" y="112" on="0"/>
        <pt x="489" y="182" on="1"/>
        <pt x="509" y="176" on="1"/>
        <pt x="442" y="-12" on="0"/>
        <pt x="362" y="-12" on="1"/>
        <pt x="304" y="-12" on="0"/>
        <pt x="304" y="90" on="1"/>
        <pt x="305" y="117" on="1"/>
        <pt x="302" y="119" on="1"/>
        <pt x="294" y="100" on="0"/>
        <pt x="266" y="60" on="0"/>
        <pt x="228" y="16" on="0"/>
        <pt x="178" y="-12" on="0"/>
        <pt x="154" y="-12" on="1"/>
        <pt x="101" y="-12" on="0"/>
        <pt x="42" y="63" on="0"/>
      </contour>
    </TTGlyph>
    <TTGlyph name="degree" xMin="194" yMin="340" xMax="488" yMax="700">
      <contour>
        <pt x="266" y="462" on="1"/>
        <pt x="266" y="422" on="0"/>
        <pt x="300" y="380" on="0"/>
        <pt x="322" y="380" on="1"/>
        <pt x="380" y="380" on="0"/>
        <pt x="460" y="508" on="0"/>
        <pt x="460" y="594" on="1"/>
        <pt x="460" y="634" on="0"/>
        <pt x="426" y="676" on="0"/>
        <pt x="404" y="676" on="1"/>
        <pt x="346" y="676" on="0"/>
        <pt x="266" y="548" on="0"/>
      </contour>
      <contour>
        <pt x="194" y="462" on="1"/>
        <pt x="194" y="491" on="0"/>
        <pt x="212" y="556" on="0"/>
        <pt x="246" y="618" on="0"/>
        <pt x="292" y="669" on="0"/>
        <pt x="356" y="700" on="0"/>
        <pt x="390" y="700" on="1"/>
        <pt x="434" y="700" on="0"/>
        <pt x="488" y="632" on="0"/>
        <pt x="488" y="578" on="1"/>
        <pt x="488" y="549" on="0"/>
        <pt x="470" y="484" on="0"/>
        <pt x="436" y="422" on="0"/>
        <pt x="390" y="371" on="0"/>
        <pt x="326" y="340" on="0"/>
        <pt x="292" y="340" on="1"/>
        <pt x="248" y="340" on="0"/>
        <pt x="194" y="408" on="0"/>
      </contour>
    </TTGlyph>
    <TTGlyph name="dieresis" xMin="186" yMin="544" xMax="478" yMax="648">
      <contour>
        <pt x="374" y="574" on="0"/>
        <pt x="374" y="618" on="0"/>
        <pt x="404" y="648" on="0"/>
        <pt x="448" y="648" on="0"/>
        <pt x="478" y="618" on="0"/>
        <pt x="478" y="574" on="0"/>
        <pt x="448" y="544" on="0"/>
        <pt x="404" y="544" on="0"/>
      </contour>
      <contour>
        <pt x="186" y="574" on="0"/>
        <pt x="186" y="618" on="0"/>
        <pt x="216" y="648" on="0"/>
        <pt x="260" y="648" on="0"/>
        <pt x="290" y="618" on="0"/>
        <pt x="290" y="574" on="0"/>
        <pt x="260" y="544" on="0"/>
        <pt x="216" y="544" on="0"/>
      </contour>
    </TTGlyph>
    <TTGlyph name="divide" xMin="56" yMin="-56" xMax="900" yMax="580">
      <contour>
        <pt x="416" y="491" on="0"/>
        <pt x="416" y="545" on="0"/>
        <pt x="451" y="580" on="0"/>
        <pt x="505" y="580" on="0"/>
        <pt x="540" y="545" on="0"/>
        <pt x="540" y="491" on="0"/>
        <pt x="505" y="456" on="0"/>
        <pt x="451" y="456" on="0"/>
      </contour>
      <contour>
        <pt x="416" y="-21" on="0"/>
        <pt x="416" y="33" on="0"/>
        <pt x="451" y="68" on="0"/>
        <pt x="505" y="68" on="0"/>
        <pt x="540" y="33" on="0"/>
        <pt x="540" y="-21" on="0"/>
        <pt x="505" y="-56" on="0"/>
        <pt x="451" y="-56" on="0"/>
      </contour>
      <contour>
        <pt x="56" y="244" on="1"/>
        <pt x="56" y="284" on="1"/>
        <pt x="900" y="284" on="1"/>
        <pt x="900" y="244" on="1"/>
      </contour>
    </TTGlyph>
    <TTGlyph name="dollar" xMin="50" yMin="-80" xMax="594" yMax="762">
      <contour>
        <pt x="50" y="142" on="1"/>
        <pt x="50" y="184" on="0"/>
        <pt x="96" y="248" on="0"/>
        <pt x="130" y="248" on="1"/>
        <pt x="153" y="248" on="0"/>
        <pt x="184" y="224" on="0"/>
        <pt x="184" y="201" on="1"/>
        <pt x="184" y="182" on="0"/>
        <pt x="156" y="153" on="0"/>
        <pt x="129" y="153" on="1"/>
        <pt x="112" y="153" on="0"/>
        <pt x="104" y="138" on="1"/>
        <pt x="98" y="129" on="0"/>
        <pt x="98" y="112" on="1"/>
        <pt x="98" y="84" on="0"/>
        <pt x="138" y="37" on="0"/>
        <pt x="173" y="25" on="1"/>
        <pt x="260" y="348" on="1"/>
        <pt x="233" y="363" on="1"/>
        <pt x="210" y="376" on="0"/>
        <pt x="182" y="402" on="0"/>
        <pt x="160" y="456" on="0"/>
        <pt x="160" y="493" on="1"/>
        <pt x="160" y="534" on="0"/>
        <pt x="194" y="606" on="0"/>
        <pt x="252" y="654" on="0"/>
        <pt x="318" y="686" on="0"/>
        <pt x="354" y="694" on="1"/>
        <pt x="372" y="762" on="1"/>
        <pt x="404" y="762" on="1"/>
        <pt x="387" y="699" on="1"/>
        <pt x="394" y="700" on="0"/>
        <pt x="406" y="700" on="1"/>
        <pt x="426" y="700" on="0"/>
        <pt x="442" y="697" on="1"/>
        <pt x="460" y="762" on="1"/>
        <pt x="492" y="762" on="1"/>
        <pt x="473" y="691" on="1"/>
        <pt x="528" y="674" on="0"/>
        <pt x="594" y="595" on="0"/>
        <pt x="594" y="552" on="1"/>
        <pt x="594" y="500" on="0"/>
        <pt x="546" y="441" on="0"/>
        <pt x="506" y="441" on="1"/>
        <pt x="489" y="441" on="0"/>
        <pt x="458" y="461" on="0"/>
        <pt x="458" y="482" on="1"/>
        <pt x="458" y="502" on="0"/>
        <pt x="484" y="530" on="0"/>
        <pt x="504" y="534" on="1"/>
        <pt x="528" y="539" on="0"/>
        <pt x="538" y="546" on="1"/>
        <pt x="550" y="554" on="0"/>
        <pt x="550" y="576" on="1"/>
        <pt x="550" y="599" on="0"/>
        <pt x="504" y="647" on="0"/>
        <pt x="464" y="659" on="1"/>
        <pt x="386" y="370" on="1"/>
        <pt x="419" y="351" on="1"/>
        <pt x="436" y="342" on="0"/>
        <pt x="458" y="326" on="0"/>
        <pt x="484" y="300" on="0"/>
        <pt x="500" y="270" on="0"/>
        <pt x="510" y="226" on="0"/>
        <pt x="510" y="198" on="1"/>
        <pt x="510" y="124" on="0"/>
        <pt x="383" y="4" on="0"/>
        <pt x="283" y="-12" on="1"/>
        <pt x="264" y="-80" on="1"/>
        <pt x="232" y="-80" on="1"/>
        <pt x="250" y="-15" on="1"/>
        <pt x="241" y="-16" on="0"/>
        <pt x="224" y="-16" on="1"/>
        <pt x="212" y="-16" on="0"/>
        <pt x="194" y="-14" on="1"/>
        <pt x="176" y="-80" on="1"/>
        <pt x="144" y="-80" on="1"/>
        <pt x="164" y="-7" on="1"/>
        <pt x="110" y="10" on="0"/>
        <pt x="50" y="95" on="0"/>
      </contour>
      <contour>
        <pt x="216" y="529" on="1"/>
        <pt x="216" y="468" on="0"/>
        <pt x="256" y="445" on="1"/>
        <pt x="282" y="430" on="1"/>
        <pt x="344" y="660" on="1"/>
        <pt x="320" y="654" on="0"/>
        <pt x="277" y="632" on="0"/>
        <pt x="238" y="601" on="0"/>
        <pt x="216" y="556" on="0"/>
      </contour>
      <contour>
        <pt x="203" y="18" on="1"/>
        <pt x="221" y="16" on="0"/>
        <pt x="232" y="16" on="1"/>
        <pt x="250" y="16" on="0"/>
        <pt x="258" y="17" on="1"/>
        <pt x="336" y="304" on="1"/>
        <pt x="288" y="332" on="1"/>
      </contour>
      <contour>
        <pt x="310" y="414" on="1"/>
        <pt x="358" y="386" on="1"/>
        <pt x="434" y="666" on="1"/>
        <pt x="412" y="668" on="0"/>
        <pt x="400" y="668" on="1"/>
        <pt x="386" y="668" on="0"/>
        <pt x="378" y="667" on="1"/>
      </contour>
      <contour>
        <pt x="291" y="21" on="1"/>
        <pt x="360" y="34" on="0"/>
        <pt x="438" y="116" on="0"/>
        <pt x="438" y="174" on="1"/>
        <pt x="438" y="199" on="0"/>
        <pt x="429" y="236" on="0"/>
        <pt x="411" y="258" on="0"/>
        <pt x="398" y="270" on="0"/>
        <pt x="386" y="276" on="1"/>
        <pt x="364" y="289" on="1"/>
      </contour>
    </TTGlyph>
    <TTGlyph name="dotaccent" xMin="280" yMin="544" xMax="384" yMax="648">
      <contour>
        <pt x="280" y="574" on="0"/>
        <pt x="280" y="618" on="0"/>
        <pt x="310" y="648" on="0"/>
        <pt x="354" y="648" on="0"/>
        <pt x="384" y="618" on="0"/>
        <pt x="384" y="574" on="0"/>
        <pt x="354" y="544" on="0"/>
        <pt x="310" y="544" on="0"/>
      </contour>
    </TTGlyph>
    <TTGlyph name="dotlessi" xMin="36" yMin="-12" xMax="310" yMax="456">
      <contour>
        <pt x="36" y="268" on="1"/>
        <pt x="64" y="348" on="0"/>
        <pt x="141" y="456" on="0"/>
        <pt x="186" y="456" on="1"/>
        <pt x="212" y="456" on="0"/>
        <pt x="249" y="406" on="0"/>
        <pt x="249" y="360" on="1"/>
        <pt x="249" y="338" on="0"/>
        <pt x="236" y="276" on="0"/>
        <pt x="229" y="258" on="1"/>
        <pt x="165" y="109" on="1"/>
        <pt x="149" y="74" on="0"/>
        <pt x="149" y="50" on="1"/>
        <pt x="149" y="36" on="0"/>
        <pt x="160" y="18" on="0"/>
        <pt x="172" y="18" on="1"/>
        <pt x="190" y="18" on="0"/>
        <pt x="228" y="53" on="0"/>
        <pt x="260" y="110" on="0"/>
        <pt x="281" y="157" on="0"/>
        <pt x="290" y="182" on="1"/>
        <pt x="310" y="176" on="1"/>
        <pt x="292" y="125" on="0"/>
        <pt x="251" y="45" on="0"/>
        <pt x="192" y="-12" on="0"/>
        <pt x="161" y="-12" on="1"/>
        <pt x="134" y="-12" on="0"/>
        <pt x="97" y="36" on="0"/>
        <pt x="97" y="84" on="1"/>
        <pt x="97" y="106" on="0"/>
        <pt x="109" y="166" on="0"/>
        <pt x="117" y="186" on="1"/>
        <pt x="181" y="335" on="1"/>
        <pt x="197" y="370" on="0"/>
        <pt x="197" y="394" on="1"/>
        <pt x="197" y="426" on="0"/>
        <pt x="175" y="426" on="1"/>
        <pt x="156" y="426" on="0"/>
        <pt x="118" y="391" on="0"/>
        <pt x="86" y="334" on="0"/>
        <pt x="65" y="286" on="0"/>
        <pt x="56" y="262" on="1"/>
      </contour>
    </TTGlyph>
    <TTGlyph name="e" xMin="52" yMin="-12" xMax="381" yMax="456">
      <contour>
        <pt x="52" y="158" on="1"/>
        <pt x="52" y="218" on="0"/>
        <pt x="96" y="336" on="0"/>
        <pt x="140" y="381" on="1"/>
        <pt x="212" y="456" on="0"/>
        <pt x="290" y="456" on="1"/>
        <pt x="330" y="456" on="0"/>
        <pt x="381" y="416" on="0"/>
        <pt x="381" y="372" on="1"/>
        <pt x="381" y="294" on="0"/>
        <pt x="280" y="247" on="1"/>
        <pt x="228" y="222" on="0"/>
        <pt x="138" y="215" on="1"/>
        <pt x="124" y="159" on="0"/>
        <pt x="124" y="98" on="1"/>
        <pt x="124" y="54" on="0"/>
        <pt x="164" y="12" on="0"/>
        <pt x="218" y="12" on="0"/>
        <pt x="270" y="38" on="0"/>
        <pt x="302" y="73" on="0"/>
        <pt x="331" y="118" on="0"/>
        <pt x="343" y="144" on="0"/>
        <pt x="347" y="155" on="1"/>
        <pt x="368" y="148" on="1"/>
        <pt x="344" y="80" on="0"/>
        <pt x="246" y="-12" on="0"/>
        <pt x="126" y="-12" on="0"/>
        <pt x="52" y="87" on="0"/>
      </contour>
      <contour>
        <pt x="144" y="240" on="1"/>
        <pt x="217" y="245" on="0"/>
        <pt x="261" y="265" on="1"/>
        <pt x="292" y="279" on="0"/>
        <pt x="333" y="339" on="0"/>
        <pt x="333" y="378" on="1"/>
        <pt x="333" y="406" on="0"/>
        <pt x="310" y="432" on="0"/>
        <pt x="291" y="432" on="1"/>
        <pt x="250" y="432" on="0"/>
        <pt x="180" y="358" on="0"/>
        <pt x="164" y="313" on="1"/>
        <pt x="152" y="279" on="0"/>
      </contour>
    </TTGlyph>
    <TTGlyph name="eacute" xMin="52" yMin="-12" xMax="480" yMax="670">
      <component glyphName="e" x="0" y="0" flags="0x1004"/>
      <component glyphName="acute" x="6" y="0" flags="0x1004"/>
    </TTGlyph>
    <TTGlyph name="ecircumflex" xMin="52" yMin="-12" xMax="446" yMax="672">
      <component glyphName="e" x="0" y="0" flags="0x1004"/>
      <component glyphName="circumflex" x="6" y="0" flags="0x1004"/>
    </TTGlyph>
    <TTGlyph name="edieresis" xMin="52" yMin="-12" xMax="484" yMax="648">
      <component glyphName="e" x="0" y="0" flags="0x1004"/>
      <component glyphName="dieresis" x="6" y="0" flags="0x1004"/>
    </TTGlyph>
    <TTGlyph name="egrave" xMin="52" yMin="-12" xMax="381" yMax="676">
      <component glyphName="e" x="0" y="0" flags="0x1004"/>
      <component glyphName="grave" x="6" y="0" flags="0x1004"/>
    </TTGlyph>
    <TTGlyph name="eight" xMin="68" yMin="-16" xMax="578" yMax="700">
      <contour>
        <pt x="254" y="526" on="1"/>
        <pt x="254" y="496" on="0"/>
        <pt x="270" y="460" on="0"/>
        <pt x="290" y="443" on="1"/>
        <pt x="381" y="363" on="1"/>
        <pt x="444" y="372" on="0"/>
        <pt x="524" y="467" on="0"/>
        <pt x="524" y="522" on="1"/>
        <pt x="524" y="592" on="0"/>
        <pt x="454" y="668" on="0"/>
        <pt x="386" y="668" on="1"/>
        <pt x="371" y="668" on="0"/>
        <pt x="338" y="660" on="0"/>
        <pt x="302" y="640" on="0"/>
        <pt x="273" y="608" on="0"/>
        <pt x="254" y="558" on="0"/>
      </contour>
      <contour>
        <pt x="68" y="161" on="1"/>
        <pt x="68" y="212" on="0"/>
        <pt x="118" y="296" on="0"/>
        <pt x="154" y="318" on="1"/>
        <pt x="179" y="334" on="0"/>
        <pt x="218" y="348" on="0"/>
        <pt x="251" y="354" on="1"/>
        <pt x="224" y="372" on="0"/>
        <pt x="184" y="450" on="0"/>
        <pt x="184" y="497" on="1"/>
        <pt x="184" y="576" on="0"/>
        <pt x="235" y="635" on="1"/>
        <pt x="264" y="668" on="0"/>
        <pt x="351" y="700" on="0"/>
        <pt x="390" y="700" on="1"/>
        <pt x="476" y="700" on="0"/>
        <pt x="578" y="618" on="0"/>
        <pt x="578" y="544" on="1"/>
        <pt x="578" y="502" on="0"/>
        <pt x="544" y="421" on="0"/>
        <pt x="513" y="398" on="1"/>
        <pt x="490" y="380" on="0"/>
        <pt x="427" y="350" on="0"/>
        <pt x="404" y="347" on="1"/>
        <pt x="446" y="311" on="0"/>
        <pt x="486" y="238" on="0"/>
        <pt x="486" y="192" on="1"/>
        <pt x="486" y="100" on="0"/>
        <pt x="420" y="41" on="1"/>
        <pt x="356" y="-16" on="0"/>
        <pt x="248" y="-16" on="1"/>
        <pt x="217" y="-16" on="0"/>
        <pt x="155" y="6" on="0"/>
        <pt x="102" y="48" on="0"/>
        <pt x="68" y="118" on="0"/>
      </contour>
      <contour>
        <pt x="112" y="162" on="1"/>
        <pt x="112" y="93" on="0"/>
        <pt x="186" y="16" on="0"/>
        <pt x="260" y="16" on="1"/>
        <pt x="324" y="16" on="0"/>
        <pt x="414" y="90" on="0"/>
        <pt x="414" y="142" on="1"/>
        <pt x="414" y="215" on="0"/>
        <pt x="376" y="248" on="1"/>
        <pt x="271" y="336" on="1"/>
        <pt x="248" y="331" on="0"/>
        <pt x="221" y="323" on="0"/>
        <pt x="182" y="302" on="0"/>
        <pt x="166" y="287" on="1"/>
        <pt x="143" y="264" on="0"/>
        <pt x="112" y="199" on="0"/>
      </contour>
    </TTGlyph>
    <TTGlyph name="emdash" xMin="92" yMin="234" xMax="972" yMax="270">
      <contour>
        <pt x="92" y="234" on="1"/>
        <pt x="92" y="270" on="1"/>
        <pt x="972" y="270" on="1"/>
        <pt x="972" y="234" on="1"/>
      </contour>
    </TTGlyph>
    <TTGlyph name="endash" xMin="84" yMin="244" xMax="584" yMax="280">
      <contour>
        <pt x="84" y="244" on="1"/>
        <pt x="84" y="280" on="1"/>
        <pt x="584" y="280" on="1"/>
        <pt x="584" y="244" on="1"/>
      </contour>
    </TTGlyph>
    <TTGlyph name="equal" xMin="56" yMin="148" xMax="900" yMax="378">
      <contour>
        <pt x="56" y="338" on="1"/>
        <pt x="56" y="378" on="1"/>
        <pt x="900" y="378" on="1"/>
        <pt x="900" y="338" on="1"/>
      </contour>
      <contour>
        <pt x="56" y="148" on="1"/>
        <pt x="56" y="188" on="1"/>
        <pt x="900" y="188" on="1"/>
        <pt x="900" y="148" on="1"/>
      </contour>
    </TTGlyph>
    <TTGlyph name="eth" xMin="52" yMin="-12" xMax="536" yMax="702">
      <contour>
        <pt x="52" y="164" on="1"/>
        <pt x="52" y="216" on="0"/>
        <pt x="92" y="322" on="0"/>
        <pt x="156" y="404" on="0"/>
        <pt x="247" y="456" on="0"/>
        <pt x="294" y="456" on="1"/>
        <pt x="339" y="456" on="0"/>
        <pt x="371" y="424" on="1"/>
        <pt x="380" y="428" on="1"/>
        <pt x="380" y="480" on="0"/>
        <pt x="359" y="536" on="1"/>
        <pt x="353" y="552" on="0"/>
        <pt x="350" y="559" on="1"/>
        <pt x="226" y="513" on="1"/>
        <pt x="216" y="540" on="1"/>
        <pt x="337" y="584" on="1"/>
        <pt x="313" y="636" on="0"/>
        <pt x="265" y="702" on="1"/>
        <pt x="354" y="702" on="1"/>
        <pt x="386" y="656" on="0"/>
        <pt x="405" y="609" on="1"/>
        <pt x="526" y="653" on="1"/>
        <pt x="536" y="626" on="1"/>
        <pt x="416" y="582" on="1"/>
        <pt x="423" y="564" on="1"/>
        <pt x="436" y="530" on="0"/>
        <pt x="452" y="432" on="0"/>
        <pt x="452" y="397" on="1"/>
        <pt x="452" y="345" on="0"/>
        <pt x="424" y="222" on="0"/>
        <pt x="406" y="180" on="1"/>
        <pt x="369" y="94" on="0"/>
        <pt x="252" y="-12" on="0"/>
        <pt x="186" y="-12" on="1"/>
        <pt x="133" y="-12" on="0"/>
        <pt x="52" y="80" on="0"/>
      </contour>
      <contour>
        <pt x="124" y="104" on="1"/>
        <pt x="124" y="63" on="0"/>
        <pt x="158" y="12" on="0"/>
        <pt x="190" y="12" on="1"/>
        <pt x="212" y="12" on="0"/>
        <pt x="248" y="32" on="0"/>
        <pt x="277" y="70" on="0"/>
        <pt x="296" y="105" on="0"/>
        <pt x="307" y="130" on="1"/>
        <pt x="328" y="178" on="0"/>
        <pt x="354" y="293" on="0"/>
        <pt x="354" y="340" on="1"/>
        <pt x="354" y="381" on="0"/>
        <pt x="322" y="432" on="0"/>
        <pt x="290" y="432" on="1"/>
        <pt x="268" y="432" on="0"/>
        <pt x="231" y="412" on="0"/>
        <pt x="202" y="375" on="0"/>
        <pt x="182" y="338" on="0"/>
        <pt x="171" y="314" on="1"/>
        <pt x="150" y="266" on="0"/>
        <pt x="124" y="151" on="0"/>
      </contour>
    </TTGlyph>
    <TTGlyph name="exclam" xMin="56" yMin="-12" xMax="326" yMax="694">
      <contour>
        <pt x="56" y="23" on="0"/>
        <pt x="56" y="77" on="0"/>
        <pt x="91" y="112" on="0"/>
        <pt x="145" y="112" on="0"/>
        <pt x="180" y="77" on="0"/>
        <pt x="180" y="23" on="0"/>
        <pt x="145" y="-12" on="0"/>
        <pt x="91" y="-12" on="0"/>
      </contour>
      <contour>
        <pt x="130" y="158" on="1"/>
        <pt x="166" y="361" on="1"/>
        <pt x="178" y="430" on="0"/>
        <pt x="185" y="493" on="1"/>
        <pt x="194" y="568" on="0"/>
        <pt x="204" y="624" on="1"/>
        <pt x="218" y="694" on="0"/>
        <pt x="274" y="694" on="1"/>
        <pt x="300" y="694" on="0"/>
        <pt x="326" y="657" on="0"/>
        <pt x="326" y="624" on="1"/>
        <pt x="326" y="586" on="0"/>
        <pt x="268" y="454" on="1"/>
        <pt x="236" y="380" on="0"/>
        <pt x="224" y="346" on="1"/>
        <pt x="154" y="158" on="1"/>
      </contour>
    </TTGlyph>
    <TTGlyph name="exclamdown" xMin="-4" yMin="-248" xMax="266" yMax="458">
      <contour>
        <pt x="142" y="369" on="0"/>
        <pt x="142" y="423" on="0"/>
        <pt x="177" y="458" on="0"/>
        <pt x="231" y="458" on="0"/>
        <pt x="266" y="423" on="0"/>
        <pt x="266" y="369" on="0"/>
        <pt x="231" y="334" on="0"/>
        <pt x="177" y="334" on="0"/>
      </contour>
      <contour>
        <pt x="-4" y="-178" on="1"/>
        <pt x="-4" y="-140" on="0"/>
        <pt x="54" y="-8" on="1"/>
        <pt x="86" y="66" on="0"/>
        <pt x="98" y="100" on="1"/>
        <pt x="168" y="288" on="1"/>
        <pt x="192" y="288" on="1"/>
        <pt x="156" y="85" on="1"/>
        <pt x="144" y="16" on="0"/>
        <pt x="137" y="-47" on="1"/>
        <pt x="128" y="-122" on="0"/>
        <pt x="118" y="-178" on="1"/>
        <pt x="104" y="-248" on="0"/>
        <pt x="48" y="-248" on="1"/>
        <pt x="22" y="-248" on="0"/>
        <pt x="-4" y="-211" on="0"/>
      </contour>
    </TTGlyph>
    <TTGlyph name="f" xMin="-42" yMin="-238" xMax="464" yMax="720">
      <contour>
        <pt x="-42" y="-238" on="1"/>
        <pt x="138" y="416" on="1"/>
        <pt x="35" y="416" on="1"/>
        <pt x="41" y="444" on="1"/>
        <pt x="145" y="444" on="1"/>
        <pt x="157" y="483" on="1"/>
        <pt x="164" y="506" on="0"/>
        <pt x="194" y="576" on="0"/>
        <pt x="206" y="596" on="1"/>
        <pt x="280" y="720" on="0"/>
        <pt x="383" y="720" on="1"/>
        <pt x="418" y="720" on="0"/>
        <pt x="464" y="678" on="0"/>
        <pt x="464" y="648" on="1"/>
        <pt x="464" y="621" on="0"/>
        <pt x="434" y="586" on="0"/>
        <pt x="413" y="586" on="1"/>
        <pt x="398" y="586" on="0"/>
        <pt x="380" y="604" on="0"/>
        <pt x="380" y="619" on="1"/>
        <pt x="380" y="639" on="0"/>
        <pt x="396" y="651" on="1"/>
        <pt x="412" y="659" on="0"/>
        <pt x="412" y="673" on="1"/>
        <pt x="412" y="684" on="0"/>
        <pt x="397" y="696" on="0"/>
        <pt x="384" y="696" on="1"/>
        <pt x="366" y="696" on="0"/>
        <pt x="336" y="688" on="0"/>
        <pt x="302" y="664" on="0"/>
        <pt x="274" y="624" on="0"/>
        <pt x="244" y="554" on="0"/>
        <pt x="231" y="506" on="1"/>
        <pt x="213" y="444" on="1"/>
        <pt x="325" y="444" on="1"/>
        <pt x="319" y="416" on="1"/>
        <pt x="206" y="416" on="1"/>
        <pt x="26" y="-238" on="1"/>
      </contour>
    </TTGlyph>
    <TTGlyph name="five" xMin="62" yMin="-16" xMax="574" yMax="700">
      <contour>
        <pt x="62" y="114" on="1"/>
        <pt x="62" y="154" on="0"/>
        <pt x="108" y="207" on="0"/>
        <pt x="140" y="207" on="1"/>
        <pt x="168" y="207" on="0"/>
        <pt x="200" y="178" on="0"/>
        <pt x="200" y="150" on="1"/>
        <pt x="200" y="130" on="0"/>
        <pt x="172" y="102" on="0"/>
        <pt x="149" y="102" on="1"/>
        <pt x="148" y="102" on="0"/>
        <pt x="132" y="103" on="0"/>
        <pt x="121" y="102" on="0"/>
        <pt x="116" y="99" on="1"/>
        <pt x="106" y="92" on="0"/>
        <pt x="106" y="82" on="1"/>
        <pt x="106" y="53" on="0"/>
        <pt x="168" y="16" on="0"/>
        <pt x="216" y="16" on="1"/>
        <pt x="314" y="16" on="0"/>
        <pt x="370" y="126" on="1"/>
        <pt x="389" y="164" on="0"/>
        <pt x="414" y="270" on="0"/>
        <pt x="414" y="312" on="1"/>
        <pt x="414" y="418" on="0"/>
        <pt x="313" y="418" on="1"/>
        <pt x="280" y="418" on="0"/>
        <pt x="212" y="370" on="0"/>
        <pt x="195" y="317" on="1"/>
        <pt x="191" y="304" on="0"/>
        <pt x="176" y="286" on="0"/>
        <pt x="166" y="286" on="1"/>
        <pt x="137" y="286" on="0"/>
        <pt x="137" y="310" on="1"/>
        <pt x="137" y="335" on="0"/>
        <pt x="167" y="367" on="1"/>
        <pt x="194" y="396" on="0"/>
        <pt x="202" y="422" on="1"/>
        <pt x="252" y="585" on="1"/>
        <pt x="266" y="631" on="0"/>
        <pt x="266" y="658" on="1"/>
        <pt x="266" y="670" on="0"/>
        <pt x="263" y="683" on="1"/>
        <pt x="287" y="700" on="1"/>
        <pt x="352" y="626" on="0"/>
        <pt x="410" y="626" on="1"/>
        <pt x="503" y="626" on="0"/>
        <pt x="559" y="700" on="1"/>
        <pt x="574" y="685" on="1"/>
        <pt x="558" y="661" on="0"/>
        <pt x="534" y="630" on="0"/>
        <pt x="489" y="588" on="0"/>
        <pt x="428" y="566" on="0"/>
        <pt x="391" y="566" on="1"/>
        <pt x="337" y="566" on="0"/>
        <pt x="292" y="609" on="1"/>
        <pt x="236" y="423" on="1"/>
        <pt x="240" y="420" on="1"/>
        <pt x="254" y="432" on="0"/>
        <pt x="310" y="452" on="0"/>
        <pt x="330" y="452" on="1"/>
        <pt x="414" y="452" on="0"/>
        <pt x="508" y="364" on="0"/>
        <pt x="508" y="284" on="1"/>
        <pt x="508" y="232" on="0"/>
        <pt x="462" y="112" on="0"/>
        <pt x="419" y="68" on="1"/>
        <pt x="382" y="29" on="0"/>
        <pt x="278" y="-16" on="0"/>
        <pt x="222" y="-16" on="1"/>
        <pt x="150" y="-16" on="0"/>
        <pt x="62" y="56" on="0"/>
      </contour>
    </TTGlyph>
    <TTGlyph name="four" xMin="64" yMin="0" xMax="556" yMax="694">
      <contour>
        <pt x="64" y="208" on="1"/>
        <pt x="74" y="244" on="1"/>
        <pt x="290" y="438" on="1"/>
        <pt x="345" y="492" on="0"/>
        <pt x="451" y="648" on="0"/>
        <pt x="462" y="694" on="1"/>
        <pt x="544" y="694" on="1"/>
        <pt x="536" y="656" on="0"/>
        <pt x="472" y="570" on="0"/>
        <pt x="409" y="510" on="1"/>
        <pt x="116" y="244" on="1"/>
        <pt x="303" y="244" on="1"/>
        <pt x="347" y="396" on="1"/>
        <pt x="386" y="423" on="0"/>
        <pt x="446" y="498" on="0"/>
        <pt x="461" y="535" on="1"/>
        <pt x="478" y="535" on="1"/>
        <pt x="398" y="244" on="1"/>
        <pt x="556" y="244" on="1"/>
        <pt x="546" y="208" on="1"/>
        <pt x="389" y="208" on="1"/>
        <pt x="349" y="58" on="1"/>
        <pt x="346" y="44" on="0"/>
        <pt x="355" y="32" on="0"/>
        <pt x="370" y="32" on="1"/>
        <pt x="463" y="32" on="1"/>
        <pt x="454" y="0" on="1"/>
        <pt x="117" y="0" on="1"/>
        <pt x="126" y="32" on="1"/>
        <pt x="219" y="32" on="1"/>
        <pt x="247" y="32" on="0"/>
        <pt x="254" y="58" on="1"/>
        <pt x="294" y="208" on="1"/>
      </contour>
    </TTGlyph>
    <TTGlyph name="foursuperior" xMin="108" yMin="280" xMax="440" yMax="696">
      <contour>
        <pt x="108" y="392" on="1"/>
        <pt x="116" y="418" on="1"/>
        <pt x="246" y="539" on="1"/>
        <pt x="285" y="576" on="0"/>
        <pt x="338" y="660" on="0"/>
        <pt x="343" y="696" on="1"/>
        <pt x="415" y="696" on="1"/>
        <pt x="407" y="666" on="0"/>
        <pt x="378" y="620" on="0"/>
        <pt x="340" y="586" on="1"/>
        <pt x="152" y="418" on="1"/>
        <pt x="275" y="418" on="1"/>
        <pt x="304" y="518" on="1"/>
        <pt x="354" y="549" on="0"/>
        <pt x="377" y="601" on="1"/>
        <pt x="388" y="601" on="1"/>
        <pt x="340" y="418" on="1"/>
        <pt x="440" y="418" on="1"/>
        <pt x="432" y="392" on="1"/>
        <pt x="332" y="392" on="1"/>
        <pt x="313" y="320" on="1"/>
        <pt x="310" y="311" on="0"/>
        <pt x="314" y="304" on="0"/>
        <pt x="323" y="304" on="1"/>
        <pt x="382" y="304" on="1"/>
        <pt x="376" y="280" on="1"/>
        <pt x="164" y="280" on="1"/>
        <pt x="170" y="304" on="1"/>
        <pt x="227" y="304" on="1"/>
        <pt x="244" y="304" on="0"/>
        <pt x="248" y="320" on="1"/>
        <pt x="268" y="392" on="1"/>
      </contour>
    </TTGlyph>
    <TTGlyph name="g" xMin="-17" yMin="-248" xMax="461" yMax="456">
      <contour>
        <pt x="114" y="85" on="1"/>
        <pt x="114" y="56" on="0"/>
        <pt x="136" y="12" on="0"/>
        <pt x="160" y="12" on="1"/>
        <pt x="196" y="12" on="0"/>
        <pt x="266" y="86" on="0"/>
        <pt x="294" y="150" on="1"/>
        <pt x="314" y="196" on="0"/>
        <pt x="344" y="305" on="0"/>
        <pt x="344" y="340" on="1"/>
        <pt x="344" y="384" on="0"/>
        <pt x="308" y="432" on="0"/>
        <pt x="277" y="432" on="1"/>
        <pt x="260" y="432" on="0"/>
        <pt x="228" y="410" on="0"/>
        <pt x="200" y="375" on="0"/>
        <pt x="179" y="340" on="0"/>
        <pt x="170" y="320" on="1"/>
        <pt x="144" y="264" on="0"/>
        <pt x="114" y="138" on="0"/>
      </contour>
      <contour>
        <pt x="-17" y="-150" on="1"/>
        <pt x="-17" y="-122" on="0"/>
        <pt x="16" y="-90" on="0"/>
        <pt x="37" y="-90" on="1"/>
        <pt x="56" y="-90" on="0"/>
        <pt x="77" y="-114" on="0"/>
        <pt x="77" y="-130" on="1"/>
        <pt x="77" y="-155" on="0"/>
        <pt x="58" y="-170" on="1"/>
        <pt x="49" y="-178" on="0"/>
        <pt x="49" y="-192" on="1"/>
        <pt x="49" y="-224" on="0"/>
        <pt x="92" y="-224" on="1"/>
        <pt x="126" y="-224" on="0"/>
        <pt x="176" y="-200" on="0"/>
        <pt x="201" y="-167" on="1"/>
        <pt x="242" y="-112" on="0"/>
        <pt x="268" y="-16" on="1"/>
        <pt x="303" y="106" on="0"/>
        <pt x="305" y="117" on="1"/>
        <pt x="302" y="119" on="1"/>
        <pt x="294" y="100" on="0"/>
        <pt x="266" y="60" on="0"/>
        <pt x="228" y="16" on="0"/>
        <pt x="178" y="-12" on="0"/>
        <pt x="154" y="-12" on="1"/>
        <pt x="101" y="-12" on="0"/>
        <pt x="42" y="63" on="0"/>
        <pt x="42" y="125" on="1"/>
        <pt x="42" y="185" on="0"/>
        <pt x="87" y="302" on="0"/>
        <pt x="113" y="343" on="1"/>
        <pt x="146" y="396" on="0"/>
        <pt x="238" y="456" on="0"/>
        <pt x="283" y="456" on="1"/>
        <pt x="313" y="456" on="0"/>
        <pt x="361" y="410" on="0"/>
        <pt x="369" y="368" on="1"/>
        <pt x="373" y="366" on="1"/>
        <pt x="395" y="444" on="1"/>
        <pt x="461" y="444" on="1"/>
        <pt x="338" y="-7" on="1"/>
        <pt x="325" y="-54" on="0"/>
        <pt x="269" y="-159" on="0"/>
        <pt x="233" y="-192" on="1"/>
        <pt x="202" y="-221" on="0"/>
        <pt x="132" y="-248" on="0"/>
        <pt x="100" y="-248" on="1"/>
        <pt x="47" y="-248" on="0"/>
        <pt x="-17" y="-196" on="0"/>
      </contour>
    </TTGlyph>
    <TTGlyph name="germandbls" xMin="-34" yMin="-205" xMax="506" yMax="720">
      <contour>
        <pt x="-34" y="-205" on="1"/>
        <pt x="163" y="525" on="1"/>
        <pt x="177" y="576" on="0"/>
        <pt x="229" y="654" on="0"/>
        <pt x="291" y="698" on="0"/>
        <pt x="353" y="720" on="0"/>
        <pt x="382" y="720" on="1"/>
        <pt x="417" y="720" on="0"/>
        <pt x="468" y="701" on="0"/>
        <pt x="494" y="668" on="0"/>
        <pt x="506" y="632" on="0"/>
        <pt x="506" y="611" on="1"/>
        <pt x="506" y="566" on="0"/>
        <pt x="454" y="488" on="0"/>
        <pt x="374" y="440" on="0"/>
        <pt x="331" y="434" on="1"/>
        <pt x="330" y="430" on="1"/>
        <pt x="367" y="425" on="0"/>
        <pt x="434" y="328" on="0"/>
        <pt x="434" y="254" on="1"/>
        <pt x="434" y="211" on="0"/>
        <pt x="398" y="105" on="0"/>
        <pt x="366" y="64" on="1"/>
        <pt x="306" y="-12" on="0"/>
        <pt x="218" y="-12" on="1"/>
        <pt x="183" y="-12" on="0"/>
        <pt x="137" y="33" on="0"/>
        <pt x="137" y="66" on="1"/>
        <pt x="137" y="77" on="0"/>
        <pt x="143" y="102" on="0"/>
        <pt x="156" y="128" on="0"/>
        <pt x="184" y="144" on="0"/>
        <pt x="220" y="144" on="0"/>
        <pt x="239" y="122" on="0"/>
        <pt x="239" y="108" on="1"/>
        <pt x="239" y="92" on="0"/>
        <pt x="222" y="73" on="0"/>
        <pt x="199" y="66" on="1"/>
        <pt x="181" y="61" on="0"/>
        <pt x="181" y="43" on="1"/>
        <pt x="181" y="29" on="0"/>
        <pt x="206" y="12" on="0"/>
        <pt x="226" y="12" on="1"/>
        <pt x="263" y="12" on="0"/>
        <pt x="327" y="90" on="0"/>
        <pt x="362" y="208" on="0"/>
        <pt x="362" y="270" on="1"/>
        <pt x="362" y="418" on="0"/>
        <pt x="288" y="418" on="1"/>
        <pt x="250" y="418" on="1"/>
        <pt x="258" y="446" on="1"/>
        <pt x="296" y="446" on="1"/>
        <pt x="338" y="446" on="0"/>
        <pt x="407" y="496" on="0"/>
        <pt x="442" y="569" on="0"/>
        <pt x="442" y="607" on="1"/>
        <pt x="442" y="652" on="0"/>
        <pt x="410" y="696" on="0"/>
        <pt x="374" y="696" on="1"/>
        <pt x="358" y="696" on="0"/>
        <pt x="324" y="683" on="0"/>
        <pt x="285" y="654" on="0"/>
        <pt x="250" y="594" on="0"/>
        <pt x="238" y="553" on="1"/>
        <pt x="32" y="-205" on="1"/>
      </contour>
    </TTGlyph>
    <TTGlyph name="grave" xMin="214" yMin="508" xMax="330" yMax="676">
      <contour>
        <pt x="214" y="640" on="1"/>
        <pt x="214" y="652" on="0"/>
        <pt x="230" y="676" on="0"/>
        <pt x="250" y="676" on="1"/>
        <pt x="266" y="676" on="0"/>
        <pt x="283" y="658" on="0"/>
        <pt x="290" y="637" on="1"/>
        <pt x="330" y="518" on="1"/>
        <pt x="313" y="508" on="1"/>
        <pt x="228" y="605" on="1"/>
        <pt x="214" y="620" on="0"/>
      </contour>
    </TTGlyph>
    <TTGlyph name="greater" xMin="80" yMin="-156" xMax="856" yMax="684">
      <contour>
        <pt x="80" y="-120" on="1"/>
        <pt x="794" y="264" on="1"/>
        <pt x="80" y="648" on="1"/>
        <pt x="100" y="684" on="1"/>
        <pt x="856" y="278" on="1"/>
        <pt x="856" y="250" on="1"/>
        <pt x="100" y="-156" on="1"/>
      </contour>
    </TTGlyph>
    <TTGlyph name="guillemotleft" xMin="54" yMin="18" xMax="376" yMax="438">
      <contour>
        <pt x="202" y="228" on="1"/>
        <pt x="272" y="284" on="0"/>
        <pt x="365" y="382" on="1"/>
        <pt x="376" y="372" on="1"/>
        <pt x="269" y="228" on="1"/>
        <pt x="298" y="84" on="1"/>
        <pt x="281" y="74" on="1"/>
        <pt x="242" y="174" on="0"/>
      </contour>
      <contour>
        <pt x="54" y="228" on="1"/>
        <pt x="154" y="302" on="0"/>
        <pt x="295" y="438" on="1"/>
        <pt x="306" y="428" on="1"/>
        <pt x="144" y="228" on="1"/>
        <pt x="198" y="28" on="1"/>
        <pt x="181" y="18" on="1"/>
        <pt x="146" y="89" on="0"/>
        <pt x="88" y="186" on="0"/>
      </contour>
    </TTGlyph>
    <TTGlyph name="guillemotright" xMin="72" yMin="18" xMax="394" yMax="438">
      <contour>
        <pt x="72" y="84" on="1"/>
        <pt x="179" y="228" on="1"/>
        <pt x="150" y="372" on="1"/>
        <pt x="167" y="382" on="1"/>
        <pt x="206" y="282" on="0"/>
        <pt x="246" y="228" on="1"/>
        <pt x="176" y="172" on="0"/>
        <pt x="83" y="74" on="1"/>
      </contour>
      <contour>
        <pt x="142" y="28" on="1"/>
        <pt x="304" y="228" on="1"/>
        <pt x="250" y="428" on="1"/>
        <pt x="267" y="438" on="1"/>
        <pt x="302" y="367" on="0"/>
        <pt x="360" y="270" on="0"/>
        <pt x="394" y="228" on="1"/>
        <pt x="294" y="154" on="0"/>
        <pt x="153" y="18" on="1"/>
      </contour>
    </TTGlyph>
    <TTGlyph name="guilsinglleft" xMin="54" yMin="18" xMax="306" yMax="438">
      <contour>
        <pt x="54" y="228" on="1"/>
        <pt x="74" y="242" on="0"/>
        <pt x="115" y="276" on="0"/>
        <pt x="144" y="301" on="0"/>
        <pt x="195" y="346" on="0"/>
        <pt x="218" y="367" on="0"/>
        <pt x="284" y="427" on="0"/>
        <pt x="295" y="438" on="1"/>
        <pt x="306" y="428" on="1"/>
        <pt x="144" y="228" on="1"/>
        <pt x="198" y="28" on="1"/>
        <pt x="181" y="18" on="1"/>
        <pt x="175" y="29" on="0"/>
        <pt x="142" y="88" on="0"/>
        <pt x="131" y="110" on="0"/>
        <pt x="105" y="155" on="0"/>
        <pt x="89" y="180" on="0"/>
        <pt x="66" y="214" on="0"/>
      </contour>
    </TTGlyph>
    <TTGlyph name="guilsinglright" xMin="32" yMin="18" xMax="284" yMax="438">
      <contour>
        <pt x="32" y="28" on="1"/>
        <pt x="194" y="228" on="1"/>
        <pt x="140" y="428" on="1"/>
        <pt x="157" y="438" on="1"/>
        <pt x="163" y="427" on="0"/>
        <pt x="196" y="368" on="0"/>
        <pt x="207" y="346" on="0"/>
        <pt x="233" y="301" on="0"/>
        <pt x="249" y="276" on="0"/>
        <pt x="272" y="242" on="0"/>
        <pt x="284" y="228" on="1"/>
        <pt x="264" y="214" on="0"/>
        <pt x="223" y="180" on="0"/>
        <pt x="194" y="155" on="0"/>
        <pt x="143" y="110" on="0"/>
        <pt x="120" y="89" on="0"/>
        <pt x="54" y="29" on="0"/>
        <pt x="43" y="18" on="1"/>
      </contour>
    </TTGlyph>
    <TTGlyph name="h" xMin="24" yMin="-12" xMax="488" yMax="712">
      <contour>
        <pt x="24" y="0" on="1"/>
        <pt x="206" y="666" on="1"/>
        <pt x="210" y="678" on="0"/>
        <pt x="202" y="688" on="0"/>
        <pt x="190" y="688" on="1"/>
        <pt x="102" y="688" on="1"/>
        <pt x="109" y="712" on="1"/>
        <pt x="286" y="712" on="1"/>
        <pt x="154" y="233" on="1"/>
        <pt x="158" y="230" on="1"/>
        <pt x="162" y="236" on="0"/>
        <pt x="188" y="287" on="0"/>
        <pt x="206" y="319" on="0"/>
        <pt x="238" y="370" on="0"/>
        <pt x="268" y="404" on="0"/>
        <pt x="304" y="439" on="0"/>
        <pt x="342" y="456" on="0"/>
        <pt x="362" y="456" on="1"/>
        <pt x="392" y="456" on="0"/>
        <pt x="427" y="407" on="0"/>
        <pt x="427" y="360" on="1"/>
        <pt x="427" y="338" on="0"/>
        <pt x="414" y="276" on="0"/>
        <pt x="407" y="258" on="1"/>
        <pt x="343" y="109" on="1"/>
        <pt x="327" y="74" on="0"/>
        <pt x="327" y="50" on="1"/>
        <pt x="327" y="36" on="0"/>
        <pt x="338" y="18" on="0"/>
        <pt x="350" y="18" on="1"/>
        <pt x="368" y="18" on="0"/>
        <pt x="406" y="53" on="0"/>
        <pt x="438" y="110" on="0"/>
        <pt x="459" y="157" on="0"/>
        <pt x="468" y="182" on="1"/>
        <pt x="488" y="176" on="1"/>
        <pt x="470" y="125" on="0"/>
        <pt x="429" y="45" on="0"/>
        <pt x="370" y="-12" on="0"/>
        <pt x="339" y="-12" on="1"/>
        <pt x="312" y="-12" on="0"/>
        <pt x="275" y="36" on="0"/>
        <pt x="275" y="84" on="1"/>
        <pt x="275" y="106" on="0"/>
        <pt x="287" y="166" on="0"/>
        <pt x="295" y="186" on="1"/>
        <pt x="359" y="335" on="1"/>
        <pt x="375" y="370" on="0"/>
        <pt x="375" y="394" on="1"/>
        <pt x="375" y="426" on="0"/>
        <pt x="353" y="426" on="1"/>
        <pt x="292" y="426" on="0"/>
        <pt x="226" y="313" on="1"/>
        <pt x="186" y="246" on="0"/>
        <pt x="124" y="111" on="0"/>
        <pt x="110" y="66" on="1"/>
        <pt x="90" y="0" on="1"/>
      </contour>
    </TTGlyph>
    <TTGlyph name="hyphen" xMin="56" yMin="196" xMax="346" yMax="308">
      <contour>
        <pt x="56" y="196" on="1"/>
        <pt x="56" y="231" on="0"/>
        <pt x="92" y="280" on="0"/>
        <pt x="124" y="280" on="1"/>
        <pt x="300" y="280" on="1"/>
        <pt x="315" y="280" on="0"/>
        <pt x="328" y="293" on="0"/>
        <pt x="328" y="308" on="1"/>
        <pt x="346" y="308" on="1"/>
        <pt x="346" y="273" on="0"/>
        <pt x="310" y="224" on="0"/>
        <pt x="278" y="224" on="1"/>
        <pt x="102" y="224" on="1"/>
        <pt x="87" y="224" on="0"/>
        <pt x="74" y="211" on="0"/>
        <pt x="74" y="196" on="1"/>
      </contour>
    </TTGlyph>
    <TTGlyph name="i" xMin="36" yMin="-12" xMax="320" yMax="690">
      <component glyphName="dotlessi" x="0" y="0" flags="0x1004"/>
      <component glyphName="dotaccent" x="-64" y="42" flags="0x1004"/>
    </TTGlyph>
    <TTGlyph name="iacute" xMin="36" yMin="-12" xMax="392" yMax="670">
      <component glyphName="dotlessi" x="0" y="0" flags="0x1004"/>
      <component glyphName="acute" x="-82" y="0" flags="0x1004"/>
    </TTGlyph>
    <TTGlyph name="icircumflex" xMin="36" yMin="-12" xMax="358" yMax="672">
      <component glyphName="dotlessi" x="0" y="0" flags="0x1004"/>
      <component glyphName="circumflex" x="-82" y="0" flags="0x1004"/>
    </TTGlyph>
    <TTGlyph name="idieresis" xMin="36" yMin="-12" xMax="384" yMax="648">
      <contour>
        <pt x="280" y="574" on="0"/>
        <pt x="280" y="618" on="0"/>
        <pt x="310" y="648" on="0"/>
        <pt x="354" y="648" on="0"/>
        <pt x="384" y="618" on="0"/>
        <pt x="384" y="574" on="0"/>
        <pt x="354" y="544" on="0"/>
        <pt x="310" y="544" on="0"/>
      </contour>
      <contour>
        <pt x="116" y="574" on="0"/>
        <pt x="116" y="618" on="0"/>
        <pt x="146" y="648" on="0"/>
        <pt x="190" y="648" on="0"/>
        <pt x="220" y="618" on="0"/>
        <pt x="220" y="574" on="0"/>
        <pt x="190" y="544" on="0"/>
        <pt x="146" y="544" on="0"/>
      </contour>
      <contour>
        <pt x="36" y="268" on="1"/>
        <pt x="64" y="348" on="0"/>
        <pt x="141" y="456" on="0"/>
        <pt x="186" y="456" on="1"/>
        <pt x="212" y="456" on="0"/>
        <pt x="249" y="406" on="0"/>
        <pt x="249" y="360" on="1"/>
        <pt x="249" y="338" on="0"/>
        <pt x="236" y="276" on="0"/>
        <pt x="229" y="258" on="1"/>
        <pt x="165" y="109" on="1"/>
        <pt x="149" y="74" on="0"/>
        <pt x="149" y="50" on="1"/>
        <pt x="149" y="36" on="0"/>
        <pt x="160" y="18" on="0"/>
        <pt x="172" y="18" on="1"/>
        <pt x="190" y="18" on="0"/>
        <pt x="228" y="53" on="0"/>
        <pt x="260" y="110" on="0"/>
        <pt x="281" y="157" on="0"/>
        <pt x="290" y="182" on="1"/>
        <pt x="310" y="176" on="1"/>
        <pt x="292" y="125" on="0"/>
        <pt x="251" y="45" on="0"/>
        <pt x="192" y="-12" on="0"/>
        <pt x="161" y="-12" on="1"/>
        <pt x="134" y="-12" on="0"/>
        <pt x="97" y="36" on="0"/>
        <pt x="97" y="84" on="1"/>
        <pt x="97" y="106" on="0"/>
        <pt x="109" y="166" on="0"/>
        <pt x="117" y="186" on="1"/>
        <pt x="181" y="335" on="1"/>
        <pt x="197" y="370" on="0"/>
        <pt x="197" y="394" on="1"/>
        <pt x="197" y="426" on="0"/>
        <pt x="175" y="426" on="1"/>
        <pt x="156" y="426" on="0"/>
        <pt x="118" y="391" on="0"/>
        <pt x="86" y="334" on="0"/>
        <pt x="65" y="286" on="0"/>
        <pt x="56" y="262" on="1"/>
      </contour>
    </TTGlyph>
    <TTGlyph name="igrave" xMin="36" yMin="-12" xMax="310" yMax="676">
      <component glyphName="dotlessi" x="0" y="0" flags="0x1004"/>
      <component glyphName="grave" x="-82" y="0" flags="0x1004"/>
    </TTGlyph>
    <TTGlyph name="j" xMin="-97" yMin="-248" xMax="344" yMax="690">
      <contour>
        <pt x="-97" y="-163" on="1"/>
        <pt x="-97" y="-135" on="0"/>
        <pt x="-60" y="-95" on="0"/>
        <pt x="-37" y="-95" on="1"/>
        <pt x="-19" y="-95" on="0"/>
        <pt x="1" y="-116" on="0"/>
        <pt x="1" y="-133" on="1"/>
        <pt x="1" y="-159" on="0"/>
        <pt x="-22" y="-173" on="1"/>
        <pt x="-38" y="-183" on="0"/>
        <pt x="-38" y="-196" on="1"/>
        <pt x="-38" y="-224" on="0"/>
        <pt x="-7" y="-224" on="1"/>
        <pt x="22" y="-224" on="0"/>
        <pt x="72" y="-180" on="0"/>
        <pt x="87" y="-127" on="1"/>
        <pt x="90" y="-115" on="0"/>
        <pt x="108" y="-36" on="0"/>
        <pt x="112" y="-21" on="1"/>
        <pt x="204" y="318" on="1"/>
        <pt x="204" y="318" on="0"/>
        <pt x="209" y="336" on="1"/>
        <pt x="214" y="354" on="0"/>
        <pt x="218" y="380" on="0"/>
        <pt x="218" y="404" on="0"/>
        <pt x="207" y="422" on="0"/>
        <pt x="196" y="422" on="1"/>
        <pt x="174" y="422" on="0"/>
        <pt x="126" y="366" on="0"/>
        <pt x="90" y="294" on="0"/>
        <pt x="76" y="254" on="1"/>
        <pt x="56" y="260" on="1"/>
        <pt x="64" y="286" on="0"/>
        <pt x="86" y="334" on="0"/>
        <pt x="116" y="390" on="0"/>
        <pt x="150" y="430" on="0"/>
        <pt x="194" y="456" on="0"/>
        <pt x="216" y="456" on="1"/>
        <pt x="235" y="456" on="0"/>
        <pt x="262" y="440" on="0"/>
        <pt x="275" y="416" on="0"/>
        <pt x="280" y="393" on="0"/>
        <pt x="280" y="382" on="1"/>
        <pt x="280" y="353" on="0"/>
        <pt x="269" y="306" on="1"/>
        <pt x="173" y="-46" on="1"/>
        <pt x="162" y="-84" on="0"/>
        <pt x="126" y="-155" on="0"/>
        <pt x="78" y="-213" on="0"/>
        <pt x="18" y="-248" on="0"/>
        <pt x="-13" y="-248" on="1"/>
        <pt x="-43" y="-248" on="0"/>
        <pt x="-97" y="-204" on="0"/>
      </contour>
      <contour>
        <pt x="240" y="616" on="0"/>
        <pt x="240" y="660" on="0"/>
        <pt x="270" y="690" on="0"/>
        <pt x="314" y="690" on="0"/>
        <pt x="344" y="660" on="0"/>
        <pt x="344" y="616" on="0"/>
        <pt x="314" y="586" on="0"/>
        <pt x="270" y="586" on="0"/>
      </contour>
    </TTGlyph>
    <TTGlyph name="k" xMin="24" yMin="-12" xMax="456" yMax="712">
      <contour>
        <pt x="24" y="0" on="1"/>
        <pt x="206" y="666" on="1"/>
        <pt x="210" y="678" on="0"/>
        <pt x="202" y="688" on="0"/>
        <pt x="190" y="688" on="1"/>
        <pt x="102" y="688" on="1"/>
        <pt x="109" y="712" on="1"/>
        <pt x="286" y="712" on="1"/>
        <pt x="160" y="250" on="1"/>
        <pt x="223" y="250" on="1"/>
        <pt x="269" y="250" on="0"/>
        <pt x="309" y="379" on="1"/>
        <pt x="322" y="422" on="0"/>
        <pt x="368" y="456" on="0"/>
        <pt x="394" y="456" on="1"/>
        <pt x="408" y="456" on="0"/>
        <pt x="434" y="442" on="0"/>
        <pt x="440" y="434" on="1"/>
        <pt x="456" y="412" on="0"/>
        <pt x="456" y="356" on="0"/>
        <pt x="428" y="322" on="0"/>
        <pt x="406" y="322" on="1"/>
        <pt x="392" y="322" on="0"/>
        <pt x="370" y="340" on="0"/>
        <pt x="370" y="356" on="1"/>
        <pt x="370" y="370" on="0"/>
        <pt x="379" y="383" on="1"/>
        <pt x="386" y="394" on="0"/>
        <pt x="386" y="400" on="1"/>
        <pt x="386" y="416" on="0"/>
        <pt x="367" y="416" on="1"/>
        <pt x="353" y="416" on="0"/>
        <pt x="337" y="396" on="0"/>
        <pt x="331" y="377" on="1"/>
        <pt x="318" y="334" on="0"/>
        <pt x="278" y="250" on="0"/>
        <pt x="259" y="243" on="1"/>
        <pt x="258" y="238" on="1"/>
        <pt x="284" y="236" on="0"/>
        <pt x="324" y="195" on="0"/>
        <pt x="324" y="162" on="1"/>
        <pt x="324" y="138" on="0"/>
        <pt x="304" y="65" on="0"/>
        <pt x="304" y="53" on="1"/>
        <pt x="304" y="42" on="0"/>
        <pt x="314" y="23" on="0"/>
        <pt x="336" y="23" on="0"/>
        <pt x="350" y="34" on="1"/>
        <pt x="356" y="39" on="0"/>
        <pt x="369" y="52" on="0"/>
        <pt x="380" y="69" on="0"/>
        <pt x="390" y="84" on="0"/>
        <pt x="401" y="106" on="0"/>
        <pt x="408" y="120" on="0"/>
        <pt x="418" y="144" on="0"/>
        <pt x="422" y="154" on="0"/>
        <pt x="431" y="180" on="0"/>
        <pt x="432" y="182" on="1"/>
        <pt x="452" y="176" on="1"/>
        <pt x="387" y="-12" on="0"/>
        <pt x="308" y="-12" on="1"/>
        <pt x="278" y="-12" on="0"/>
        <pt x="236" y="26" on="0"/>
        <pt x="236" y="68" on="1"/>
        <pt x="236" y="94" on="0"/>
        <pt x="260" y="166" on="0"/>
        <pt x="260" y="181" on="1"/>
        <pt x="260" y="204" on="0"/>
        <pt x="242" y="226" on="0"/>
        <pt x="214" y="226" on="1"/>
        <pt x="154" y="226" on="1"/>
        <pt x="90" y="0" on="1"/>
      </contour>
    </TTGlyph>
    <TTGlyph name="l" xMin="54" yMin="-12" xMax="284" yMax="712">
      <contour>
        <pt x="54" y="90" on="1"/>
        <pt x="54" y="110" on="0"/>
        <pt x="64" y="150" on="1"/>
        <pt x="206" y="666" on="1"/>
        <pt x="210" y="678" on="0"/>
        <pt x="202" y="688" on="0"/>
        <pt x="190" y="688" on="1"/>
        <pt x="102" y="688" on="1"/>
        <pt x="109" y="712" on="1"/>
        <pt x="284" y="712" on="1"/>
        <pt x="128" y="138" on="1"/>
        <pt x="112" y="74" on="0"/>
        <pt x="112" y="49" on="1"/>
        <pt x="112" y="22" on="0"/>
        <pt x="150" y="22" on="0"/>
        <pt x="192" y="72" on="0"/>
        <pt x="225" y="140" on="0"/>
        <pt x="239" y="182" on="1"/>
        <pt x="259" y="176" on="1"/>
        <pt x="250" y="150" on="0"/>
        <pt x="234" y="112" on="0"/>
        <pt x="204" y="54" on="0"/>
        <pt x="175" y="16" on="0"/>
        <pt x="134" y="-12" on="0"/>
        <pt x="112" y="-12" on="1"/>
        <pt x="54" y="-12" on="0"/>
      </contour>
    </TTGlyph>
    <TTGlyph name="less" xMin="84" yMin="-156" xMax="860" yMax="684">
      <contour>
        <pt x="84" y="250" on="1"/>
        <pt x="84" y="278" on="1"/>
        <pt x="840" y="684" on="1"/>
        <pt x="860" y="648" on="1"/>
        <pt x="146" y="264" on="1"/>
        <pt x="860" y="-120" on="1"/>
        <pt x="840" y="-156" on="1"/>
      </contour>
    </TTGlyph>
    <TTGlyph name="logicalnot" xMin="72" yMin="240" xMax="556" yMax="446">
      <contour>
        <pt x="72" y="406" on="1"/>
        <pt x="72" y="446" on="1"/>
        <pt x="556" y="446" on="1"/>
        <pt x="556" y="406" on="1"/>
        <pt x="556" y="240" on="1"/>
        <pt x="512" y="240" on="1"/>
        <pt x="512" y="406" on="1"/>
      </contour>
    </TTGlyph>
    <TTGlyph name="m" xMin="36" yMin="-12" xMax="782" yMax="456">
      <contour>
        <pt x="36" y="268" on="1"/>
        <pt x="102" y="456" on="0"/>
        <pt x="182" y="456" on="1"/>
        <pt x="241" y="456" on="0"/>
        <pt x="241" y="353" on="1"/>
        <pt x="241" y="336" on="0"/>
        <pt x="223" y="252" on="0"/>
        <pt x="214" y="233" on="1"/>
        <pt x="218" y="230" on="1"/>
        <pt x="222" y="236" on="0"/>
        <pt x="241" y="274" on="0"/>
        <pt x="254" y="298" on="0"/>
        <pt x="277" y="338" on="0"/>
        <pt x="296" y="366" on="0"/>
        <pt x="320" y="400" on="0"/>
        <pt x="342" y="424" on="0"/>
        <pt x="365" y="446" on="0"/>
        <pt x="388" y="456" on="0"/>
        <pt x="399" y="456" on="1"/>
        <pt x="476" y="456" on="0"/>
        <pt x="476" y="361" on="1"/>
        <pt x="476" y="325" on="0"/>
        <pt x="449" y="233" on="1"/>
        <pt x="452" y="230" on="1"/>
        <pt x="456" y="236" on="0"/>
        <pt x="482" y="287" on="0"/>
        <pt x="500" y="319" on="0"/>
        <pt x="532" y="370" on="0"/>
        <pt x="562" y="404" on="0"/>
        <pt x="598" y="439" on="0"/>
        <pt x="636" y="456" on="0"/>
        <pt x="656" y="456" on="1"/>
        <pt x="686" y="456" on="0"/>
        <pt x="721" y="407" on="0"/>
        <pt x="721" y="360" on="1"/>
        <pt x="721" y="338" on="0"/>
        <pt x="708" y="276" on="0"/>
        <pt x="701" y="258" on="1"/>
        <pt x="637" y="109" on="1"/>
        <pt x="621" y="74" on="0"/>
        <pt x="621" y="50" on="1"/>
        <pt x="621" y="36" on="0"/>
        <pt x="632" y="18" on="0"/>
        <pt x="644" y="18" on="1"/>
        <pt x="662" y="18" on="0"/>
        <pt x="700" y="53" on="0"/>
        <pt x="732" y="110" on="0"/>
        <pt x="753" y="157" on="0"/>
        <pt x="762" y="182" on="1"/>
        <pt x="782" y="176" on="1"/>
        <pt x="764" y="125" on="0"/>
        <pt x="723" y="45" on="0"/>
        <pt x="664" y="-12" on="0"/>
        <pt x="633" y="-12" on="1"/>
        <pt x="606" y="-12" on="0"/>
        <pt x="569" y="36" on="0"/>
        <pt x="569" y="84" on="1"/>
        <pt x="569" y="106" on="0"/>
        <pt x="581" y="166" on="0"/>
        <pt x="589" y="186" on="1"/>
        <pt x="653" y="335" on="1"/>
        <pt x="669" y="370" on="0"/>
        <pt x="669" y="394" on="1"/>
        <pt x="669" y="426" on="0"/>
        <pt x="647" y="426" on="1"/>
        <pt x="586" y="426" on="0"/>
        <pt x="520" y="313" on="1"/>
        <pt x="480" y="246" on="0"/>
        <pt x="418" y="111" on="0"/>
        <pt x="404" y="66" on="1"/>
        <pt x="384" y="0" on="1"/>
        <pt x="318" y="0" on="1"/>
        <pt x="401" y="309" on="1"/>
        <pt x="402" y="313" on="0"/>
        <pt x="409" y="337" on="0"/>
        <pt x="414" y="354" on="0"/>
        <pt x="418" y="378" on="0"/>
        <pt x="418" y="387" on="1"/>
        <pt x="418" y="426" on="0"/>
        <pt x="386" y="426" on="1"/>
        <pt x="360" y="426" on="0"/>
        <pt x="264" y="282" on="0"/>
        <pt x="186" y="116" on="0"/>
        <pt x="170" y="66" on="1"/>
        <pt x="150" y="0" on="1"/>
        <pt x="84" y="0" on="1"/>
        <pt x="168" y="309" on="1"/>
        <pt x="183" y="369" on="0"/>
        <pt x="183" y="394" on="1"/>
        <pt x="183" y="422" on="0"/>
        <pt x="164" y="422" on="1"/>
        <pt x="114" y="422" on="0"/>
        <pt x="56" y="262" on="1"/>
      </contour>
    </TTGlyph>
    <TTGlyph name="mu1" xMin="30" yMin="-282" xMax="552" yMax="444">
      <component glyphName="mugreek" x="0" y="0" flags="0x1004"/>
    </TTGlyph>
    <TTGlyph name="mugreek" xMin="30" yMin="-282" xMax="552" yMax="444">
      <contour>
        <pt x="30" y="-182" on="1"/>
        <pt x="30" y="-43" on="0"/>
        <pt x="82" y="144" on="1"/>
        <pt x="166" y="444" on="1"/>
        <pt x="232" y="444" on="1"/>
        <pt x="178" y="244" on="1"/>
        <pt x="159" y="144" on="0"/>
        <pt x="159" y="116" on="1"/>
        <pt x="159" y="24" on="0"/>
        <pt x="208" y="24" on="1"/>
        <pt x="250" y="24" on="0"/>
        <pt x="324" y="122" on="0"/>
        <pt x="344" y="194" on="1"/>
        <pt x="412" y="444" on="1"/>
        <pt x="480" y="444" on="1"/>
        <pt x="388" y="101" on="1"/>
        <pt x="381" y="76" on="0"/>
        <pt x="381" y="62" on="1"/>
        <pt x="381" y="54" on="0"/>
        <pt x="383" y="42" on="0"/>
        <pt x="388" y="30" on="0"/>
        <pt x="402" y="24" on="0"/>
        <pt x="411" y="24" on="1"/>
        <pt x="457" y="24" on="0"/>
        <pt x="537" y="176" on="1"/>
        <pt x="552" y="167" on="1"/>
        <pt x="540" y="142" on="0"/>
        <pt x="520" y="104" on="0"/>
        <pt x="484" y="50" on="0"/>
        <pt x="450" y="14" on="0"/>
        <pt x="405" y="-12" on="0"/>
        <pt x="383" y="-12" on="1"/>
        <pt x="352" y="-12" on="0"/>
        <pt x="317" y="31" on="0"/>
        <pt x="317" y="62" on="1"/>
        <pt x="317" y="74" on="0"/>
        <pt x="320" y="84" on="1"/>
        <pt x="313" y="86" on="1"/>
        <pt x="254" y="-12" on="0"/>
        <pt x="189" y="-12" on="1"/>
        <pt x="150" y="-12" on="0"/>
        <pt x="104" y="54" on="0"/>
        <pt x="104" y="97" on="1"/>
        <pt x="97" y="100" on="1"/>
        <pt x="79" y="15" on="1"/>
        <pt x="75" y="-4" on="0"/>
        <pt x="75" y="-24" on="1"/>
        <pt x="75" y="-78" on="0"/>
        <pt x="94" y="-151" on="0"/>
        <pt x="111" y="-185" on="1"/>
        <pt x="128" y="-220" on="0"/>
        <pt x="128" y="-241" on="1"/>
        <pt x="128" y="-258" on="0"/>
        <pt x="110" y="-282" on="0"/>
        <pt x="92" y="-282" on="1"/>
        <pt x="71" y="-282" on="0"/>
        <pt x="42" y="-249" on="0"/>
        <pt x="30" y="-206" on="0"/>
      </contour>
    </TTGlyph>
    <TTGlyph name="multiply" xMin="164" yMin="-50" xMax="792" yMax="578">
      <contour>
        <pt x="164" y="-18" on="1"/>
        <pt x="447" y="264" on="1"/>
        <pt x="164" y="546" on="1"/>
        <pt x="196" y="578" on="1"/>
        <pt x="478" y="295" on="1"/>
        <pt x="760" y="578" on="1"/>
        <pt x="792" y="546" on="1"/>
        <pt x="509" y="264" on="1"/>
        <pt x="792" y="-18" on="1"/>
        <pt x="760" y="-50" on="1"/>
        <pt x="478" y="233" on="1"/>
        <pt x="196" y="-50" on="1"/>
      </contour>
    </TTGlyph>
    <TTGlyph name="n" xMin="36" yMin="-12" xMax="548" yMax="456">
      <contour>
        <pt x="36" y="268" on="1"/>
        <pt x="102" y="456" on="0"/>
        <pt x="183" y="456" on="1"/>
        <pt x="241" y="456" on="0"/>
        <pt x="241" y="354" on="1"/>
        <pt x="241" y="334" on="0"/>
        <pt x="222" y="251" on="0"/>
        <pt x="215" y="233" on="1"/>
        <pt x="218" y="230" on="1"/>
        <pt x="222" y="236" on="0"/>
        <pt x="248" y="287" on="0"/>
        <pt x="266" y="319" on="0"/>
        <pt x="298" y="370" on="0"/>
        <pt x="328" y="404" on="0"/>
        <pt x="364" y="439" on="0"/>
        <pt x="402" y="456" on="0"/>
        <pt x="422" y="456" on="1"/>
        <pt x="452" y="456" on="0"/>
        <pt x="487" y="407" on="0"/>
        <pt x="487" y="360" on="1"/>
        <pt x="487" y="338" on="0"/>
        <pt x="474" y="276" on="0"/>
        <pt x="467" y="258" on="1"/>
        <pt x="403" y="109" on="1"/>
        <pt x="387" y="74" on="0"/>
        <pt x="387" y="50" on="1"/>
        <pt x="387" y="36" on="0"/>
        <pt x="398" y="18" on="0"/>
        <pt x="410" y="18" on="1"/>
        <pt x="428" y="18" on="0"/>
        <pt x="466" y="53" on="0"/>
        <pt x="498" y="110" on="0"/>
        <pt x="519" y="157" on="0"/>
        <pt x="528" y="182" on="1"/>
        <pt x="548" y="176" on="1"/>
        <pt x="530" y="125" on="0"/>
        <pt x="489" y="45" on="0"/>
        <pt x="430" y="-12" on="0"/>
        <pt x="399" y="-12" on="1"/>
        <pt x="372" y="-12" on="0"/>
        <pt x="335" y="36" on="0"/>
        <pt x="335" y="84" on="1"/>
        <pt x="335" y="106" on="0"/>
        <pt x="347" y="166" on="0"/>
        <pt x="355" y="186" on="1"/>
        <pt x="419" y="335" on="1"/>
        <pt x="435" y="370" on="0"/>
        <pt x="435" y="394" on="1"/>
        <pt x="435" y="426" on="0"/>
        <pt x="413" y="426" on="1"/>
        <pt x="352" y="426" on="0"/>
        <pt x="286" y="313" on="1"/>
        <pt x="246" y="246" on="0"/>
        <pt x="184" y="111" on="0"/>
        <pt x="170" y="66" on="1"/>
        <pt x="150" y="0" on="1"/>
        <pt x="84" y="0" on="1"/>
        <pt x="168" y="310" on="1"/>
        <pt x="183" y="370" on="0"/>
        <pt x="183" y="395" on="1"/>
        <pt x="183" y="422" on="0"/>
        <pt x="164" y="422" on="1"/>
        <pt x="144" y="422" on="0"/>
        <pt x="102" y="372" on="0"/>
        <pt x="70" y="304" on="0"/>
        <pt x="56" y="262" on="1"/>
      </contour>
    </TTGlyph>
    <TTGlyph name="nine" xMin="88" yMin="-16" xMax="546" yMax="700">
      <contour>
        <pt x="214" y="400" on="1"/>
        <pt x="214" y="354" on="0"/>
        <pt x="254" y="294" on="0"/>
        <pt x="294" y="294" on="1"/>
        <pt x="378" y="294" on="0"/>
        <pt x="433" y="419" on="1"/>
        <pt x="458" y="474" on="0"/>
        <pt x="458" y="564" on="1"/>
        <pt x="458" y="610" on="0"/>
        <pt x="413" y="668" on="0"/>
        <pt x="376" y="668" on="1"/>
        <pt x="340" y="668" on="0"/>
        <pt x="279" y="622" on="0"/>
        <pt x="258" y="583" on="1"/>
        <pt x="214" y="502" on="0"/>
      </contour>
      <contour>
        <pt x="88" y="89" on="1"/>
        <pt x="88" y="130" on="0"/>
        <pt x="130" y="182" on="0"/>
        <pt x="159" y="182" on="1"/>
        <pt x="180" y="182" on="0"/>
        <pt x="207" y="159" on="0"/>
        <pt x="207" y="139" on="1"/>
        <pt x="207" y="120" on="0"/>
        <pt x="189" y="94" on="0"/>
        <pt x="171" y="86" on="0"/>
        <pt x="161" y="84" on="1"/>
        <pt x="136" y="78" on="0"/>
        <pt x="136" y="59" on="1"/>
        <pt x="136" y="42" on="0"/>
        <pt x="153" y="29" on="1"/>
        <pt x="171" y="16" on="0"/>
        <pt x="207" y="16" on="1"/>
        <pt x="254" y="16" on="0"/>
        <pt x="350" y="102" on="0"/>
        <pt x="382" y="170" on="1"/>
        <pt x="421" y="252" on="0"/>
        <pt x="433" y="337" on="1"/>
        <pt x="426" y="342" on="1"/>
        <pt x="400" y="302" on="0"/>
        <pt x="322" y="258" on="0"/>
        <pt x="281" y="258" on="1"/>
        <pt x="208" y="258" on="0"/>
        <pt x="127" y="351" on="0"/>
        <pt x="127" y="423" on="1"/>
        <pt x="127" y="474" on="0"/>
        <pt x="172" y="582" on="0"/>
        <pt x="208" y="622" on="1"/>
        <pt x="220" y="634" on="0"/>
        <pt x="248" y="658" on="0"/>
        <pt x="292" y="684" on="0"/>
        <pt x="352" y="700" on="0"/>
        <pt x="384" y="700" on="1"/>
        <pt x="455" y="700" on="0"/>
        <pt x="546" y="586" on="0"/>
        <pt x="546" y="472" on="1"/>
        <pt x="546" y="400" on="0"/>
        <pt x="494" y="219" on="0"/>
        <pt x="447" y="144" on="1"/>
        <pt x="396" y="62" on="0"/>
        <pt x="266" y="-16" on="0"/>
        <pt x="205" y="-16" on="1"/>
        <pt x="156" y="-16" on="0"/>
        <pt x="121" y="13" on="1"/>
        <pt x="88" y="41" on="0"/>
      </contour>
    </TTGlyph>
    <TTGlyph name="ntilde" xMin="36" yMin="-12" xMax="548" yMax="650">
      <component glyphName="n" x="0" y="0" flags="0x1004"/>
      <component glyphName="tilde" x="44" y="0" flags="0x1004"/>
    </TTGlyph>
    <TTGlyph name="numbersign" xMin="56" yMin="0" xMax="665" yMax="684">
      <contour>
        <pt x="56" y="196" on="1"/>
        <pt x="67" y="236" on="1"/>
        <pt x="188" y="236" on="1"/>
        <pt x="282" y="450" on="1"/>
        <pt x="125" y="450" on="1"/>
        <pt x="136" y="490" on="1"/>
        <pt x="299" y="490" on="1"/>
        <pt x="381" y="684" on="1"/>
        <pt x="425" y="684" on="1"/>
        <pt x="342" y="490" on="1"/>
        <pt x="488" y="490" on="1"/>
        <pt x="571" y="684" on="1"/>
        <pt x="615" y="684" on="1"/>
        <pt x="532" y="490" on="1"/>
        <pt x="665" y="490" on="1"/>
        <pt x="654" y="450" on="1"/>
        <pt x="516" y="450" on="1"/>
        <pt x="424" y="236" on="1"/>
        <pt x="593" y="236" on="1"/>
        <pt x="582" y="196" on="1"/>
        <pt x="405" y="196" on="1"/>
        <pt x="322" y="0" on="1"/>
        <pt x="278" y="0" on="1"/>
        <pt x="361" y="196" on="1"/>
        <pt x="216" y="196" on="1"/>
        <pt x="132" y="0" on="1"/>
        <pt x="88" y="0" on="1"/>
        <pt x="172" y="196" on="1"/>
      </contour>
      <contour>
        <pt x="232" y="236" on="1"/>
        <pt x="380" y="236" on="1"/>
        <pt x="472" y="450" on="1"/>
        <pt x="326" y="450" on="1"/>
      </contour>
    </TTGlyph>
    <TTGlyph name="o" xMin="52" yMin="-12" xMax="426" yMax="456">
      <contour>
        <pt x="124" y="104" on="1"/>
        <pt x="124" y="63" on="0"/>
        <pt x="158" y="12" on="0"/>
        <pt x="190" y="12" on="1"/>
        <pt x="212" y="12" on="0"/>
        <pt x="248" y="32" on="0"/>
        <pt x="277" y="70" on="0"/>
        <pt x="296" y="105" on="0"/>
        <pt x="307" y="130" on="1"/>
        <pt x="328" y="178" on="0"/>
        <pt x="354" y="293" on="0"/>
        <pt x="354" y="340" on="1"/>
        <pt x="354" y="381" on="0"/>
        <pt x="322" y="432" on="0"/>
        <pt x="290" y="432" on="1"/>
        <pt x="268" y="432" on="0"/>
        <pt x="231" y="412" on="0"/>
        <pt x="202" y="375" on="0"/>
        <pt x="182" y="338" on="0"/>
        <pt x="171" y="314" on="1"/>
        <pt x="150" y="266" on="0"/>
        <pt x="124" y="151" on="0"/>
      </contour>
      <contour>
        <pt x="52" y="164" on="1"/>
        <pt x="52" y="216" on="0"/>
        <pt x="92" y="322" on="0"/>
        <pt x="156" y="404" on="0"/>
        <pt x="247" y="456" on="0"/>
        <pt x="294" y="456" on="1"/>
        <pt x="318" y="456" on="0"/>
        <pt x="365" y="434" on="0"/>
        <pt x="403" y="392" on="0"/>
        <pt x="426" y="323" on="0"/>
        <pt x="426" y="280" on="1"/>
        <pt x="426" y="228" on="0"/>
        <pt x="387" y="122" on="0"/>
        <pt x="323" y="40" on="0"/>
        <pt x="233" y="-12" on="0"/>
        <pt x="186" y="-12" on="1"/>
        <pt x="133" y="-12" on="0"/>
        <pt x="52" y="80" on="0"/>
      </contour>
    </TTGlyph>
    <TTGlyph name="oacute" xMin="52" yMin="-12" xMax="482" yMax="670">
      <component glyphName="o" x="0" y="0" flags="0x1004"/>
      <component glyphName="acute" x="8" y="0" flags="0x1004"/>
    </TTGlyph>
    <TTGlyph name="ocircumflex" xMin="52" yMin="-12" xMax="448" yMax="672">
      <component glyphName="o" x="0" y="0" flags="0x1004"/>
      <component glyphName="circumflex" x="8" y="0" flags="0x1004"/>
    </TTGlyph>
    <TTGlyph name="odieresis" xMin="52" yMin="-12" xMax="486" yMax="648">
      <component glyphName="o" x="0" y="0" flags="0x1004"/>
      <component glyphName="dieresis" x="8" y="0" flags="0x1004"/>
    </TTGlyph>
    <TTGlyph name="ograve" xMin="52" yMin="-12" xMax="426" yMax="676">
      <component glyphName="o" x="0" y="0" flags="0x1004"/>
      <component glyphName="grave" x="8" y="0" flags="0x1004"/>
    </TTGlyph>
    <TTGlyph name="one" xMin="54" yMin="0" xMax="452" yMax="684">
      <contour>
        <pt x="54" y="0" on="1"/>
        <pt x="62" y="32" on="1"/>
        <pt x="155" y="32" on="1"/>
        <pt x="170" y="32" on="0"/>
        <pt x="188" y="44" on="0"/>
        <pt x="191" y="58" on="1"/>
        <pt x="328" y="563" on="1"/>
        <pt x="318" y="556" on="0"/>
        <pt x="286" y="542" on="0"/>
        <pt x="258" y="534" on="0"/>
        <pt x="215" y="520" on="0"/>
        <pt x="204" y="516" on="1"/>
        <pt x="197" y="536" on="1"/>
        <pt x="222" y="544" on="0"/>
        <pt x="260" y="556" on="0"/>
        <pt x="316" y="582" on="0"/>
        <pt x="359" y="612" on="0"/>
        <pt x="405" y="657" on="0"/>
        <pt x="421" y="684" on="1"/>
        <pt x="452" y="684" on="1"/>
        <pt x="282" y="58" on="1"/>
        <pt x="278" y="44" on="0"/>
        <pt x="288" y="32" on="0"/>
        <pt x="302" y="32" on="1"/>
        <pt x="400" y="32" on="1"/>
        <pt x="392" y="0" on="1"/>
      </contour>
    </TTGlyph>
    <TTGlyph name="onehalf" xMin="130" yMin="-18" xMax="846" yMax="702">
      <component glyphName="uni2215" x="192" y="0" flags="0x1004"/>
      <component glyphName="onesuperior" x="0" y="0" flags="0x1004"/>
      <component glyphName="twosuperior" x="400" y="-280" flags="0x1004"/>
    </TTGlyph>
    <TTGlyph name="onequarter" xMin="130" yMin="-18" xMax="840" yMax="702">
      <component glyphName="uni2215" x="192" y="0" flags="0x1004"/>
      <component glyphName="onesuperior" x="0" y="0" flags="0x1004"/>
      <component glyphName="foursuperior" x="400" y="-280" flags="0x1004"/>
    </TTGlyph>
    <TTGlyph name="onesuperior" xMin="130" yMin="280" xMax="382" yMax="692">
      <contour>
        <pt x="130" y="280" on="1"/>
        <pt x="137" y="304" on="1"/>
        <pt x="192" y="304" on="1"/>
        <pt x="209" y="304" on="0"/>
        <pt x="213" y="319" on="1"/>
        <pt x="293" y="601" on="1"/>
        <pt x="266" y="586" on="0"/>
        <pt x="219" y="576" on="1"/>
        <pt x="216" y="597" on="1"/>
        <pt x="254" y="604" on="0"/>
        <pt x="334" y="652" on="0"/>
        <pt x="360" y="692" on="1"/>
        <pt x="382" y="692" on="1"/>
        <pt x="277" y="319" on="1"/>
        <pt x="275" y="311" on="0"/>
        <pt x="281" y="304" on="0"/>
        <pt x="290" y="304" on="1"/>
        <pt x="345" y="304" on="1"/>
        <pt x="338" y="280" on="1"/>
      </contour>
    </TTGlyph>
    <TTGlyph name="ordfeminine" xMin="88" yMin="362" xMax="401" yMax="700">
      <contour>
        <pt x="88" y="362" on="1"/>
        <pt x="95" y="386" on="1"/>
        <pt x="336" y="386" on="1"/>
        <pt x="329" y="362" on="1"/>
      </contour>
      <contour>
        <pt x="160" y="475" on="1"/>
        <pt x="160" y="456" on="0"/>
        <pt x="174" y="430" on="0"/>
        <pt x="190" y="430" on="1"/>
        <pt x="216" y="430" on="0"/>
        <pt x="272" y="512" on="0"/>
        <pt x="285" y="563" on="1"/>
        <pt x="293" y="594" on="1"/>
        <pt x="298" y="610" on="0"/>
        <pt x="298" y="636" on="1"/>
        <pt x="298" y="654" on="0"/>
        <pt x="278" y="682" on="0"/>
        <pt x="255" y="682" on="1"/>
        <pt x="229" y="682" on="0"/>
        <pt x="184" y="617" on="0"/>
        <pt x="160" y="522" on="0"/>
      </contour>
      <contour>
        <pt x="108" y="503" on="1"/>
        <pt x="108" y="534" on="0"/>
        <pt x="129" y="601" on="0"/>
        <pt x="165" y="661" on="0"/>
        <pt x="222" y="700" on="0"/>
        <pt x="254" y="700" on="1"/>
        <pt x="274" y="700" on="0"/>
        <pt x="304" y="673" on="0"/>
        <pt x="308" y="658" on="1"/>
        <pt x="311" y="658" on="1"/>
        <pt x="320" y="694" on="1"/>
        <pt x="370" y="694" on="1"/>
        <pt x="315" y="497" on="1"/>
        <pt x="306" y="467" on="0"/>
        <pt x="306" y="439" on="0"/>
        <pt x="317" y="439" on="1"/>
        <pt x="336" y="439" on="0"/>
        <pt x="376" y="498" on="0"/>
        <pt x="389" y="534" on="1"/>
        <pt x="401" y="529" on="1"/>
        <pt x="385" y="486" on="0"/>
        <pt x="332" y="412" on="0"/>
        <pt x="305" y="412" on="1"/>
        <pt x="279" y="412" on="0"/>
        <pt x="256" y="440" on="0"/>
        <pt x="256" y="454" on="1"/>
        <pt x="256" y="464" on="0"/>
        <pt x="259" y="471" on="1"/>
        <pt x="257" y="472" on="1"/>
        <pt x="246" y="451" on="0"/>
        <pt x="204" y="412" on="0"/>
        <pt x="184" y="412" on="1"/>
        <pt x="148" y="412" on="0"/>
        <pt x="108" y="462" on="0"/>
      </contour>
    </TTGlyph>
    <TTGlyph name="ordmasculine" xMin="88" yMin="362" xMax="388" yMax="698">
      <contour>
        <pt x="88" y="362" on="1"/>
        <pt x="95" y="386" on="1"/>
        <pt x="336" y="386" on="1"/>
        <pt x="329" y="362" on="1"/>
      </contour>
      <contour>
        <pt x="186" y="484" on="1"/>
        <pt x="186" y="428" on="0"/>
        <pt x="226" y="428" on="1"/>
        <pt x="256" y="428" on="0"/>
        <pt x="308" y="494" on="0"/>
        <pt x="336" y="582" on="0"/>
        <pt x="336" y="621" on="1"/>
        <pt x="336" y="680" on="0"/>
        <pt x="294" y="680" on="1"/>
        <pt x="265" y="680" on="0"/>
        <pt x="213" y="612" on="0"/>
        <pt x="186" y="522" on="0"/>
      </contour>
      <contour>
        <pt x="134" y="508" on="1"/>
        <pt x="134" y="549" on="0"/>
        <pt x="177" y="636" on="0"/>
        <pt x="255" y="698" on="0"/>
        <pt x="299" y="698" on="1"/>
        <pt x="340" y="698" on="0"/>
        <pt x="388" y="642" on="0"/>
        <pt x="388" y="598" on="1"/>
        <pt x="388" y="558" on="0"/>
        <pt x="344" y="471" on="0"/>
        <pt x="265" y="410" on="0"/>
        <pt x="221" y="410" on="1"/>
        <pt x="182" y="410" on="0"/>
        <pt x="134" y="465" on="0"/>
      </contour>
    </TTGlyph>
    <TTGlyph name="oslash" xMin="24" yMin="-12" xMax="458" yMax="456">
      <contour>
        <pt x="24" y="4" on="1"/>
        <pt x="75" y="60" on="1"/>
        <pt x="52" y="104" on="0"/>
        <pt x="52" y="164" on="1"/>
        <pt x="52" y="216" on="0"/>
        <pt x="92" y="322" on="0"/>
        <pt x="156" y="404" on="0"/>
        <pt x="247" y="456" on="0"/>
        <pt x="294" y="456" on="1"/>
        <pt x="354" y="456" on="0"/>
        <pt x="392" y="403" on="1"/>
        <pt x="440" y="456" on="1"/>
        <pt x="458" y="438" on="1"/>
        <pt x="405" y="381" on="1"/>
        <pt x="426" y="338" on="0"/>
        <pt x="426" y="280" on="1"/>
        <pt x="426" y="228" on="0"/>
        <pt x="387" y="122" on="0"/>
        <pt x="323" y="40" on="0"/>
        <pt x="233" y="-12" on="0"/>
        <pt x="186" y="-12" on="1"/>
        <pt x="127" y="-12" on="0"/>
        <pt x="89" y="39" on="1"/>
        <pt x="42" y="-12" on="1"/>
      </contour>
      <contour>
        <pt x="124" y="113" on="1"/>
        <pt x="353" y="361" on="1"/>
        <pt x="349" y="394" on="0"/>
        <pt x="318" y="432" on="0"/>
        <pt x="290" y="432" on="1"/>
        <pt x="268" y="432" on="0"/>
        <pt x="231" y="412" on="0"/>
        <pt x="202" y="375" on="0"/>
        <pt x="182" y="338" on="0"/>
        <pt x="171" y="314" on="1"/>
        <pt x="152" y="268" on="0"/>
        <pt x="126" y="159" on="0"/>
      </contour>
      <contour>
        <pt x="126" y="79" on="1"/>
        <pt x="130" y="48" on="0"/>
        <pt x="164" y="12" on="0"/>
        <pt x="190" y="12" on="1"/>
        <pt x="212" y="12" on="0"/>
        <pt x="248" y="32" on="0"/>
        <pt x="277" y="70" on="0"/>
        <pt x="296" y="105" on="0"/>
        <pt x="307" y="130" on="1"/>
        <pt x="349" y="228" on="0"/>
        <pt x="354" y="325" on="1"/>
      </contour>
    </TTGlyph>
    <TTGlyph name="otilde" xMin="52" yMin="-12" xMax="482" yMax="650">
      <component glyphName="o" x="0" y="0" flags="0x1004"/>
      <component glyphName="tilde" x="8" y="0" flags="0x1004"/>
    </TTGlyph>
    <TTGlyph name="p" xMin="-76" yMin="-238" xMax="502" yMax="456">
      <contour>
        <pt x="200" y="104" on="1"/>
        <pt x="200" y="60" on="0"/>
        <pt x="236" y="12" on="0"/>
        <pt x="267" y="12" on="1"/>
        <pt x="284" y="12" on="0"/>
        <pt x="316" y="34" on="0"/>
        <pt x="344" y="69" on="0"/>
        <pt x="365" y="104" on="0"/>
        <pt x="374" y="124" on="1"/>
        <pt x="400" y="180" on="0"/>
        <pt x="430" y="306" on="0"/>
        <pt x="430" y="359" on="1"/>
        <pt x="430" y="388" on="0"/>
        <pt x="408" y="432" on="0"/>
        <pt x="384" y="432" on="1"/>
        <pt x="348" y="432" on="0"/>
        <pt x="278" y="358" on="0"/>
        <pt x="250" y="294" on="1"/>
        <pt x="230" y="248" on="0"/>
        <pt x="200" y="139" on="0"/>
      </contour>
      <contour>
        <pt x="-76" y="-238" on="1"/>
        <pt x="-68" y="-210" on="1"/>
        <pt x="6" y="-210" on="1"/>
        <pt x="18" y="-210" on="0"/>
        <pt x="30" y="-200" on="0"/>
        <pt x="33" y="-188" on="1"/>
        <pt x="170" y="321" on="1"/>
        <pt x="182" y="369" on="0"/>
        <pt x="182" y="395" on="1"/>
        <pt x="182" y="410" on="0"/>
        <pt x="173" y="422" on="0"/>
        <pt x="162" y="422" on="1"/>
        <pt x="144" y="422" on="0"/>
        <pt x="101" y="370" on="0"/>
        <pt x="68" y="301" on="0"/>
        <pt x="55" y="262" on="1"/>
        <pt x="35" y="268" on="1"/>
        <pt x="101" y="456" on="0"/>
        <pt x="183" y="456" on="1"/>
        <pt x="200" y="456" on="0"/>
        <pt x="223" y="438" on="0"/>
        <pt x="235" y="408" on="0"/>
        <pt x="240" y="378" on="0"/>
        <pt x="240" y="361" on="1"/>
        <pt x="239" y="327" on="1"/>
        <pt x="242" y="325" on="1"/>
        <pt x="250" y="344" on="0"/>
        <pt x="278" y="384" on="0"/>
        <pt x="316" y="428" on="0"/>
        <pt x="366" y="456" on="0"/>
        <pt x="390" y="456" on="1"/>
        <pt x="443" y="456" on="0"/>
        <pt x="502" y="381" on="0"/>
        <pt x="502" y="319" on="1"/>
        <pt x="502" y="258" on="0"/>
        <pt x="466" y="144" on="0"/>
        <pt x="443" y="109" on="1"/>
        <pt x="408" y="54" on="0"/>
        <pt x="315" y="-12" on="0"/>
        <pt x="267" y="-12" on="1"/>
        <pt x="236" y="-12" on="0"/>
        <pt x="186" y="31" on="0"/>
        <pt x="175" y="76" on="1"/>
        <pt x="171" y="78" on="1"/>
        <pt x="101" y="-188" on="1"/>
        <pt x="98" y="-200" on="0"/>
        <pt x="104" y="-210" on="0"/>
        <pt x="116" y="-210" on="1"/>
        <pt x="238" y="-210" on="1"/>
        <pt x="230" y="-238" on="1"/>
      </contour>
    </TTGlyph>
    <TTGlyph name="paragraph" xMin="148" yMin="-156" xMax="628" yMax="712">
      <contour>
        <pt x="148" y="-156" on="1"/>
        <pt x="295" y="386" on="1"/>
        <pt x="235" y="386" on="0"/>
        <pt x="164" y="446" on="0"/>
        <pt x="164" y="499" on="1"/>
        <pt x="164" y="535" on="0"/>
        <pt x="197" y="610" on="0"/>
        <pt x="254" y="672" on="0"/>
        <pt x="338" y="712" on="0"/>
        <pt x="384" y="712" on="1"/>
        <pt x="628" y="712" on="1"/>
        <pt x="618" y="678" on="1"/>
        <pt x="550" y="678" on="1"/>
        <pt x="324" y="-156" on="1"/>
        <pt x="286" y="-156" on="1"/>
        <pt x="512" y="678" on="1"/>
        <pt x="412" y="678" on="1"/>
        <pt x="186" y="-156" on="1"/>
      </contour>
    </TTGlyph>
    <TTGlyph name="parenleft" xMin="84" yMin="-198" xMax="454" yMax="730">
      <contour>
        <pt x="84" y="92" on="1"/>
        <pt x="84" y="185" on="0"/>
        <pt x="139" y="374" on="0"/>
        <pt x="235" y="537" on="0"/>
        <pt x="359" y="677" on="0"/>
        <pt x="430" y="730" on="1"/>
        <pt x="454" y="706" on="1"/>
        <pt x="393" y="656" on="0"/>
        <pt x="292" y="546" on="0"/>
        <pt x="226" y="448" on="0"/>
        <pt x="176" y="345" on="0"/>
        <pt x="148" y="261" on="0"/>
        <pt x="131" y="176" on="0"/>
        <pt x="126" y="119" on="0"/>
        <pt x="126" y="92" on="1"/>
        <pt x="126" y="20" on="0"/>
        <pt x="174" y="-120" on="0"/>
        <pt x="216" y="-174" on="1"/>
        <pt x="184" y="-198" on="1"/>
        <pt x="141" y="-147" on="0"/>
        <pt x="84" y="11" on="0"/>
      </contour>
    </TTGlyph>
    <TTGlyph name="parenright" xMin="-62" yMin="-198" xMax="308" yMax="730">
      <contour>
        <pt x="-62" y="-174" on="1"/>
        <pt x="-1" y="-124" on="0"/>
        <pt x="100" y="-14" on="0"/>
        <pt x="166" y="84" on="0"/>
        <pt x="216" y="187" on="0"/>
        <pt x="244" y="271" on="0"/>
        <pt x="261" y="356" on="0"/>
        <pt x="266" y="413" on="0"/>
        <pt x="266" y="440" on="1"/>
        <pt x="266" y="512" on="0"/>
        <pt x="218" y="652" on="0"/>
        <pt x="176" y="706" on="1"/>
        <pt x="208" y="730" on="1"/>
        <pt x="251" y="679" on="0"/>
        <pt x="308" y="521" on="0"/>
        <pt x="308" y="440" on="1"/>
        <pt x="308" y="347" on="0"/>
        <pt x="253" y="158" on="0"/>
        <pt x="157" y="-5" on="0"/>
        <pt x="33" y="-145" on="0"/>
        <pt x="-38" y="-198" on="1"/>
      </contour>
    </TTGlyph>
    <TTGlyph name="percent" xMin="128" yMin="-24" xMax="794" yMax="724">
      <contour>
        <pt x="572" y="106" on="1"/>
        <pt x="572" y="66" on="0"/>
        <pt x="606" y="24" on="0"/>
        <pt x="628" y="24" on="1"/>
        <pt x="686" y="24" on="0"/>
        <pt x="766" y="152" on="0"/>
        <pt x="766" y="238" on="1"/>
        <pt x="766" y="278" on="0"/>
        <pt x="732" y="320" on="0"/>
        <pt x="710" y="320" on="1"/>
        <pt x="652" y="320" on="0"/>
        <pt x="572" y="192" on="0"/>
      </contour>
      <contour>
        <pt x="500" y="106" on="1"/>
        <pt x="500" y="135" on="0"/>
        <pt x="518" y="200" on="0"/>
        <pt x="552" y="262" on="0"/>
        <pt x="598" y="313" on="0"/>
        <pt x="662" y="344" on="0"/>
        <pt x="696" y="344" on="1"/>
        <pt x="740" y="344" on="0"/>
        <pt x="794" y="276" on="0"/>
        <pt x="794" y="222" on="1"/>
        <pt x="794" y="193" on="0"/>
        <pt x="776" y="128" on="0"/>
        <pt x="742" y="66" on="0"/>
        <pt x="696" y="15" on="0"/>
        <pt x="632" y="-16" on="0"/>
        <pt x="598" y="-16" on="1"/>
        <pt x="554" y="-16" on="0"/>
        <pt x="500" y="52" on="0"/>
      </contour>
      <contour>
        <pt x="128" y="462" on="1"/>
        <pt x="128" y="491" on="0"/>
        <pt x="146" y="556" on="0"/>
        <pt x="180" y="618" on="0"/>
        <pt x="226" y="669" on="0"/>
        <pt x="290" y="700" on="0"/>
        <pt x="324" y="700" on="1"/>
        <pt x="360" y="700" on="0"/>
        <pt x="412" y="651" on="0"/>
        <pt x="419" y="610" on="1"/>
        <pt x="426" y="595" on="0"/>
        <pt x="481" y="578" on="0"/>
        <pt x="504" y="578" on="1"/>
        <pt x="560" y="578" on="0"/>
        <pt x="679" y="640" on="0"/>
        <pt x="718" y="683" on="1"/>
        <pt x="750" y="724" on="1"/>
        <pt x="774" y="700" on="1"/>
        <pt x="188" y="-24" on="1"/>
        <pt x="164" y="0" on="1"/>
        <pt x="644" y="593" on="1"/>
        <pt x="639" y="595" on="1"/>
        <pt x="607" y="576" on="0"/>
        <pt x="534" y="554" on="0"/>
        <pt x="504" y="554" on="1"/>
        <pt x="460" y="554" on="0"/>
        <pt x="422" y="572" on="1"/>
        <pt x="421" y="536" on="0"/>
        <pt x="392" y="455" on="0"/>
        <pt x="342" y="386" on="0"/>
        <pt x="268" y="340" on="0"/>
        <pt x="226" y="340" on="1"/>
        <pt x="182" y="340" on="0"/>
        <pt x="128" y="408" on="0"/>
      </contour>
      <contour>
        <pt x="200" y="462" on="1"/>
        <pt x="200" y="422" on="0"/>
        <pt x="234" y="380" on="0"/>
        <pt x="256" y="380" on="1"/>
        <pt x="294" y="380" on="0"/>
        <pt x="358" y="438" on="0"/>
        <pt x="393" y="533" on="0"/>
        <pt x="394" y="588" on="1"/>
        <pt x="374" y="602" on="0"/>
        <pt x="351" y="638" on="0"/>
        <pt x="351" y="666" on="0"/>
        <pt x="357" y="672" on="1"/>
        <pt x="349" y="676" on="0"/>
        <pt x="338" y="676" on="1"/>
        <pt x="280" y="676" on="0"/>
        <pt x="200" y="548" on="0"/>
      </contour>
    </TTGlyph>
    <TTGlyph name="period" xMin="60" yMin="-12" xMax="184" yMax="112">
      <contour>
        <pt x="60" y="23" on="0"/>
        <pt x="60" y="77" on="0"/>
        <pt x="95" y="112" on="0"/>
        <pt x="149" y="112" on="0"/>
        <pt x="184" y="77" on="0"/>
        <pt x="184" y="23" on="0"/>
        <pt x="149" y="-12" on="0"/>
        <pt x="95" y="-12" on="0"/>
      </contour>
    </TTGlyph>
    <TTGlyph name="periodcentered" xMin="132" yMin="254" xMax="256" yMax="378">
      <component glyphName="period" x="72" y="266" flags="0x1004"/>
    </TTGlyph>
    <TTGlyph name="plus" xMin="56" yMin="-156" xMax="900" yMax="684">
      <contour>
        <pt x="56" y="244" on="1"/>
        <pt x="56" y="284" on="1"/>
        <pt x="456" y="284" on="1"/>
        <pt x="456" y="684" on="1"/>
        <pt x="500" y="684" on="1"/>
        <pt x="500" y="284" on="1"/>
        <pt x="900" y="284" on="1"/>
        <pt x="900" y="244" on="1"/>
        <pt x="500" y="244" on="1"/>
        <pt x="500" y="-156" on="1"/>
        <pt x="456" y="-156" on="1"/>
        <pt x="456" y="244" on="1"/>
      </contour>
    </TTGlyph>
    <TTGlyph name="plusminus" xMin="64" yMin="-40" xMax="908" yMax="652">
      <contour>
        <pt x="64" y="338" on="1"/>
        <pt x="64" y="378" on="1"/>
        <pt x="464" y="378" on="1"/>
        <pt x="464" y="652" on="1"/>
        <pt x="508" y="652" on="1"/>
        <pt x="508" y="378" on="1"/>
        <pt x="908" y="378" on="1"/>
        <pt x="908" y="338" on="1"/>
        <pt x="508" y="338" on="1"/>
        <pt x="508" y="64" on="1"/>
        <pt x="464" y="64" on="1"/>
        <pt x="464" y="338" on="1"/>
      </contour>
      <contour>
        <pt x="64" y="0" on="1"/>
        <pt x="900" y="0" on="1"/>
        <pt x="900" y="-40" on="1"/>
        <pt x="64" y="-40" on="1"/>
      </contour>
    </TTGlyph>
    <TTGlyph name="q" xMin="42" yMin="-238" xMax="462" yMax="456">
      <contour>
        <pt x="114" y="85" on="1"/>
        <pt x="114" y="56" on="0"/>
        <pt x="136" y="12" on="0"/>
        <pt x="160" y="12" on="1"/>
        <pt x="196" y="12" on="0"/>
        <pt x="266" y="86" on="0"/>
        <pt x="294" y="150" on="1"/>
        <pt x="314" y="196" on="0"/>
        <pt x="344" y="305" on="0"/>
        <pt x="344" y="340" on="1"/>
        <pt x="344" y="384" on="0"/>
        <pt x="308" y="432" on="0"/>
        <pt x="277" y="432" on="1"/>
        <pt x="260" y="432" on="0"/>
        <pt x="228" y="410" on="0"/>
        <pt x="200" y="375" on="0"/>
        <pt x="179" y="340" on="0"/>
        <pt x="170" y="320" on="1"/>
        <pt x="144" y="264" on="0"/>
        <pt x="114" y="138" on="0"/>
      </contour>
      <contour>
        <pt x="42" y="125" on="1"/>
        <pt x="42" y="185" on="0"/>
        <pt x="87" y="302" on="0"/>
        <pt x="113" y="343" on="1"/>
        <pt x="146" y="396" on="0"/>
        <pt x="238" y="456" on="0"/>
        <pt x="283" y="456" on="1"/>
        <pt x="314" y="456" on="0"/>
        <pt x="364" y="405" on="0"/>
        <pt x="373" y="349" on="1"/>
        <pt x="378" y="349" on="1"/>
        <pt x="444" y="444" on="1"/>
        <pt x="462" y="444" on="1"/>
        <pt x="290" y="-188" on="1"/>
        <pt x="287" y="-200" on="0"/>
        <pt x="295" y="-210" on="0"/>
        <pt x="307" y="-210" on="1"/>
        <pt x="381" y="-210" on="1"/>
        <pt x="373" y="-238" on="1"/>
        <pt x="66" y="-238" on="1"/>
        <pt x="74" y="-210" on="1"/>
        <pt x="195" y="-210" on="1"/>
        <pt x="207" y="-210" on="0"/>
        <pt x="219" y="-200" on="0"/>
        <pt x="222" y="-188" on="1"/>
        <pt x="303" y="106" on="0"/>
        <pt x="305" y="117" on="1"/>
        <pt x="302" y="119" on="1"/>
        <pt x="292" y="96" on="0"/>
        <pt x="264" y="54" on="0"/>
        <pt x="226" y="13" on="0"/>
        <pt x="179" y="-12" on="0"/>
        <pt x="154" y="-12" on="1"/>
        <pt x="101" y="-12" on="0"/>
        <pt x="42" y="63" on="0"/>
      </contour>
    </TTGlyph>
</ttFont>
